<?xml version="1.0" standalone="no"?>
<!DOCTYPE svg PUBLIC "-//W3C//DTD SVG 1.1//EN" "http://www.w3.org/Graphics/SVG/1.1/DTD/svg11.dtd" >
<svg>
<metadata>
Created by FontForge 20090622 at Sat Jan 19 23:07:44 2019
 By deploy user
Copyright (c) The Font Bureau, Inc, 2003. All rights reserved.
</metadata>
<defs>
<font id="Amplitude-Bold" horiz-adv-x="1024" >
  <font-face 
    font-family="Amplitude-Bold"
    font-weight="400"
    font-stretch="normal"
    units-per-em="2048"
    panose-1="2 0 8 6 5 0 0 2 0 4"
    ascent="1638"
    descent="-410"
    x-height="1090"
    cap-height="1333"
    bbox="-92 -504 1800 1819"
    underline-thickness="40"
    underline-position="-292"
    unicode-range="U+000D-U+FB02"
  />
<missing-glyph horiz-adv-x="748" 
d="M68 0v1365h544v-1365h-544zM136 68h408v1229h-408v-1229z" />
    <glyph glyph-name=".notdef" horiz-adv-x="748" 
d="M68 0v1365h544v-1365h-544zM136 68h408v1229h-408v-1229z" />
    <glyph glyph-name="glyph1" horiz-adv-x="2048" 
 />
    <glyph glyph-name="glyph1" horiz-adv-x="2048" 
 />
    <glyph glyph-name="uni000D" unicode="&#xd;" 
 />
    <glyph glyph-name="space" unicode=" " horiz-adv-x="438" 
 />
    <glyph glyph-name="exclam" unicode="!" horiz-adv-x="583" 
d="M90 168q0 -90 58.5 -143.5t142.5 -53.5t142.5 53.5t58.5 143.5t-58.5 144.5t-142.5 54.5t-142.5 -54.5t-58.5 -144.5zM106 1024l113 -539h146l112 539v393h-371v-393z" />
    <glyph glyph-name="quotedbl" unicode="&#x22;" horiz-adv-x="980" 
d="M80 1108l119 -377h112l119 377v309h-350v-309zM551 1108l119 -377h112l119 377v309h-350v-309z" />
    <glyph glyph-name="numbersign" unicode="#" horiz-adv-x="1267" 
d="M63 289h203l-45 -289h207l45 289h193l-45 -289h206l45 289h207l43 280h-207l37 238h209l43 280h-209l39 246h-207l-39 -246h-192l39 246h-207l-39 -246h-201l-43 -280h201l-37 -238h-203zM504 557l41 262h213l-41 -262h-213z" />
    <glyph glyph-name="dollar" unicode="$" horiz-adv-x="1095" 
d="M63 63q47 -23 108.5 -45t147.5 -34l-57 -265l162 -36l61 288h19q143 0 242.5 29t162 85t90 139t27.5 192q0 100 -22.5 165.5t-67.5 108.5t-113.5 66.5t-160.5 40.5l61 282q55 -8 103 -21.5t102 -31.5l33 268q-72 31 -183 49l45 207l-161 35l-50 -229q-10 2 -22 2h-23
q-248 0 -372.5 -114t-124.5 -318q0 -109 24.5 -179.5t71.5 -115.5t114.5 -69.5t153.5 -39.5l-63 -295q-63 10 -126 32t-124 48zM365 954q0 68 37.5 97.5t152.5 33.5l-55 -262q-84 20 -109.5 48t-25.5 83zM539 219l59 275q78 -18 101.5 -46t23.5 -81q0 -84 -42 -114t-142 -34
z" />
    <glyph glyph-name="percent" unicode="%" horiz-adv-x="1859" 
d="M59 938q0 -86 20.5 -164t65.5 -136t113 -92t164 -34t165.5 35t115 94t67 137t21.5 164q0 82 -20.5 157t-66 132t-114 92t-164.5 35t-164.5 -35t-114 -93.5t-67 -134t-21.5 -157.5zM334 877v110q0 94 15.5 131t74.5 37t74.5 -36t15.5 -130v-110q0 -98 -15.5 -136
t-74.5 -38t-74.5 36.5t-15.5 135.5zM430 0h207l795 1333h-207zM1069 397q0 -86 20.5 -163.5t65.5 -136t113 -92.5t164 -34t165.5 35t114.5 94.5t66.5 137t21.5 163.5q0 82 -20.5 157t-65.5 132.5t-113.5 92t-164.5 34.5t-165 -34.5t-114 -93t-66.5 -134.5t-21.5 -158z
M1343 336v110q0 94 15.5 131t75.5 37q59 0 74.5 -35.5t15.5 -129.5v-111q0 -98 -15.5 -136t-74.5 -38t-75 37t-16 135z" />
    <glyph glyph-name="ampersand" unicode="&#x26;" horiz-adv-x="1290" 
d="M63 379q0 -207 125 -307.5t347 -100.5q80 0 132 15.5t81 27.5l69 103l84 -117h375l-217 297q41 70 69.5 150.5t45.5 168.5l26 144h-258q-10 -66 -22.5 -124t-28.5 -110l-180 248l194 113q31 43 56.5 99t25.5 132q0 82 -32.5 141.5t-85 99.5t-119 59.5t-134.5 19.5
q-80 0 -152.5 -19.5t-125.5 -60.5t-85 -102.5t-32 -145.5q0 -78 25.5 -155.5t97.5 -178.5q-63 -35 -114.5 -72.5t-88.5 -84t-57.5 -105.5t-20.5 -135zM399 375v41q0 66 17.5 108.5t52.5 79.5l252 -352q-70 -41 -158 -41q-72 0 -118 39t-46 125zM524 1102q0 53 32 75.5
t73 22.5q39 0 69.5 -24.5t30.5 -96.5q0 -61 -20.5 -110t-73.5 -92l-54.5 76.5t-33.5 56t-17.5 46t-5.5 46.5z" />
    <glyph glyph-name="quotesingle" unicode="'" horiz-adv-x="509" 
d="M80 1108l119 -377h112l119 377v309h-350v-309z" />
    <glyph glyph-name="parenleft" unicode="(" horiz-adv-x="741" 
d="M106 647q0 -170 36 -309t87.5 -245.5t109.5 -181.5t101 -116h287q-70 100 -123 193.5t-88 189.5t-53.5 201.5t-18.5 230.5v74q0 123 18.5 228.5t54.5 199.5t87 182t119 176h-287q-45 -39 -102.5 -111.5t-107.5 -176t-85 -237.5t-35 -298z" />
    <glyph glyph-name="parenright" unicode=")" horiz-adv-x="741" 
d="M14 -205h287q43 41 101.5 116t109.5 181.5t87 245.5t36 309q0 164 -35 298t-86 237.5t-107.5 176.5t-101.5 111h-287q68 -88 119 -176t87 -182t54.5 -199.5t18.5 -228.5v-74q0 -125 -18.5 -230.5t-53.5 -201.5t-88 -189.5t-123 -193.5z" />
    <glyph glyph-name="asterisk" unicode="*" horiz-adv-x="892" 
d="M61 1053l119 -39l203 16l-172 -106l-74 -101l189 -137l73 100l47 203l48 -203l73 -100l189 137l-74 101l-172 106l203 -16l118 39l-71 223l-119 -39l-156 -133l78 188v125h-233v-125l78 -188l-156 133l-119 39z" />
    <glyph glyph-name="plus" unicode="+" horiz-adv-x="1042" 
d="M90 518h303v-309h256v309h303v244h-303v309h-256v-309h-303v-244z" />
    <glyph glyph-name="comma" unicode="," horiz-adv-x="589" 
d="M86 178q0 -43 15.5 -74.5t29.5 -48.5l94 -28l-96 -361l88 -35l178 285q45 72 79 136.5t34 131.5q0 90 -61.5 146.5t-149.5 56.5t-149.5 -55.5t-61.5 -153.5z" />
    <glyph glyph-name="hyphen" unicode="-" horiz-adv-x="673" 
d="M90 471h494v285h-494v-285z" />
    <glyph glyph-name="period" unicode="." horiz-adv-x="589" 
d="M84 178q0 -94 61.5 -150.5t149.5 -56.5t149.5 56.5t61.5 150.5t-61.5 151.5t-149.5 57.5t-149.5 -57.5t-61.5 -151.5z" />
    <glyph glyph-name="slash" unicode="/" horiz-adv-x="931" 
d="M16 -205h258l615 1675h-258z" />
    <glyph glyph-name="zero" unicode="0" horiz-adv-x="1255" 
d="M76 670q0 -154 31.5 -283t99 -221t171.5 -143.5t247 -51.5t247.5 52.5t173 145.5t101.5 222t33 283q0 147 -32 272t-99.5 216t-172 143.5t-247.5 52.5q-141 0 -245.5 -52.5t-173.5 -144.5t-101.5 -218t-32.5 -273zM434 618v121q0 115 9.5 185.5t32 109.5t59 52.5
t92.5 13.5q55 0 92 -12.5t60.5 -51.5t32.5 -108.5t9 -184.5v-122q0 -125 -10 -204t-32.5 -123t-59.5 -60.5t-90 -16.5t-90 15.5t-60.5 59.5t-34 123t-10.5 203z" />
    <glyph glyph-name="one" unicode="1" horiz-adv-x="858" 
d="M90 0h721v207h-186v1126h-172l-363 -215v-149h195v-762h-195v-207z" />
    <glyph glyph-name="two" unicode="2" horiz-adv-x="1034" 
d="M88 0h834v264h-258l-267 -39l9 27q14 45 35.5 76.5t48 56.5t56 46.5l60.5 43.5l127.5 98.5t108.5 102.5t74.5 123.5t27.5 161.5q0 182 -109.5 289.5t-336.5 107.5q-158 0 -257.5 -35t-150.5 -68l45 -241q92 35 156.5 53t138.5 18q70 0 109 -25.5t39 -103.5v-30
q0 -39 -10.5 -70t-31 -58.5t-54 -58l-79.5 -69.5l-92 -80t-86 -89t-73.5 -105.5t-53.5 -129.5l-10 -35v-231z" />
    <glyph glyph-name="three" unicode="3" horiz-adv-x="1009" 
d="M51 68q45 -31 145.5 -64t260.5 -33q115 0 206 28t153.5 77t96 119.5t33.5 156.5q0 84 -22.5 141.5t-66.5 96.5t-108.5 61.5t-146.5 34.5q154 33 237 103.5t83 216.5q0 76 -32 141t-92.5 111.5t-148.5 73t-198 26.5q-135 0 -226.5 -26.5t-138.5 -51.5l27 -236l74.5 21.5
t65.5 17t64.5 10.5t69.5 3q86 0 135 -27t49 -108v-23q0 -78 -57 -116t-195 -38h-79v-223h100q131 0 185.5 -31.5t54.5 -117.5v-33q0 -86 -44 -120t-151 -34q-43 0 -77 4t-67.5 12.5t-67.5 21.5l-77 30z" />
    <glyph glyph-name="four" unicode="4" horiz-adv-x="1222" 
d="M39 276h594v-276h336v276h164v238h-164v819h-424l-506 -893v-164zM358 514l162 297l135 350l-18 -428v-219h-279z" />
    <glyph glyph-name="five" unicode="5" horiz-adv-x="1013" 
d="M41 74q47 -35 148.5 -69t271.5 -34q113 0 203 32t152.5 89.5t96 138t33.5 179.5q0 98 -27.5 176t-75.5 131t-114.5 80.5t-144.5 27.5q-84 0 -138.5 -21.5t-95.5 -58.5l29 177l6 137h489v274h-727l-32 -772l202 -29q23 45 51.5 63.5t82.5 18.5q70 0 99.5 -44t29.5 -142
v-37q0 -88 -48.5 -123t-146.5 -35q-41 0 -73.5 5.5t-66.5 16.5t-72 26.5l-85 35.5z" />
    <glyph glyph-name="six" unicode="6" horiz-adv-x="1185" 
d="M82 520q0 -139 38 -241.5t106.5 -171t162.5 -102.5t207 -34q246 0 382 124t136 362q0 207 -98 323.5t-309 116.5q-27 0 -37 -2l-205 -121q31 80 88 155t130 143.5t155 134l161 126.5h-424q-84 -59 -172 -140t-159.5 -182.5t-116.5 -224t-45 -266.5zM434 520v105
q39 25 77 35t87 10t81 -9.5t50.5 -32t25.5 -60.5t7 -95v-47q0 -59 -6 -99t-23.5 -67t-49.5 -38t-81 -11q-94 0 -131 71.5t-37 237.5z" />
    <glyph glyph-name="seven" unicode="7" horiz-adv-x="1034" 
d="M61 1059h336l287 22l-170 -245l-375 -836h350l469 1042v291h-897v-274z" />
    <glyph glyph-name="eight" unicode="8" horiz-adv-x="1157" 
d="M59 362q0 -80 27 -150.5t87 -123.5t159.5 -85t245.5 -32q139 0 237 30t161.5 82t92.5 122.5t29 150.5q0 84 -23.5 144.5t-64.5 103.5t-94.5 73t-110.5 52l180 86q23 35 39 85t16 99q0 63 -20.5 127t-70.5 115t-137 84t-220 33t-225.5 -31t-149.5 -83t-81.5 -120.5
t-24.5 -144.5q0 -72 16 -125t44 -93t64.5 -70.5t77.5 -55.5l-174 -74q-39 -45 -59.5 -91t-20.5 -108zM385 356v37q0 47 16.5 86t47.5 74l130 -50.5t87.5 -41t49 -40t15.5 -50.5v-37q0 -63 -34.5 -99t-125.5 -36q-100 0 -143 38.5t-43 118.5zM457 979v12q0 63 27.5 97
t107.5 34q98 0 124.5 -32.5t26.5 -102.5v-12q0 -51 -22.5 -94t-63.5 -84q-59 20 -98 35.5t-61.5 35t-31.5 45t-9 66.5z" />
    <glyph glyph-name="nine" unicode="9" horiz-adv-x="1183" 
d="M70 872q0 -102 24.5 -186t74.5 -142.5t127 -90t181 -31.5q27 0 37 2l199 113q-31 -74 -86.5 -142.5t-126 -135t-151.5 -131.5l-165 -128h424q84 59 172 139t160 181.5t117 223.5t45 265q0 137 -38 240.5t-106.5 172t-163 102.5t-206.5 34q-123 0 -219.5 -35t-163 -98.5
t-101 -152.5t-34.5 -200zM422 846v47q0 57 6 97t24.5 64.5t50.5 36t81 11.5q47 0 78.5 -14.5t51 -49t28 -91t8.5 -138.5v-104v-21q0 -8 -2 -18q-37 -16 -76 -24.5t-86 -8.5q-100 0 -132 49t-32 164z" />
    <glyph glyph-name="colon" unicode=":" horiz-adv-x="610" 
d="M94 178q0 -94 61.5 -150.5t149.5 -56.5t149.5 56.5t61.5 150.5t-61.5 151.5t-149.5 57.5t-149.5 -57.5t-61.5 -151.5zM94 805q0 -94 61.5 -150.5t149.5 -56.5t149.5 56.5t61.5 150.5t-61.5 151.5t-149.5 57.5t-149.5 -57.5t-61.5 -151.5z" />
    <glyph glyph-name="semicolon" unicode=";" horiz-adv-x="610" 
d="M94 805q0 -94 61.5 -150.5t149.5 -56.5t149.5 56.5t61.5 150.5t-61.5 151.5t-149.5 57.5t-149.5 -57.5t-61.5 -151.5zM98 178q0 -43 15.5 -74.5t29.5 -48.5l95 -28l-97 -361l88 -35l179 285q45 72 78.5 136.5t33.5 131.5q0 90 -61.5 146.5t-149.5 56.5t-149.5 -55.5
t-61.5 -153.5z" />
    <glyph glyph-name="less" unicode="&#x3c;" horiz-adv-x="870" 
d="M80 483l700 -336v295l-303 121l-215 47l215 47l303 117v311l-700 -352v-250z" />
    <glyph glyph-name="equal" unicode="=" horiz-adv-x="1001" 
d="M90 315h821v244h-821v-244zM90 725h821v244h-821v-244z" />
    <glyph glyph-name="greater" unicode="&#x3e;" horiz-adv-x="870" 
d="M90 147l701 353v250l-701 335v-294l303 -121l215 -47l-215 -48l-303 -116v-312z" />
    <glyph glyph-name="question" unicode="?" horiz-adv-x="931" 
d="M37 1352l47 -246q45 14 81 26.5t69.5 20.5t65.5 12t67 4q66 0 104.5 -29.5t38.5 -101.5v-28q0 -70 -27.5 -101.5t-95.5 -64.5q-43 -20 -71.5 -39t-46 -40.5t-23.5 -49t-2 -66.5l20 -164h256v170q51 16 114.5 42t117 71t90.5 114.5t37 178.5q0 84 -28 153.5t-84 118.5
t-139 77t-194 28q-133 0 -232.5 -26t-164.5 -60zM190 168q0 -90 58.5 -143.5t142.5 -53.5t142.5 53.5t58.5 143.5t-58.5 144.5t-142.5 54.5t-142.5 -54.5t-58.5 -144.5z" />
    <glyph glyph-name="at" unicode="@" horiz-adv-x="1656" 
d="M70 524q0 -422 184 -637t575 -215q74 0 147 9.5t139.5 24.5t122.5 34.5t99 38.5l-37 117q-117 -39 -234.5 -68t-234.5 -29q-168 0 -282.5 44t-186 130t-103.5 214t-32 298v74q0 172 35 299t109.5 210t191.5 123t281 40t277.5 -41t185 -117t103.5 -182.5t32 -235.5v-65
q0 -78 -13.5 -154t-41 -135t-69.5 -96t-101 -37h-15q-31 0 -39 12.5t-2 52.5l60 377q39 244 -38 350.5t-276 106.5q-92 0 -177 -21.5t-183 -62.5v-221q80 23 162 38t147 15q59 0 78.5 -24.5t13.5 -61.5l-14 -92l-117 -19q-115 -18 -194.5 -43.5t-130 -65.5t-73 -100.5
t-22.5 -146.5q0 -66 19.5 -113t52.5 -77.5t75 -45t89 -14.5q55 0 97 13.5t71 27.5l78 97l63 -119q25 -6 62.5 -12.5t101.5 -6.5q137 0 229 41t148.5 121t80 199t23.5 274q0 160 -43 292t-134 227.5t-232.5 148.5t-335.5 53q-391 0 -581.5 -214t-190.5 -630zM678 299v16
q0 45 7 76t23.5 50.5t43 31.5t65.5 21l96 18l-41 -274q-18 -16 -42.5 -26.5t-65.5 -10.5q-47 0 -66.5 25.5t-19.5 72.5z" />
    <glyph glyph-name="A" unicode="A" horiz-adv-x="1224" 
d="M20 0h299l56 184h416l51 -184h362l-430 1333h-311zM442 406l99 327l49 234l43 -234l94 -327h-285z" />
    <glyph glyph-name="B" unicode="B" horiz-adv-x="1239" 
d="M137 0h510q260 0 388 87t128 275q0 90 -29.5 148.5t-75.5 94.5t-102.5 53.5t-107.5 25.5q49 12 99 30.5t90 51.5t65.5 83t25.5 126q0 102 -36.5 170.5t-102 110.5t-158 59.5t-204.5 17.5h-490v-1333zM487 258v311h150q90 0 127 -25.5t37 -103.5v-49q0 -74 -36 -103.5
t-134 -29.5h-144zM487 780v291h121q82 0 126 -24.5t44 -96.5v-39q0 -74 -40 -102.5t-107 -28.5h-144z" />
    <glyph glyph-name="C" unicode="C" horiz-adv-x="1091" 
d="M74 670q0 -145 29.5 -272.5t99 -222.5t181.5 -149.5t278 -54.5q121 0 222 32t167 67l-66 264q-80 -37 -150.5 -63.5t-156.5 -26.5q-53 0 -96 15t-74 57t-48.5 116t-17.5 189v116q0 106 14.5 172t43 100.5t71.5 47t99 12.5q86 0 159.5 -17.5t163.5 -47.5l33 278
q-61 31 -152.5 53.5t-201.5 22.5q-170 0 -284 -52.5t-184.5 -144.5t-100 -218t-29.5 -273z" />
    <glyph glyph-name="D" unicode="D" horiz-adv-x="1308" 
d="M137 0h494q301 0 452.5 176t151.5 494q0 317 -145.5 490t-442.5 173h-510v-1333zM487 264v795h131q61 0 107.5 -11.5t78.5 -45t47 -97t15 -168.5v-110q0 -117 -15 -187.5t-46 -109.5t-77 -52.5t-105 -13.5h-136z" />
    <glyph glyph-name="E" unicode="E" horiz-adv-x="1105" 
d="M137 0h879v268h-529v271h406v260h-406v256h490v278h-840v-1333z" />
    <glyph glyph-name="F" unicode="F" horiz-adv-x="1067" 
d="M137 0h350v489h406v261h-406v305h484v278h-834v-1333z" />
    <glyph glyph-name="G" unicode="G" horiz-adv-x="1226" 
d="M74 670q0 -154 29.5 -282t96 -221t175 -144.5t266.5 -51.5q41 0 83 5.5t69 11.5l145 166l92 -170h100v759h-493v-227h184v-248q-35 -18 -74.5 -27.5t-89.5 -9.5q-47 0 -87 15.5t-68.5 58.5t-44 119t-15.5 197v116q0 106 16.5 172t48.5 102t78 48t103 12q96 0 180 -16.5
t176 -44.5l33 280q-66 27 -167 47.5t-218 20.5q-170 0 -287.5 -52.5t-191.5 -144.5t-106.5 -218t-32.5 -273z" />
    <glyph glyph-name="H" unicode="H" horiz-adv-x="1335" 
d="M137 0h350v543h361v-543h350v1333h-350v-516h-361v516h-350v-1333z" />
    <glyph glyph-name="I" unicode="I" horiz-adv-x="653" 
d="M152 0h350v1333h-350v-1333z" />
    <glyph glyph-name="J" unicode="J" horiz-adv-x="882" 
d="M59 49q47 -29 118 -53.5t190 -24.5q123 0 198.5 47.5t117.5 126t55.5 181t13.5 211.5v796h-351v-839q0 -72 -8 -117t-23.5 -70.5t-38 -35t-52.5 -9.5q-53 0 -92.5 12.5l-98.5 32.5z" />
    <glyph glyph-name="K" unicode="K" horiz-adv-x="1247" 
d="M137 0h350v399l76 142l281 -541h383l-320 608l-157 117l462 608h-348l-428 -620l51 338v282h-350v-1333z" />
    <glyph glyph-name="L" unicode="L" horiz-adv-x="1009" 
d="M137 0h811v268h-461v1065h-350v-1333z" />
    <glyph glyph-name="M" unicode="M" horiz-adv-x="1607" 
d="M137 0h277v287l-64 880l117 -614l125 -553h354l125 553l121 614l-68 -876v-291h346v1333h-462l-152 -647l-72 -534l-59 534l-147 647h-441v-1333z" />
    <glyph glyph-name="N" unicode="N" horiz-adv-x="1312" 
d="M137 0h297v485l-82 568l156 -453l307 -600h361v1333h-297v-475l86 -561l-162 455l-293 581h-373v-1333z" />
    <glyph glyph-name="O" unicode="O" horiz-adv-x="1325" 
d="M74 670q0 -145 31.5 -272.5t102.5 -222.5t182 -149.5t269 -54.5t270.5 56.5t184.5 151.5t104.5 223t32.5 272q0 147 -31.5 272t-102 216t-182.5 143.5t-271 52.5q-158 0 -269.5 -52.5t-183.5 -144.5t-104.5 -218t-32.5 -273zM442 616v121q0 115 12.5 185.5t39 108.5
t67.5 51.5t98 13.5t100.5 -12.5t70 -49.5t40 -105.5t13.5 -183.5v-122q0 -123 -13.5 -202t-40 -124t-67.5 -61.5t-98 -16.5q-55 0 -97.5 15.5t-70 58.5t-41 121t-13.5 202z" />
    <glyph glyph-name="P" unicode="P" horiz-adv-x="1224" 
d="M137 0h350v377h142q256 0 393 124t137 359q0 240 -140 356.5t-390 116.5h-492v-1333zM487 618v453h123q98 0 139.5 -39t41.5 -151v-58q0 -119 -39 -162t-138 -43h-127z" />
    <glyph glyph-name="Q" unicode="Q" horiz-adv-x="1325" 
d="M74 670q0 -145 30.5 -271.5t100 -219.5t178.5 -147.5t266 -56.5l158 -245l393 41l-305 325l174 27q86 92 134 225t48 326q0 147 -31.5 272t-102 216t-182.5 143.5t-271 52.5q-158 0 -269.5 -52.5t-183.5 -144.5t-104.5 -218t-32.5 -273zM442 616v121q0 115 12.5 185.5
t39 108.5t67.5 51.5t98 13.5t100.5 -12.5t70 -49.5t40 -105.5t13.5 -183.5v-122q0 -127 -13.5 -208t-40 -126t-67.5 -61.5t-98 -16.5q-55 0 -97.5 15.5t-70 58.5t-41 122.5t-13.5 208.5z" />
    <glyph glyph-name="R" unicode="R" horiz-adv-x="1261" 
d="M137 0h350v479h134l233 -479h360l-202 395l-164 119q178 35 249.5 133t71.5 244q0 121 -36.5 205t-106.5 137t-170 76.5t-225 23.5h-494v-1333zM487 698v373h125q98 0 143.5 -30.5t45.5 -122.5v-58q0 -86 -43 -124t-142 -38h-129z" />
    <glyph glyph-name="S" unicode="S" horiz-adv-x="1058" 
d="M68 63q76 -35 171.5 -63.5t245.5 -28.5q135 0 230.5 29t156 85t87 139t26.5 192q0 104 -26.5 176t-75.5 118t-121 71.5t-162 39.5q-68 10 -108.5 21.5t-62 28t-29 39t-7.5 57.5q0 66 42 91t155 25q88 0 152.5 -13t144.5 -36l33 260q-66 29 -153 46.5t-218 17.5
q-240 0 -357.5 -114t-117.5 -318q0 -109 23.5 -183.5t68.5 -123t110.5 -75t147.5 -40.5q72 -12 117 -23.5t71.5 -27t35.5 -38t9 -57.5q0 -74 -46 -101.5t-158 -27.5q-90 0 -167 22.5t-163 57.5z" />
    <glyph glyph-name="T" unicode="T" horiz-adv-x="1103" 
d="M53 1055h324v-1055h350v1055h324v278h-998v-278z" />
    <glyph glyph-name="U" unicode="U" horiz-adv-x="1314" 
d="M131 502q0 -150 36 -251t95.5 -163.5t137 -89.5t161.5 -27t135.5 12.5t75.5 20.5l94 143l68 -147h244v1333h-351v-1067q-35 -14 -78.5 -24.5t-109.5 -10.5q-84 0 -121 48.5t-37 152.5v901h-350v-831z" />
    <glyph glyph-name="V" unicode="V" horiz-adv-x="1210" 
d="M20 1333l451 -1333h287l432 1333h-326l-180 -653l-55 -395l-56 395l-188 653h-365z" />
    <glyph glyph-name="W" unicode="W" horiz-adv-x="1718" 
d="M33 1333l319 -1333h328l137 573l57 488l56 -488l114 -573h322l320 1333h-302l-112 -575l-39 -510l-45 510l-135 575h-322l-139 -575l-62 -510l-28 510l-103 575h-366z" />
    <glyph glyph-name="X" unicode="X" horiz-adv-x="1183" 
d="M20 0h322l133 303l74 264l86 -264l135 -303h393l-350 684l330 649h-322l-121 -301l-63 -250l-74 250l-133 301h-393l338 -647z" />
    <glyph glyph-name="Y" unicode="Y" horiz-adv-x="1171" 
d="M20 1333l402 -862v-471h350v485l379 848h-320l-159 -432l-54 -313l-63 313l-166 432h-369z" />
    <glyph glyph-name="Z" unicode="Z" horiz-adv-x="1050" 
d="M76 0h899v244h-342l-295 -45l201 207l428 636v291h-875v-254h314l278 35l-174 -176l-434 -655v-283z" />
    <glyph glyph-name="bracketleft" unicode="[" horiz-adv-x="737" 
d="M121 -229h534v229h-213v1241h213v229h-534v-1699z" />
    <glyph glyph-name="backslash" unicode="\" horiz-adv-x="927" 
d="M43 1470l614 -1675h254l-614 1675h-254z" />
    <glyph glyph-name="bracketright" unicode="]" horiz-adv-x="737" 
d="M82 0v-229h534v1699h-534v-229h213v-1241h-213z" />
    <glyph glyph-name="asciicircum" unicode="^" horiz-adv-x="923" 
d="M16 758h275l98 229l57 256l58 -256l92 -229h309l-323 657h-256z" />
    <glyph glyph-name="underscore" unicode="_" horiz-adv-x="714" 
d="M-2 -129v-203h719v203h-719z" />
    <glyph glyph-name="grave" unicode="`" horiz-adv-x="1040" 
d="M190 1550l267 -336h174l-43 336h-398z" />
    <glyph glyph-name="a" unicode="a" horiz-adv-x="1079" 
d="M63 283q0 -86 26 -145.5t67 -96.5t93 -53.5t105 -16.5q76 0 125 15.5t82 31.5l72 103l100 -131q29 -8 65 -13.5t70 -5.5q72 0 115 22.5t66 45.5l-7 129h-59q-25 0 -37 9t-12 44v422q0 131 -21.5 221t-70.5 145.5t-127 80t-189 24.5q-68 0 -131 -11t-118.5 -27.5
t-100.5 -36t-76 -35.5l45 -236q104 35 191.5 56.5t152.5 21.5q66 0 95.5 -24.5t29.5 -65.5v-88l-129 -23q-119 -20 -199.5 -46t-130 -65.5t-71 -100t-21.5 -150.5zM362 305v19q0 74 32 102.5t112 44.5l108 21v-273q-18 -16 -47.5 -29.5t-77.5 -13.5q-53 0 -90 32t-37 97z
" />
    <glyph glyph-name="b" unicode="b" horiz-adv-x="1138" 
d="M125 -6h164l92 149l90 -127q31 -16 82 -30.5t117 -14.5q209 0 305 144.5t96 410.5q0 287 -95 437.5t-296 150.5q-78 0 -135.5 -23.5t-98.5 -64.5v444h-321v-1476zM446 211v590q27 20 62 38.5t80 18.5q86 0 118.5 -57.5t32.5 -210.5v-152q0 -145 -35.5 -204.5
t-107.5 -59.5q-43 0 -80 10.5t-70 26.5z" />
    <glyph glyph-name="c" unicode="c" horiz-adv-x="909" 
d="M63 543q0 -268 121 -420t357 -152q117 0 197.5 26t127.5 52l-28 238q-53 -20 -126 -41t-151 -21q-43 0 -74.5 13.5t-52 47t-30 91t-9.5 147.5v47q0 90 10.5 144.5t30 84t51 40t74.5 10.5q70 0 134.5 -14.5t117.5 -30.5l47 237q-41 23 -125 47.5t-194 24.5
q-236 0 -357 -148.5t-121 -422.5z" />
    <glyph glyph-name="d" unicode="d" horiz-adv-x="1140" 
d="M68 532q0 -276 105.5 -418.5t315.5 -142.5q33 0 67 8.5t52 16.5l103 127l80 -123h225v1470h-322v-417q-37 27 -87 44t-122 17q-78 0 -152.5 -29.5t-133 -97t-95 -179.5t-36.5 -276zM399 444v166q0 76 10.5 124t31 76t50 38t68.5 10q47 0 79 -10t56 -23v-577
q-27 -29 -56.5 -51.5t-76.5 -22.5q-82 0 -122 61.5t-40 208.5z" />
    <glyph glyph-name="e" unicode="e" horiz-adv-x="1026" 
d="M63 543q0 -274 125 -423t381 -149q121 0 214.5 29t140.5 55l-37 232l-136 -40t-161 -22q-55 0 -92 10.5t-58.5 35t-32 65.5t-12.5 104h568v148q0 123 -22.5 220t-74 165.5t-133.5 104.5t-201 36q-223 0 -346 -148.5t-123 -422.5zM395 645q4 135 33 190.5t109 55.5
q72 0 100.5 -44t28.5 -157v-45h-271z" />
    <glyph glyph-name="f" unicode="f" horiz-adv-x="733" 
d="M33 877h121v-877h319v877h227v213h-227v86q0 49 26.5 66.5t86.5 17.5h135l16 188q-29 16 -93 33.5t-150 17.5q-176 0 -258 -101.5t-82 -289.5v-18h-121v-213z" />
    <glyph glyph-name="g" unicode="g" horiz-adv-x="1019" 
d="M51 -127q0 -254 430 -254q98 0 191.5 15.5t167 55.5t117.5 108.5t44 172.5q0 164 -91 229.5t-267 65.5h-244q-59 0 -82.5 18.5t-23.5 53.5q0 41 31 65q71 -24 168 -24h8q90 0 170 18.5t140 61.5t95 113.5t35 175.5q0 35 -5 57t-11 39l-154 84h240v235l-293 -88
q-41 18 -93.5 28.5t-123.5 10.5q-88 0 -169 -19.5t-142.5 -62.5t-97.5 -114.5t-36 -176.5q0 -70 15.5 -116.5t38.5 -87.5l131 -82l-142 -93q-41 -53 -41 -143q0 -70 35 -113t94 -63l-98 -47q-12 -18 -24.5 -46t-12.5 -77zM315 -61q0 23 5.5 44.5t11.5 39.5h278
q59 0 80 -17.5t21 -46.5v-25q0 -43 -55.5 -69.5t-161.5 -26.5q-109 0 -144 23.5t-35 77.5zM371 715v53q0 80 32.5 101.5t96.5 21.5q61 0 95 -22.5t34 -104.5v-51q0 -82 -34 -114t-95 -32q-63 0 -96 32t-33 116z" />
    <glyph glyph-name="h" unicode="h" horiz-adv-x="1138" 
d="M125 0h321v827q45 16 80 23.5t70 7.5q104 0 104 -80v-778h322v754q0 170 -71.5 265t-223.5 95q-92 0 -166 -35l-115 -131v522h-321v-1470z" />
    <glyph glyph-name="i" unicode="i" horiz-adv-x="589" 
d="M119 1356q0 -80 52 -123t124 -43t124 43t52 123t-52 124t-124 44t-124 -44t-52 -124zM135 0h320v1090h-320v-1090z" />
    <glyph glyph-name="j" unicode="j" horiz-adv-x="589" 
d="M-86 -289q29 -16 96 -37.5t180 -21.5q137 0 201 97t64 294v1047h-320v-1143q0 -35 -20.5 -49.5t-67.5 -14.5h-108zM119 1356q0 -80 52 -123t124 -43t124 43t52 123t-52 124t-124 44t-124 -44t-52 -124z" />
    <glyph glyph-name="k" unicode="k" horiz-adv-x="1095" 
d="M125 0h321v375l62 96l227 -471h342l-256 485l-151 107l393 498h-334l-328 -467l45 338v509h-321v-1470z" />
    <glyph glyph-name="l" unicode="l" horiz-adv-x="593" 
d="M137 0h320v1470h-320v-1470z" />
    <glyph glyph-name="m" unicode="m" horiz-adv-x="1689" 
d="M125 0h321v829q41 14 73 21.5t65 7.5q49 0 76.5 -19.5t27.5 -60.5v-778h322v827q43 14 72.5 22.5t64.5 8.5q104 0 104 -80v-778h322v754q0 170 -71.5 265t-223.5 95q-47 0 -86 -9t-80 -26l-119 -137l-88 137q-29 14 -73 24.5t-109 10.5q-47 0 -88 -9t-76 -26l-117 -133
l-92 144h-225v-1090z" />
    <glyph glyph-name="n" unicode="n" horiz-adv-x="1138" 
d="M125 0h321v829q45 14 80 21.5t70 7.5q104 0 104 -80v-778h322v754q0 170 -71.5 265t-223.5 95q-92 0 -166 -35l-119 -135l-92 146h-225v-1090z" />
    <glyph glyph-name="o" unicode="o" horiz-adv-x="1081" 
d="M63 543q0 -268 122.5 -420t355.5 -152q231 0 354 151.5t123 426.5q0 268 -123 416.5t-354 148.5q-233 0 -355.5 -148.5t-122.5 -422.5zM395 524v47q0 94 6.5 152.5t22.5 91.5t45 44t72 11t70.5 -11t45 -45t23.5 -93t6 -158v-45q0 -94 -7 -154.5t-24.5 -94t-45 -46
t-68.5 -12.5q-43 0 -71 12.5t-44 47t-23.5 96t-7.5 157.5z" />
    <glyph glyph-name="p" unicode="p" horiz-adv-x="1132" 
d="M125 -332h321v398q41 -29 99.5 -46.5t134.5 -17.5q109 0 182.5 35t118.5 102.5t64.5 169t19.5 236.5q0 266 -89 417.5t-278 151.5q-59 0 -97 -9t-60 -20l-107 -124l-84 129h-225v-1422zM446 231v592q35 14 73 24.5t77 10.5q72 0 104.5 -57.5t32.5 -179.5v-142
q0 -154 -29.5 -217t-115.5 -63q-39 0 -73 8t-69 24z" />
    <glyph glyph-name="q" unicode="q" horiz-adv-x="1136" 
d="M68 557q0 -287 95 -421t296 -134q78 0 135 22.5t98 57.5v-414h322v1422h-164l-98 -152l-103 137q-29 12 -79 25.5t-126 13.5q-188 0 -282 -144.5t-94 -412.5zM399 479v142q0 123 37 180t107 57q43 0 78.5 -12.5t70.5 -28.5v-561q-27 -20 -61.5 -38.5t-79.5 -18.5
q-84 0 -118 66.5t-34 213.5z" />
    <glyph glyph-name="r" unicode="r" horiz-adv-x="847" 
d="M125 0h321v788q39 10 85.5 18.5t93.5 8.5q57 0 93 -7t58 -17l53 282q-14 14 -44.5 27.5t-82.5 13.5q-43 0 -76.5 -8t-64.5 -21l-119 -167l-92 172h-225v-1090z" />
    <glyph glyph-name="s" unicode="s" horiz-adv-x="911" 
d="M59 754q0 -84 19.5 -143.5t53.5 -99.5t81 -62.5t102 -34.5q66 -14 110 -20.5t71.5 -14.5t40 -23.5t12.5 -48.5q0 -57 -39 -78.5t-137 -21.5q-82 0 -148.5 19.5t-118.5 37.5l-26 -223q49 -23 133 -46.5t207 -23.5q219 0 325.5 95.5t106.5 263.5q0 82 -18.5 139t-53.5 95
t-86 61.5t-116.5 36l-109.5 21.5t-70.5 19.5t-38 26.5t-11.5 43q0 53 36 70.5t134 17.5q59 0 120.5 -12t123.5 -31l45 232q-49 25 -130 45t-198 20q-193 0 -306.5 -85t-113.5 -275z" />
    <glyph glyph-name="t" unicode="t" horiz-adv-x="788" 
d="M39 877h121v-515q0 -188 82 -289.5t258 -101.5q86 0 150.5 17.5t92.5 34.5l-16 175h-135q-63 0 -88 16.5t-25 68.5v594h228v213h-228v296h-125l-315 -376v-133z" />
    <glyph glyph-name="u" unicode="u" horiz-adv-x="1138" 
d="M117 336q0 -170 71.5 -267.5t223.5 -97.5q45 0 91 8.5t89 24.5l106 137l90 -141h226v1090h-322v-846q-39 -16 -73.5 -24.5t-75.5 -8.5q-53 0 -79 23.5t-26 84.5v771h-321v-754z" />
    <glyph glyph-name="v" unicode="v" 
d="M18 1090l347 -1090h311l330 1090h-295l-125 -486l-56 -471l-55 471l-123 486h-334z" />
    <glyph glyph-name="w" unicode="w" horiz-adv-x="1474" 
d="M18 1090l273 -1090h317l80 350l57 461l52 -461l73 -350h314l272 1090h-289l-80 -410l-30 -461l-72 512l-78 359h-295l-84 -359l-77 -512l-29 461l-70 410h-334z" />
    <glyph glyph-name="x" unicode="x" horiz-adv-x="1026" 
d="M29 0h309l98 221l60 252l61 -252l96 -221h344l-290 571l266 519h-309l-78 -193l-54 -233l-63 233l-84 193h-344l285 -535z" />
    <glyph glyph-name="y" unicode="y" 
d="M18 1090l363 -1043l-125 -379h301l449 1422h-295l-125 -451l-58 -381l-49 381l-133 451h-328z" />
    <glyph glyph-name="z" unicode="z" horiz-adv-x="929" 
d="M66 0h804v236h-274l-260 -37l172 159l348 467v265h-774v-248h250l254 24l-156 -127l-364 -485v-254z" />
    <glyph glyph-name="braceleft" unicode="{" horiz-adv-x="761" 
d="M55 541q84 -4 131 -35t47 -103q0 -35 -9 -72.5l-20 -81.5t-20.5 -92t-9.5 -102q0 -129 74.5 -206.5t234.5 -77.5q27 0 58.5 3t59.5 7t50.5 10t32.5 10l-16 199h-58q-74 0 -98.5 31.5t-7.5 115.5l35 199q27 150 -43 215.5t-220 81.5q150 18 220.5 83t42.5 208l-35 174
q-16 84 8.5 112.5t97.5 28.5h58l16 209q-23 10 -66 19.5t-104 9.5q-72 0 -134.5 -18.5t-108.5 -53.5t-72.5 -86t-26.5 -119q0 -55 9 -100t21.5 -83t21.5 -71.5t9 -66.5q0 -74 -47 -106.5t-131 -37.5v-204z" />
    <glyph glyph-name="bar" unicode="|" horiz-adv-x="481" 
d="M121 -205h239v1675h-239v-1675z" />
    <glyph glyph-name="braceright" unicode="}" horiz-adv-x="761" 
d="M78 -199q10 -4 32.5 -10t50 -10t58.5 -7t60 -3q160 0 234.5 77.5t74.5 206.5q0 53 -9.5 101.5t-20.5 92.5l-20.5 82t-9.5 72q0 72 47.5 103t131.5 35v204q-84 4 -131.5 37t-47.5 107q0 33 9.5 66.5t21.5 71.5t21.5 83t9.5 100q0 68 -26.5 119t-73 86t-109 53.5
t-133.5 18.5q-61 0 -104.5 -9.5t-65.5 -19.5l16 -209h58q74 0 98 -28.5t8 -112.5l-35 -174q-29 -143 42 -207.5t220 -83.5q-150 -16 -219 -81.5t-43 -215.5l35 -199q16 -84 -8.5 -115.5t-97.5 -31.5h-58z" />
    <glyph glyph-name="asciitilde" unicode="~" horiz-adv-x="858" 
d="M53 449h158v14q0 61 15.5 98t52.5 37q31 0 46 -15.5t52 -50.5l35 -32q33 -29 66.5 -47.5t92.5 -18.5q106 0 170 114t64 304h-158v-21q0 -59 -16.5 -95t-50.5 -36q-29 0 -44.5 14.5l-54.5 53.5l-32 31q-35 31 -69 49t-93 18q-53 0 -96.5 -29.5t-74 -85t-47 -132
t-16.5 -170.5z" />
    <glyph glyph-name="uni00A0" unicode="&#xa0;" horiz-adv-x="219" 
 />
    <glyph glyph-name="exclamdown" unicode="&#xa1;" horiz-adv-x="583" 
d="M92 918q0 -90 58.5 -144.5t142.5 -54.5t142.5 54t58.5 145q0 90 -58.5 143t-142.5 53t-142.5 -53t-58.5 -143zM106 61v-393h371v393l-112 539h-146z" />
    <glyph glyph-name="cent" unicode="&#xa2;" horiz-adv-x="929" 
d="M63 543q0 -213 76 -353.5t228 -191.5l-74 -246l156 -51l81 270h11q123 0 198.5 26t124.5 52l-26 248l-105.5 -45t-126.5 -33l328 1065l-160 49l-72 -235q-35 8 -74.5 12t-86.5 4q-236 0 -357 -148.5t-121 -422.5zM381 524v47q0 90 11 146.5t34 88.5t56.5 43t78.5 11
q33 0 68 -6l-185 -604q-33 31 -48 95.5t-15 178.5z" />
    <glyph glyph-name="sterling" unicode="&#xa3;" horiz-adv-x="1054" 
d="M104 545h213q2 -14 3.5 -27.5t1.5 -30.5q0 -80 -39 -147.5t-154 -132.5v-207h875v264h-320l-283 -39l156 109q39 47 55.5 99t16.5 106v6h223v239h-270l-19.5 72t-9.5 72v35q0 68 35 93t106 25q37 0 68 -2t62.5 -7t66.5 -15t82 -27l45 242q-35 20 -72 36.5t-82 27
t-101 16.5t-132 6q-227 0 -336 -102.5t-109 -274.5q0 -53 15.5 -101.5t36.5 -95.5h-134v-239z" />
    <glyph glyph-name="currency" unicode="&#xa4;" horiz-adv-x="1165" 
d="M51 399h156q20 -94 62 -173t106.5 -135t155 -88t210.5 -32q131 0 230.5 32t152.5 67l-65 247q-80 -39 -146.5 -64.5t-150.5 -25.5q-72 0 -124 37t-79 135h303v199h-325v125h325v199h-311q20 96 70.5 129.5t132.5 33.5q43 0 78.5 -4t69.5 -12t71 -19.5l80 -25.5l41 262
q-61 31 -144.5 51.5t-193.5 20.5q-127 0 -222.5 -32t-162 -89t-108.5 -137t-62 -178h-150v-199h127v-53v-37q0 -18 2 -35h-129v-199z" />
    <glyph glyph-name="yen" unicode="&#xa5;" horiz-adv-x="1220" 
d="M66 303h374v-303h340v303h375v240h-350l61 145h289v240h-186l172 405h-310l-137 -413l-53 -394l-63 394l-134 413h-378l176 -405h-176v-240h280l64 -145h-344v-240z" />
    <glyph glyph-name="brokenbar" unicode="&#xa6;" horiz-adv-x="481" 
d="M121 -205h239v723h-239v-723zM121 762h239v708h-239v-708z" />
    <glyph glyph-name="section" unicode="&#xa7;" horiz-adv-x="933" 
d="M59 455q0 -86 22.5 -145.5t64.5 -99.5t99.5 -64.5t127.5 -43.5l89 -24t60.5 -24.5t33.5 -33t11 -47.5q0 -53 -36.5 -76.5t-139.5 -23.5q-82 0 -148.5 19.5t-117.5 37.5l-27 -223q49 -23 135 -46t203 -23q96 0 174 19t132.5 62t84 113t29.5 168q0 66 -16.5 115t-45 86
t-67.5 63.5t-84 44.5l176 49q25 41 40 90.5t15 114.5q0 88 -27.5 146.5t-72.5 94.5t-101.5 56.5t-111.5 36.5l-96 26.5t-59.5 21.5t-30.5 27.5t-8 45.5q0 51 35.5 68.5t134.5 17.5q59 0 120.5 -12.5t122.5 -30.5l45 231q-49 25 -130 45.5t-197 20.5q-96 0 -174 -19.5
t-132.5 -62.5t-84 -111.5t-29.5 -167.5q0 -66 17.5 -116t47 -87.5t68.5 -63.5t82 -42l-184 -53q-18 -35 -34 -81t-16 -99zM332 498q0 29 6 49t21.5 36.5t43 29t68.5 26.5q72 -20 101.5 -48t29.5 -91q0 -55 -29.5 -83t-101.5 -55q-43 12 -69.5 23.5t-42 27t-21.5 36t-6 49.5z
" />
    <glyph glyph-name="dieresis" unicode="&#xa8;" 
d="M133 1382q0 -78 48 -126t120 -48t120 48.5t48 125.5q0 78 -48 127.5t-120 49.5t-120 -49.5t-48 -127.5zM555 1382q0 -78 48 -126t120 -48t120 48.5t48 125.5q0 78 -48 127.5t-120 49.5t-120 -49.5t-48 -127.5z" />
    <glyph glyph-name="copyright" unicode="&#xa9;" horiz-adv-x="1269" 
d="M61 670q0 -332 137.5 -515.5t432.5 -183.5q299 0 438 173t139 530q0 162 -35.5 289t-106.5 215t-179.5 134t-251.5 46q-145 0 -253 -47t-179.5 -136.5t-106.5 -217.5t-35 -287zM184 670q0 141 21.5 247.5t74 178t139.5 107.5t216 36t215 -35t138 -105.5t74.5 -176
t22.5 -248.5q0 -158 -21.5 -268.5t-73.5 -180t-140 -102.5t-219 -33t-217 35t-137.5 107.5t-72 181t-20.5 256.5zM299 670q0 -92 18.5 -174t59.5 -141.5t109.5 -94.5t170.5 -35q78 0 138.5 19.5t101.5 42.5l-43 192q-49 -23 -83 -35t-89 -12q-66 0 -93.5 42t-27.5 157v86
q0 102 22.5 140t94.5 38q51 0 91 -9t91 -32l23 203q-39 18 -93.5 32.5t-125.5 14.5q-104 0 -174 -33t-112 -91t-60.5 -137t-18.5 -173z" />
    <glyph glyph-name="ordfeminine" unicode="&#xaa;" horiz-adv-x="972" 
d="M88 662q0 -72 22.5 -121t58.5 -80t81 -44.5t90 -13.5q61 0 99 9.5t67 23.5l59 92l76 -110q25 -6 52.5 -10.5t56.5 -4.5q57 0 104 15.5t68 32.5l-4 114h-46q-20 0 -30.5 9.5t-10.5 37.5v353q0 106 -18 181t-59 122t-107.5 68.5t-163.5 21.5q-117 0 -212 -29t-150 -57
l37 -209q88 29 159.5 47t128.5 18t81 -18t24 -66v-63l-109 -14q-98 -12 -165.5 -34t-109.5 -56.5t-60.5 -87t-18.5 -127.5zM354 680v16q0 59 22.5 85t82.5 36l92 14v-208q-16 -16 -41 -29.5t-64 -13.5q-43 0 -67.5 23.5t-24.5 76.5z" />
    <glyph glyph-name="guillemotleft" unicode="&#xab;" horiz-adv-x="1062" 
d="M66 328l231 -328h285l-226 330l-110 100l110 102l226 326h-287l-229 -326v-204zM494 328l231 -328h285l-226 330l-110 100l110 102l226 326h-287l-229 -326v-204z" />
    <glyph glyph-name="logicalnot" unicode="&#xac;" horiz-adv-x="1216" 
d="M-31 666q14 -178 28.5 -308.5t34 -216.5t48.5 -128t74 -42t73.5 42t48 128t33 216t29.5 309l16 214.5t20.5 206t31 155t51.5 61.5t51 -61.5t30.5 -155t19.5 -206t17 -214.5q14 -178 28.5 -308.5t34 -216.5t48.5 -128t74 -42t73.5 42t48 128t33 216t29.5 309l16.5 214.5
t20.5 206t30.5 155t51.5 61.5t52.5 -61.5t32.5 -155t21.5 -206t18.5 -214.5h59q-16 178 -29.5 308t-33 215t-48 127t-73.5 42t-72.5 -42t-46 -127t-32 -215t-27.5 -308q-10 -102 -18.5 -215t-22 -207t-32.5 -155.5t-52 -61.5t-52.5 61.5t-32.5 155.5t-22.5 206.5
l-17.5 215.5l-28.5 308t-31 215t-46 127t-72.5 42t-73 -42t-46.5 -127t-31.5 -215t-27 -308q-10 -102 -18.5 -215t-22 -207t-33 -155.5t-51.5 -61.5q-33 0 -52.5 61.5t-33 155.5t-22.5 206.5l-17 215.5h-60z" />
    <glyph glyph-name="uni00AD" unicode="&#xad;" horiz-adv-x="673" 
d="M90 471h494v285h-494v-285z" />
    <glyph glyph-name="registered" unicode="&#xae;" horiz-adv-x="962" 
d="M51 842q0 -250 102.5 -387.5t323.5 -137.5q225 0 329.5 130.5t104.5 398.5q0 242 -106.5 377t-323.5 135q-219 0 -324.5 -137.5t-105.5 -378.5zM154 842q0 109 15 187.5t53 129.5t101.5 76t157.5 25t156.5 -24t100.5 -74t54.5 -129t16.5 -187q0 -121 -15.5 -202
t-53.5 -132t-102.5 -72.5t-160.5 -21.5t-158.5 23.5t-99.5 74.5t-51 132t-14 194zM279 555h153v201h39l84 -201h162l-76 168l-68 53q70 16 101 60.5t31 105.5q0 100 -63.5 143t-166.5 43h-196v-573zM432 854v152h35q41 0 58.5 -12.5t17.5 -49.5v-22q0 -35 -16.5 -51.5
t-57.5 -16.5h-37z" />
    <glyph glyph-name="macron" unicode="&#xaf;" 
d="M248 1214h528v256h-528v-256z" />
    <glyph glyph-name="degree" unicode="&#xb0;" horiz-adv-x="671" 
d="M45 1020q0 -92 25.5 -156.5t66.5 -104.5t93.5 -58.5t107.5 -18.5t106.5 18.5t92.5 58.5t65.5 105.5t24.5 157.5t-26 155.5t-66.5 103.5t-93 58.5t-103.5 18.5q-53 0 -105.5 -18.5t-94.5 -58.5t-67.5 -104.5t-25.5 -156.5zM252 997v45q0 96 18.5 124t65.5 28
q45 0 64.5 -27.5t19.5 -124.5v-45q0 -51 -5 -81.5t-15.5 -48t-25.5 -23.5t-38 -6t-38 6t-25.5 23.5t-15.5 48t-5 81.5z" />
    <glyph glyph-name="plusminus" unicode="&#xb1;" horiz-adv-x="1929" 
d="M39 877h121v-877h319v877h191v213h-191v86q0 49 33 66.5t111 17.5h92l16 192q-29 14 -87 30.5t-144 16.5q-176 0 -258 -101.5t-82 -289.5v-18h-121v-213zM735 877h105v-877h319v877h217v213h-217v86q0 49 33 66.5t111 17.5h65l16 188q-25 12 -76 31.5t-128 19.5
q-176 0 -258 -101.5t-82 -289.5v-18h-105v-213zM1473 0h319v1470h-319v-1470z" />
    <glyph glyph-name="uni00B2" unicode="&#xb2;" horiz-adv-x="722" 
d="M84 1313l29 -180q63 23 104 30.5t78 7.5q39 0 59.5 -14t20.5 -53v-14q0 -41 -19.5 -66t-66.5 -66q-61 -51 -115.5 -106t-81.5 -139l-6 -21v-168h551v197h-168l-150 -27l7 15q14 35 42.5 57t67.5 49l84 58.5t67.5 62.5t45 80t16.5 106q0 258 -295 258q-100 0 -163.5 -21.5
t-106.5 -45.5z" />
    <glyph glyph-name="uni00B3" unicode="&#xb3;" horiz-adv-x="761" 
d="M70 567q41 -23 107.5 -42t168.5 -19q154 0 239 64.5t85 168.5q0 109 -59.5 152t-166.5 61q102 23 155.5 69t53.5 138q0 104 -82 162.5t-231 58.5q-86 0 -144.5 -16t-103.5 -37l21 -172q53 16 91 23.5t83 7.5q47 0 76.5 -13.5t29.5 -54.5v-16q0 -41 -31.5 -59.5
t-103.5 -18.5h-72v-164h82q66 0 97.5 -13t31.5 -56v-23q0 -43 -27.5 -58.5t-82.5 -15.5q-53 0 -92 9.5t-93 27.5z" />
    <glyph glyph-name="acute" unicode="&#xb4;" 
d="M369 1214h174l266 336h-397z" />
    <glyph glyph-name="paragraph" unicode="&#xb6;" horiz-adv-x="1134" 
d="M78 944q0 -166 68.5 -261t191.5 -128l166 35v-795h184v1356h125v-1356h184v1538h-471q-205 0 -326.5 -98t-121.5 -291z" />
    <glyph glyph-name="periodcentered" unicode="&#xb7;" horiz-adv-x="589" 
d="M84 662q0 -94 61.5 -150.5t149.5 -56.5t149.5 56t61.5 151q0 94 -61.5 151t-149.5 57t-149.5 -57t-61.5 -151z" />
    <glyph glyph-name="cedilla" unicode="&#xb8;" 
d="M342 -461q23 -14 72 -28.5t110 -14.5q102 0 169 48t67 153q0 74 -41 118t-84 60l-100 -31l73 156h-139l-90 -211l70 -55q20 16 35.5 23t45.5 7q37 0 48.5 -15t11.5 -48v-16q0 -39 -24.5 -53.5t-69.5 -14.5q-35 0 -68 9t-74 26z" />
    <glyph glyph-name="uni00B9" unicode="&#xb9;" horiz-adv-x="667" 
d="M88 524h496v152h-117v688h-127l-252 -154v-123h123v-411h-123v-152z" />
    <glyph glyph-name="ordmasculine" unicode="&#xba;" horiz-adv-x="950" 
d="M86 889q0 -221 103 -345t296 -124q190 0 295 125t105 348q0 221 -104.5 343t-295.5 122q-193 0 -296 -123t-103 -346zM371 868v50q0 74 6 119.5t19.5 70.5t35 34t53.5 9q31 0 53.5 -9t36 -35t19.5 -73t6 -123v-49q0 -74 -6 -120t-20.5 -72.5t-36 -36.5t-52.5 -10t-52 10
t-35.5 37.5t-20.5 75t-6 122.5z" />
    <glyph glyph-name="guillemotright" unicode="&#xbb;" horiz-adv-x="1062" 
d="M53 0h287l229 326v204l-231 328h-285l226 -330l110 -100l-110 -102zM481 0h287l229 326v204l-231 328h-285l226 -330l110 -100l-110 -102z" />
    <glyph glyph-name="onequarter" unicode="&#xbc;" horiz-adv-x="1859" 
d="M92 524h496v152h-117v688h-127l-252 -154v-123h123v-411h-123v-152zM424 0h207l794 1333h-206zM1034 160h371v-160h254v160h102v176h-102v504h-320l-305 -541v-139zM1257 332l101 192l67 178l-12 -219v-151h-156z" />
    <glyph glyph-name="onehalf" unicode="&#xbd;" horiz-adv-x="1859" 
d="M76 524h495v152h-116v688h-127l-252 -154v-123h123v-411h-123v-152zM391 0h207l795 1333h-207zM1198 788l29 -180q63 23 104 31t78 8q39 0 59.5 -14.5t20.5 -52.5v-15q0 -41 -19.5 -65.5t-66.5 -65.5q-61 -51 -115.5 -106.5t-81.5 -139.5l-6 -20v-168h551v197h-168
l-149 -27l6 14q14 35 42.5 57.5t67.5 49.5l84 58.5t68 62t45 80t16 106.5q0 258 -295 258q-100 0 -163.5 -21.5t-106.5 -46.5z" />
    <glyph glyph-name="threequarters" unicode="&#xbe;" horiz-adv-x="1859" 
d="M57 567q41 -23 108 -42t169 -19q154 0 238.5 64.5t84.5 168.5q0 109 -59 152t-166 61q102 23 155.5 69t53.5 138q0 104 -82 162.5t-231 58.5q-86 0 -144.5 -16t-103.5 -37l20 -172q53 16 91 23.5t83 7.5q47 0 77 -13.5t30 -54.5v-16q0 -41 -32 -59.5t-103 -18.5h-72v-164
h82q66 0 97.5 -13t31.5 -56v-23q0 -43 -27.5 -58.5t-83.5 -15.5q-53 0 -92 9.5t-92 27.5zM416 0h207l794 1333h-207zM1063 160h371v-160h254v160h102v176h-102v504h-320l-305 -541v-139zM1286 332l100 192l68 178l-12 -219v-151h-156z" />
    <glyph glyph-name="questiondown" unicode="&#xbf;" horiz-adv-x="931" 
d="M53 25q0 -170 112 -273.5t333 -103.5q133 0 232 25.5t165 60.5l-47 246q-45 -14 -81 -26.5t-69.5 -21t-65.5 -12.5t-67 -4q-66 0 -104.5 29.5t-38.5 101.5v29q0 70 27.5 101.5t95.5 64.5q43 20 71.5 38.5t46 40t23.5 49t2 66.5l-20 164h-256v-170q-53 -16 -116 -42
t-116 -71t-90 -115.5t-37 -176.5zM340 918q0 -90 58.5 -144.5t142.5 -54.5t142 54t58 145q0 90 -58 143t-142 53t-142.5 -53t-58.5 -143z" />
    <glyph glyph-name="Agrave" unicode="&#xc0;" horiz-adv-x="1224" 
d="M20 0h299l56 184h416l51 -184h362l-430 1333h-311zM293 1794l266 -336h174l-43 336h-397zM442 406l99 327l49 234l43 -234l94 -327h-285z" />
    <glyph glyph-name="Aacute" unicode="&#xc1;" horiz-adv-x="1224" 
d="M20 0h299l56 184h416l51 -184h362l-430 1333h-311zM442 406l99 327l49 234l43 -234l94 -327h-285zM502 1458h174l266 336h-397z" />
    <glyph glyph-name="Acircumflex" unicode="&#xc2;" horiz-adv-x="1224" 
d="M20 0h299l56 184h416l51 -184h362l-430 1333h-311zM219 1458h264l64 101l53 151l55 -151l56 -101h293l-271 361h-248zM442 406l99 327l49 234l43 -234l94 -327h-285z" />
    <glyph glyph-name="Atilde" unicode="&#xc3;" horiz-adv-x="1224" 
d="M20 0h299l56 184h416l51 -184h362l-430 1333h-311zM279 1458h147v12q0 104 57 105q25 0 40.5 -11.5t45.5 -37.5l29 -25q29 -27 59.5 -41t79.5 -14q43 0 82 24.5t67.5 70.5t45 109.5t16.5 143.5h-147v-16q0 -100 -58 -101q-25 0 -40 11.5t-46 37.5l-28 25q-29 27 -59.5 41
t-80.5 14q-43 0 -81.5 -24.5t-67.5 -70.5t-45 -109.5t-16 -143.5zM442 406l99 327l49 234l43 -234l94 -327h-285z" />
    <glyph glyph-name="Adieresis" unicode="&#xc4;" horiz-adv-x="1224" 
d="M20 0h299l56 184h416l51 -184h362l-430 1333h-311zM236 1626q0 -78 47.5 -126t119.5 -48t120 48t48 126t-48 127t-120 49t-119.5 -49t-47.5 -127zM442 406l99 327l49 234l43 -234l94 -327h-285zM657 1626q0 -78 48 -126t120 -48t120 48t48 126t-48 127t-120 49t-120 -49
t-48 -127z" />
    <glyph glyph-name="Aring" unicode="&#xc5;" horiz-adv-x="1224" 
d="M20 0h299l56 184h416l51 -184h362l-420 1298q23 29 35 69t12 93q0 63 -17 108.5t-48 74t-71 42t-85 13.5t-85 -13.5t-70.5 -42t-48 -73.5t-17.5 -109q0 -59 15.5 -101t41.5 -71zM442 406l99 327l49 234l43 -234l94 -327h-285zM528 1460q0 76 17.5 96.5t64.5 20.5
t64.5 -20.5t17.5 -96.5t-17.5 -95t-64.5 -19t-64.5 19t-17.5 95z" />
    <glyph glyph-name="AE" unicode="&#xc6;" horiz-adv-x="1828" 
d="M25 0h340l94 184h411v-184h869v268h-529v271h406v260h-406v256h490v278h-946zM571 406l207 405l123 383l-31 -383v-405h-299z" />
    <glyph glyph-name="Ccedilla" unicode="&#xc7;" horiz-adv-x="1091" 
d="M74 670q0 -127 22.5 -241t74.5 -205t136 -152t207 -86l-84 -197l70 -55q20 16 35.5 23t46.5 7q37 0 48 -15t11 -48v-16q0 -39 -24.5 -53.5t-69.5 -14.5q-35 0 -68 9t-73 26l-13 -113q23 -14 72 -28.5t110 -14.5q102 0 169 48t67 153q0 74 -41 118t-84 60l-100 -31l59 127
q129 -2 232.5 31t173.5 68l-66 264q-80 -37 -150.5 -63.5t-156.5 -26.5q-53 0 -96 15t-74 57t-48.5 116t-17.5 189v116q0 106 14.5 172t43 100.5t71.5 47t99 12.5q86 0 159.5 -17.5t163.5 -47.5l33 278q-61 31 -152.5 53.5t-201.5 22.5q-170 0 -284 -52.5t-184.5 -144.5
t-100 -218t-29.5 -273z" />
    <glyph glyph-name="Egrave" unicode="&#xc8;" horiz-adv-x="1105" 
d="M137 0h879v268h-529v271h406v260h-406v256h490v278h-840v-1333zM240 1794l266 -336h174l-43 336h-397z" />
    <glyph glyph-name="Eacute" unicode="&#xc9;" horiz-adv-x="1105" 
d="M137 0h879v268h-529v271h406v260h-406v256h490v278h-840v-1333zM434 1458h174l266 336h-397z" />
    <glyph glyph-name="Ecircumflex" unicode="&#xca;" horiz-adv-x="1105" 
d="M137 0h879v268h-529v271h406v260h-406v256h490v278h-840v-1333zM174 1458h264l64 101l53 151l55 -151l56 -101h292l-270 361h-248z" />
    <glyph glyph-name="Edieresis" unicode="&#xcb;" horiz-adv-x="1105" 
d="M137 0h879v268h-529v271h406v260h-406v256h490v278h-840v-1333zM188 1626q0 -78 48 -126t120 -48t120 48t48 126t-48 127t-120 49t-120 -49t-48 -127zM610 1626q0 -78 48 -126t120 -48t120 48t48 126t-48 127t-120 49t-120 -49t-48 -127z" />
    <glyph glyph-name="Igrave" unicode="&#xcc;" horiz-adv-x="653" 
d="M12 1794l267 -336h174l-43 336h-398zM152 0h350v1333h-350v-1333z" />
    <glyph glyph-name="Iacute" unicode="&#xcd;" horiz-adv-x="653" 
d="M152 0h350v1333h-350v-1333zM213 1458h174l266 336h-397z" />
    <glyph glyph-name="Icircumflex" unicode="&#xce;" horiz-adv-x="653" 
d="M-61 1458h264l63 101l53 151l56 -151l55 -101h293l-270 361h-248zM152 0h350v1333h-350v-1333z" />
    <glyph glyph-name="Idieresis" unicode="&#xcf;" horiz-adv-x="653" 
d="M-45 1626q0 -78 48 -126t120 -48t120 48t48 126t-48 127t-120 49t-120 -49t-48 -127zM152 0h350v1333h-350v-1333zM377 1626q0 -78 48 -126t120 -48t120 48t48 126t-48.5 127t-119.5 49q-72 0 -120 -49t-48 -127z" />
    <glyph glyph-name="Eth" unicode="&#xd0;" horiz-adv-x="1320" 
d="M31 545h127v-545h493q301 0 452.5 176t151.5 494q0 317 -145 490t-442 173h-510v-549h-127v-239zM508 264v281h190v239h-190v275h131q61 0 107.5 -11.5t78 -45t47 -97t15.5 -168.5v-110q0 -117 -15.5 -187.5t-46 -109.5t-77 -52.5t-105.5 -13.5h-135z" />
    <glyph glyph-name="Ntilde" unicode="&#xd1;" horiz-adv-x="1312" 
d="M137 0h297v485l-82 568l156 -453l307 -600h361v1333h-297v-475l86 -561l-162 455l-293 581h-373v-1333zM340 1458h147v12q0 104 58 105q25 0 40 -11.5t46 -37.5l28 -25q29 -27 60 -41t80 -14q43 0 82 24.5t67.5 70.5t45 109.5t16.5 143.5h-148v-16q0 -100 -57 -101
q-25 0 -40 11.5t-46 37.5l-29 25q-29 27 -59.5 41t-79.5 14q-43 0 -82 -24.5t-67.5 -70.5t-45 -109.5t-16.5 -143.5z" />
    <glyph glyph-name="Ograve" unicode="&#xd2;" horiz-adv-x="1325" 
d="M74 670q0 -145 31.5 -272.5t102.5 -222.5t182 -149.5t269 -54.5t270.5 56.5t184.5 151.5t104.5 223t32.5 272q0 147 -31.5 272t-102 216t-182.5 143.5t-271 52.5q-158 0 -269.5 -52.5t-183.5 -144.5t-104.5 -218t-32.5 -273zM340 1794l266 -336h174l-43 336h-397z
M442 616v121q0 115 12.5 185.5t39 108.5t67.5 51.5t98 13.5t100.5 -12.5t70 -49.5t40 -105.5t13.5 -183.5v-122q0 -123 -13.5 -202t-40 -124t-67.5 -61.5t-98 -16.5q-55 0 -97.5 15.5t-70 58.5t-41 121t-13.5 202z" />
    <glyph glyph-name="Oacute" unicode="&#xd3;" horiz-adv-x="1325" 
d="M74 670q0 -145 31.5 -272.5t102.5 -222.5t182 -149.5t269 -54.5t270.5 56.5t184.5 151.5t104.5 223t32.5 272q0 147 -31.5 272t-102 216t-182.5 143.5t-271 52.5q-158 0 -269.5 -52.5t-183.5 -144.5t-104.5 -218t-32.5 -273zM442 616v121q0 115 12.5 185.5t39 108.5
t67.5 51.5t98 13.5t100.5 -12.5t70 -49.5t40 -105.5t13.5 -183.5v-122q0 -123 -13.5 -202t-40 -124t-67.5 -61.5t-98 -16.5q-55 0 -97.5 15.5t-70 58.5t-41 121t-13.5 202zM580 1458h174l266 336h-397z" />
    <glyph glyph-name="Ocircumflex" unicode="&#xd4;" horiz-adv-x="1325" 
d="M74 670q0 -145 31.5 -272.5t102.5 -222.5t182 -149.5t269 -54.5t270.5 56.5t184.5 151.5t104.5 223t32.5 272q0 147 -31.5 272t-102 216t-182.5 143.5t-271 52.5q-158 0 -269.5 -52.5t-183.5 -144.5t-104.5 -218t-32.5 -273zM266 1458h264l64 101l53 151l55 -151l56 -101
h293l-271 361h-248zM442 616v121q0 115 12.5 185.5t39 108.5t67.5 51.5t98 13.5t100.5 -12.5t70 -49.5t40 -105.5t13.5 -183.5v-122q0 -123 -13.5 -202t-40 -124t-67.5 -61.5t-98 -16.5q-55 0 -97.5 15.5t-70 58.5t-41 121t-13.5 202z" />
    <glyph glyph-name="Otilde" unicode="&#xd5;" horiz-adv-x="1325" 
d="M74 670q0 -145 31.5 -272.5t102.5 -222.5t182 -149.5t269 -54.5t270.5 56.5t184.5 151.5t104.5 223t32.5 272q0 147 -31.5 272t-102 216t-182.5 143.5t-271 52.5q-158 0 -269.5 -52.5t-183.5 -144.5t-104.5 -218t-32.5 -273zM326 1458h147v12q0 104 57 105
q25 0 40.5 -11.5t45.5 -37.5l29 -25q29 -27 59.5 -41t79.5 -14q43 0 82 24.5t68 70.5t45 109.5t16 143.5h-147v-16q0 -100 -57 -101q-25 0 -40.5 11.5t-45.5 37.5l-29 25q-29 27 -59.5 41t-79.5 14q-43 0 -82 -24.5t-68 -70.5t-45 -109.5t-16 -143.5zM442 616v121
q0 115 12.5 185.5t39 108.5t67.5 51.5t98 13.5t100.5 -12.5t70 -49.5t40 -105.5t13.5 -183.5v-122q0 -123 -13.5 -202t-40 -124t-67.5 -61.5t-98 -16.5q-55 0 -97.5 15.5t-70 58.5t-41 121t-13.5 202z" />
    <glyph glyph-name="Odieresis" unicode="&#xd6;" horiz-adv-x="1325" 
d="M74 670q0 -145 31.5 -272.5t102.5 -222.5t182 -149.5t269 -54.5t270.5 56.5t184.5 151.5t104.5 223t32.5 272q0 147 -31.5 272t-102 216t-182.5 143.5t-271 52.5q-158 0 -269.5 -52.5t-183.5 -144.5t-104.5 -218t-32.5 -273zM283 1626q0 -78 48 -126t120 -48t119.5 48
t47.5 126t-48 127t-119 49q-72 0 -120 -49t-48 -127zM442 616v121q0 115 12.5 185.5t39 108.5t67.5 51.5t98 13.5t100.5 -12.5t70 -49.5t40 -105.5t13.5 -183.5v-122q0 -123 -13.5 -202t-40 -124t-67.5 -61.5t-98 -16.5q-55 0 -97.5 15.5t-70 58.5t-41 121t-13.5 202z
M705 1626q0 -78 47.5 -126t119.5 -48t120 48t48 126t-48 127t-120 49t-119.5 -49t-47.5 -127z" />
    <glyph glyph-name="multiply" unicode="&#xd7;" horiz-adv-x="1042" 
d="M111 389l165 -168l27 26.5l62.5 62.5l73.5 74l63 62l26 25l250 -250l166 168l-250 250l250 250l-166 168l-252 -252l-26 27l-62 62l-74.5 75l-61 62.5t-26.5 25.5l-165 -168l249 -250z" />
    <glyph glyph-name="Oslash" unicode="&#xd8;" horiz-adv-x="1325" 
d="M66 670q0 -172 44 -314.5t142 -238.5l-119 -217l174 -97l113 207q51 -18 108.5 -28.5t122.5 -10.5q158 0 270.5 56.5t184.5 151.5t104.5 223t32.5 272q0 166 -40 301t-130 229l103 189l-175 94l-94 -172q-109 43 -252 43q-158 0 -269.5 -52.5t-183 -144.5t-104 -218
t-32.5 -273zM428 616v121q0 115 13.5 187.5t41 112.5t69.5 54.5t99 14.5q84 0 129 -23l-346 -632q-6 70 -6 165zM541 229l338 619q2 -23 2 -49v-54v-122q0 -123 -14.5 -204t-42 -127t-69.5 -64.5t-100 -18.5q-72 0 -114 20z" />
    <glyph glyph-name="Ugrave" unicode="&#xd9;" horiz-adv-x="1314" 
d="M131 502q0 -150 36 -251t95.5 -163.5t137 -89.5t161.5 -27t135.5 12.5t75.5 20.5l94 143l68 -147h244v1333h-351v-1067q-35 -14 -78.5 -24.5t-109.5 -10.5q-84 0 -121 48.5t-37 152.5v901h-350v-831zM330 1794l266 -336h174l-43 336h-397z" />
    <glyph glyph-name="Uacute" unicode="&#xda;" horiz-adv-x="1314" 
d="M131 502q0 -150 36 -251t95.5 -163.5t137 -89.5t161.5 -27t135.5 12.5t75.5 20.5l94 143l68 -147h244v1333h-351v-1067q-35 -14 -78.5 -24.5t-109.5 -10.5q-84 0 -121 48.5t-37 152.5v901h-350v-831zM571 1458h174l267 336h-398z" />
    <glyph glyph-name="Ucircumflex" unicode="&#xdb;" horiz-adv-x="1314" 
d="M131 502q0 -150 36 -251t95.5 -163.5t137 -89.5t161.5 -27t135.5 12.5t75.5 20.5l94 143l68 -147h244v1333h-351v-1067q-35 -14 -78.5 -24.5t-109.5 -10.5q-84 0 -121 48.5t-37 152.5v901h-350v-831zM256 1458h264l64 101l53 151l55 -151l56 -101h292l-270 361h-248z" />
    <glyph glyph-name="Udieresis" unicode="&#xdc;" horiz-adv-x="1314" 
d="M131 502q0 -150 36 -251t95.5 -163.5t137 -89.5t161.5 -27t135.5 12.5t75.5 20.5l94 143l68 -147h244v1333h-351v-1067q-35 -14 -78.5 -24.5t-109.5 -10.5q-84 0 -121 48.5t-37 152.5v901h-350v-831zM272 1626q0 -78 48 -126t120 -48t120 48t48 126t-48 127t-120 49
t-120 -49t-48 -127zM694 1626q0 -78 48 -126t120 -48t120 48t48 126t-48 127t-120 49t-120 -49t-48 -127z" />
    <glyph glyph-name="Yacute" unicode="&#xdd;" horiz-adv-x="1171" 
d="M20 1333l402 -862v-471h350v485l379 848h-320l-159 -432l-54 -313l-63 313l-166 432h-369zM451 1458h174l266 336h-397z" />
    <glyph glyph-name="Thorn" unicode="&#xde;" horiz-adv-x="1216" 
d="M137 0h350v221h142q256 0 393 122t137 349q0 233 -139 347t-391 114h-142v180h-350v-1333zM487 463v428h123q96 0 138.5 -36t42.5 -142v-58q0 -57 -9.5 -94t-30 -58.5t-54 -30.5t-83.5 -9h-127z" />
    <glyph glyph-name="germandbls" unicode="&#xdf;" horiz-adv-x="1331" 
d="M125 0h319v1022q0 129 47.5 181t157.5 52q59 0 94 -13t53.5 -37.5t23.5 -58.5t5 -75v-24l-116 -21q-27 -16 -55.5 -39.5t-53.5 -57.5t-40 -82t-15 -114q0 -92 18.5 -152.5t50 -99.5t75.5 -58.5t95 -31.5q63 -14 100.5 -23.5t55.5 -19.5t23.5 -23.5t5.5 -33.5
q0 -18 -3 -34.5t-17.5 -27t-44.5 -16.5t-81 -6q-82 0 -138 19.5l-107 37.5l-27 -223q49 -23 122.5 -46.5t196.5 -23.5q217 0 309.5 95.5t92.5 263.5q0 88 -22.5 145t-58.5 93t-83 54.5t-96 28.5q-47 8 -81 15.5t-55.5 17.5t-31.5 25.5t-10 44.5q0 27 5 45t22.5 30.5t52 20.5
t94.5 14l112 13v122q0 246 -107.5 373t-361.5 127q-270 0 -398 -138t-128 -407v-954z" />
    <glyph glyph-name="agrave" unicode="&#xe0;" horiz-adv-x="1079" 
d="M63 283q0 -86 26 -145.5t67 -96.5t93 -53.5t105 -16.5q76 0 125 15.5t82 31.5l72 103l100 -131q29 -8 65 -13.5t70 -5.5q72 0 115 22.5t66 45.5l-7 129h-59q-25 0 -37 9t-12 44v422q0 131 -21.5 221t-70.5 145.5t-127 80t-189 24.5q-68 0 -131 -11t-118.5 -27.5
t-100.5 -36t-76 -35.5l45 -236q104 35 191.5 56.5t152.5 21.5q66 0 95.5 -24.5t29.5 -65.5v-88l-129 -23q-119 -20 -199.5 -46t-130 -65.5t-71 -100t-21.5 -150.5zM225 1550l267 -336h174l-43 336h-398zM362 305v19q0 74 32 102.5t112 44.5l108 21v-273q-18 -16 -47.5 -29.5
t-77.5 -13.5q-53 0 -90 32t-37 97z" />
    <glyph glyph-name="aacute" unicode="&#xe1;" horiz-adv-x="1079" 
d="M63 283q0 -86 26 -145.5t67 -96.5t93 -53.5t105 -16.5q76 0 125 15.5t82 31.5l72 103l100 -131q29 -8 65 -13.5t70 -5.5q72 0 115 22.5t66 45.5l-7 129h-59q-25 0 -37 9t-12 44v422q0 131 -21.5 221t-70.5 145.5t-127 80t-189 24.5q-68 0 -131 -11t-118.5 -27.5
t-100.5 -36t-76 -35.5l45 -236q104 35 191.5 56.5t152.5 21.5q66 0 95.5 -24.5t29.5 -65.5v-88l-129 -23q-119 -20 -199.5 -46t-130 -65.5t-71 -100t-21.5 -150.5zM362 305v19q0 74 32 102.5t112 44.5l108 21v-273q-18 -16 -47.5 -29.5t-77.5 -13.5q-53 0 -90 32t-37 97z
M424 1214h174l266 336h-397z" />
    <glyph glyph-name="acircumflex" unicode="&#xe2;" horiz-adv-x="1079" 
d="M63 283q0 -86 26 -145.5t67 -96.5t93 -53.5t105 -16.5q76 0 125 15.5t82 31.5l72 103l100 -131q29 -8 65 -13.5t70 -5.5q72 0 115 22.5t66 45.5l-7 129h-59q-25 0 -37 9t-12 44v422q0 131 -21.5 221t-70.5 145.5t-127 80t-189 24.5q-68 0 -131 -11t-118.5 -27.5
t-100.5 -36t-76 -35.5l45 -236q104 35 191.5 56.5t152.5 21.5q66 0 95.5 -24.5t29.5 -65.5v-88l-129 -23q-119 -20 -199.5 -46t-130 -65.5t-71 -100t-21.5 -150.5zM152 1214h264l63 101l53 151l56 -151l55 -101h293l-270 361h-248zM362 305v19q0 74 32 102.5t112 44.5
l108 21v-273q-18 -16 -47.5 -29.5t-77.5 -13.5q-53 0 -90 32t-37 97z" />
    <glyph glyph-name="atilde" unicode="&#xe3;" horiz-adv-x="1079" 
d="M63 283q0 -86 26 -145.5t67 -96.5t93 -53.5t105 -16.5q76 0 125 15.5t82 31.5l72 103l100 -131q29 -8 65 -13.5t70 -5.5q72 0 115 22.5t66 45.5l-7 129h-59q-25 0 -37 9t-12 44v422q0 131 -21.5 221t-70.5 145.5t-127 80t-189 24.5q-68 0 -131 -11t-118.5 -27.5
t-100.5 -36t-76 -35.5l45 -236q104 35 191.5 56.5t152.5 21.5q66 0 95.5 -24.5t29.5 -65.5v-88l-129 -23q-119 -20 -199.5 -46t-130 -65.5t-71 -100t-21.5 -150.5zM211 1214h147v13q0 104 58 104q25 0 40 -11t46 -38l28 -25q29 -27 60 -41t80 -14q43 0 82 24.5t67.5 70.5
t45 109.5t16.5 143.5h-148v-16q0 -100 -57 -100q-25 0 -40 11t-46 38l-29 24q-29 27 -59.5 41.5t-79.5 14.5q-43 0 -82 -25t-67.5 -71t-45 -109.5t-16.5 -143.5zM362 305v19q0 74 32 102.5t112 44.5l108 21v-273q-18 -16 -47.5 -29.5t-77.5 -13.5q-53 0 -90 32t-37 97z" />
    <glyph glyph-name="adieresis" unicode="&#xe4;" horiz-adv-x="1079" 
d="M63 283q0 -86 26 -145.5t67 -96.5t93 -53.5t105 -16.5q76 0 125 15.5t82 31.5l72 103l100 -131q29 -8 65 -13.5t70 -5.5q72 0 115 22.5t66 45.5l-7 129h-59q-25 0 -37 9t-12 44v422q0 131 -21.5 221t-70.5 145.5t-127 80t-189 24.5q-68 0 -131 -11t-118.5 -27.5
t-100.5 -36t-76 -35.5l45 -236q104 35 191.5 56.5t152.5 21.5q66 0 95.5 -24.5t29.5 -65.5v-88l-129 -23q-119 -20 -199.5 -46t-130 -65.5t-71 -100t-21.5 -150.5zM158 1382q0 -78 48 -126t120 -48t120 48.5t48 125.5q0 78 -48.5 127.5t-119.5 49.5q-72 0 -120 -49.5
t-48 -127.5zM362 305v19q0 74 32 102.5t112 44.5l108 21v-273q-18 -16 -47.5 -29.5t-77.5 -13.5q-53 0 -90 32t-37 97zM580 1382q0 -78 48 -126t120 -48t119.5 48.5t47.5 125.5q0 78 -48 127.5t-119 49.5q-72 0 -120 -49.5t-48 -127.5z" />
    <glyph glyph-name="aring" unicode="&#xe5;" horiz-adv-x="1079" 
d="M63 283q0 -86 26 -145.5t67 -96.5t93 -53.5t105 -16.5q76 0 125 15.5t82 31.5l72 103l100 -131q29 -8 65 -13.5t70 -5.5q72 0 115 22.5t66 45.5l-7 129h-59q-25 0 -37 9t-12 44v422q0 131 -21.5 221t-70.5 145.5t-127 80t-189 24.5q-68 0 -131 -11t-118.5 -27.5
t-100.5 -36t-76 -35.5l45 -236q104 35 191.5 56.5t152.5 21.5q66 0 95.5 -24.5t29.5 -65.5v-88l-129 -23q-119 -20 -199.5 -46t-130 -65.5t-71 -100t-21.5 -150.5zM326 1432q0 -63 17 -107.5t48 -73t71 -42t85 -13.5t85 13.5t70.5 42t48 72.5t17.5 108q0 63 -17.5 108
t-48 73.5t-70.5 42t-85 13.5t-85 -13.5t-71 -42t-48 -73.5t-17 -108zM362 305v19q0 74 32 102.5t112 44.5l108 21v-273q-18 -16 -47.5 -29.5t-77.5 -13.5q-53 0 -90 32t-37 97zM465 1432q0 76 17.5 96t64.5 20t64.5 -20.5t17.5 -95.5q0 -76 -17.5 -95.5t-64.5 -19.5
t-64.5 19.5t-17.5 95.5z" />
    <glyph glyph-name="ae" unicode="&#xe6;" horiz-adv-x="1564" 
d="M63 283q0 -86 26 -145.5t70 -96.5t102 -53.5t124 -16.5q76 0 129 15.5t88 36.5l115 145q59 -96 153.5 -146.5t241.5 -50.5q117 0 207 28t143 56l-24 234l-140 -41t-165 -23q-55 0 -92 10.5t-58.5 35t-32 65.5t-12.5 104h567v148q0 123 -22.5 220t-73.5 165.5t-133 104.5
t-201 36q-76 0 -149.5 -28.5t-120.5 -86.5q-41 66 -114 90.5t-165 24.5q-121 0 -225 -31.5t-201 -78.5l45 -236q104 35 191.5 56.5t152.5 21.5q66 0 102 -24.5t36 -65.5v-88l-142 -23q-119 -20 -199.5 -46t-130 -65.5t-71 -100t-21.5 -150.5zM362 305v19q0 74 32 102.5
t112 44.5l129 25q4 -59 11 -111.5t22 -99.5q-33 -47 -70 -78t-109 -31q-53 0 -90 32t-37 97zM938 645q4 135 32.5 190.5t108.5 55.5q72 0 100.5 -44t28.5 -157v-45h-270z" />
    <glyph glyph-name="ccedilla" unicode="&#xe7;" horiz-adv-x="909" 
d="M63 543q0 -229 89.5 -374.5t263.5 -184.5l-84 -195l69 -55q20 16 36 23t46 7q37 0 48.5 -15t11.5 -48v-16q0 -39 -24.5 -53.5t-69.5 -14.5q-35 0 -68 9t-74 26l-12 -113q23 -14 72 -28.5t110 -14.5q102 0 169 48t67 153q0 74 -41 118t-84 60l-101 -31l60 127
q115 2 193.5 27t125.5 51l-28 238q-53 -20 -126 -41t-151 -21q-43 0 -74.5 13.5t-52 47t-30 91t-9.5 147.5v47q0 90 10.5 144.5t30 84t51 40t74.5 10.5q70 0 134.5 -14.5t117.5 -30.5l47 237q-41 23 -125 47.5t-194 24.5q-236 0 -357 -148.5t-121 -422.5z" />
    <glyph glyph-name="egrave" unicode="&#xe8;" horiz-adv-x="1026" 
d="M63 543q0 -274 125 -423t381 -149q121 0 214.5 29t140.5 55l-37 232l-136 -40t-161 -22q-55 0 -92 10.5t-58.5 35t-32 65.5t-12.5 104h568v148q0 123 -22.5 220t-74 165.5t-133.5 104.5t-201 36q-223 0 -346 -148.5t-123 -422.5zM203 1550l266 -336h174l-43 336h-397z
M395 645q4 135 33 190.5t109 55.5q72 0 100.5 -44t28.5 -157v-45h-271z" />
    <glyph glyph-name="eacute" unicode="&#xe9;" horiz-adv-x="1026" 
d="M63 543q0 -274 125 -423t381 -149q121 0 214.5 29t140.5 55l-37 232l-136 -40t-161 -22q-55 0 -92 10.5t-58.5 35t-32 65.5t-12.5 104h568v148q0 123 -22.5 220t-74 165.5t-133.5 104.5t-201 36q-223 0 -346 -148.5t-123 -422.5zM395 645q4 135 33 190.5t109 55.5
q72 0 100.5 -44t28.5 -157v-45h-271zM422 1214h174l266 336h-397z" />
    <glyph glyph-name="ecircumflex" unicode="&#xea;" horiz-adv-x="1026" 
d="M63 543q0 -274 125 -423t381 -149q121 0 214.5 29t140.5 55l-37 232l-136 -40t-161 -22q-55 0 -92 10.5t-58.5 35t-32 65.5t-12.5 104h568v148q0 123 -22.5 220t-74 165.5t-133.5 104.5t-201 36q-223 0 -346 -148.5t-123 -422.5zM150 1214h264l63 101l53 151l56 -151
l55 -101h293l-270 361h-248zM395 645q4 135 33 190.5t109 55.5q72 0 100.5 -44t28.5 -157v-45h-271z" />
    <glyph glyph-name="edieresis" unicode="&#xeb;" horiz-adv-x="1026" 
d="M63 543q0 -274 125 -423t381 -149q121 0 214.5 29t140.5 55l-37 232l-136 -40t-161 -22q-55 0 -92 10.5t-58.5 35t-32 65.5t-12.5 104h568v148q0 123 -22.5 220t-74 165.5t-133.5 104.5t-201 36q-223 0 -346 -148.5t-123 -422.5zM152 1382q0 -78 47.5 -126t119.5 -48
t120 48.5t48 125.5q0 78 -48 127.5t-120 49.5t-119.5 -49.5t-47.5 -127.5zM395 645q4 135 33 190.5t109 55.5q72 0 100.5 -44t28.5 -157v-45h-271zM573 1382q0 -78 48 -126t120 -48t120 48.5t48 125.5q0 78 -48 127.5t-120 49.5t-120 -49.5t-48 -127.5z" />
    <glyph glyph-name="igrave" unicode="&#xec;" horiz-adv-x="589" 
d="M-23 1550l267 -336h174l-43 336h-398zM135 0h320v1090h-320v-1090z" />
    <glyph glyph-name="iacute" unicode="&#xed;" horiz-adv-x="589" 
d="M135 0h320v1090h-320v-1090zM170 1214h174l266 336h-397z" />
    <glyph glyph-name="icircumflex" unicode="&#xee;" horiz-adv-x="589" 
d="M-92 1214h264l64 101l53 151l55 -151l55 -101h293l-270 361h-248zM135 0h320v1090h-320v-1090z" />
    <glyph glyph-name="idieresis" unicode="&#xef;" horiz-adv-x="589" 
d="M-76 1382q0 -78 48 -126t120 -48t120 48.5t48 125.5q0 78 -48 127.5t-120 49.5t-120 -49.5t-48 -127.5zM135 0h320v1090h-320v-1090zM346 1382q0 -78 48 -126t120 -48t120 48.5t48 125.5q0 78 -48 127.5t-120 49.5t-120 -49.5t-48 -127.5z" />
    <glyph glyph-name="eth" unicode="&#xf0;" horiz-adv-x="1081" 
d="M63 506q0 -266 122 -400.5t356 -134.5q231 0 354 163t123 493q0 213 -55.5 367.5t-133.5 265.5l144 63l-76 154l-182 -80q-18 23 -37 40t-35 33h-287l64 -86t61 -90l-147 -63l76 -154l159 70q55 -102 88 -238l-147 113q-14 2 -23.5 3t-21.5 1q-86 0 -159 -28.5t-127 -92
t-85 -162t-31 -237.5zM395 487v48q0 78 7.5 128t23.5 79.5t42 41t64 11.5q51 0 88 -13.5t64 -29.5q6 -66 6 -142v-45q0 -109 -8 -178.5t-25.5 -108t-46 -53t-69.5 -14.5q-43 0 -71 11t-44 42t-23.5 85t-7.5 138z" />
    <glyph glyph-name="ntilde" unicode="&#xf1;" horiz-adv-x="1138" 
d="M125 0h321v829q45 14 80 21.5t70 7.5q104 0 104 -80v-778h322v754q0 170 -71.5 265t-223.5 95q-92 0 -166 -35l-119 -135l-92 146h-225v-1090zM242 1214h147v13q0 104 57 104q25 0 40.5 -11t45.5 -38l29 -25q29 -27 59.5 -41t79.5 -14q43 0 82 24.5t68 70.5t45 109.5
t16 143.5h-147v-16q0 -100 -57 -100q-25 0 -40.5 11t-45.5 38l-29 24q-29 27 -59.5 41.5t-79.5 14.5q-43 0 -82 -25t-68 -71t-45 -109.5t-16 -143.5z" />
    <glyph glyph-name="ograve" unicode="&#xf2;" horiz-adv-x="1081" 
d="M63 543q0 -268 122.5 -420t355.5 -152q231 0 354 151.5t123 426.5q0 268 -123 416.5t-354 148.5q-233 0 -355.5 -148.5t-122.5 -422.5zM223 1550l266 -336h175l-43 336h-398zM395 524v47q0 94 6.5 152.5t22.5 91.5t45 44t72 11t70.5 -11t45 -45t23.5 -93t6 -158v-45
q0 -94 -7 -154.5t-24.5 -94t-45 -46t-68.5 -12.5q-43 0 -71 12.5t-44 47t-23.5 96t-7.5 157.5z" />
    <glyph glyph-name="oacute" unicode="&#xf3;" horiz-adv-x="1081" 
d="M63 543q0 -268 122.5 -420t355.5 -152q231 0 354 151.5t123 426.5q0 268 -123 416.5t-354 148.5q-233 0 -355.5 -148.5t-122.5 -422.5zM395 524v47q0 94 6.5 152.5t22.5 91.5t45 44t72 11t70.5 -11t45 -45t23.5 -93t6 -158v-45q0 -94 -7 -154.5t-24.5 -94t-45 -46
t-68.5 -12.5q-43 0 -71 12.5t-44 47t-23.5 96t-7.5 157.5zM442 1214h174l267 336h-398z" />
    <glyph glyph-name="ocircumflex" unicode="&#xf4;" horiz-adv-x="1081" 
d="M63 543q0 -268 122.5 -420t355.5 -152q231 0 354 151.5t123 426.5q0 268 -123 416.5t-354 148.5q-233 0 -355.5 -148.5t-122.5 -422.5zM150 1214h264l63 101l53 151l56 -151l55 -101h293l-270 361h-248zM395 524v47q0 94 6.5 152.5t22.5 91.5t45 44t72 11t70.5 -11
t45 -45t23.5 -93t6 -158v-45q0 -94 -7 -154.5t-24.5 -94t-45 -46t-68.5 -12.5q-43 0 -71 12.5t-44 47t-23.5 96t-7.5 157.5z" />
    <glyph glyph-name="otilde" unicode="&#xf5;" horiz-adv-x="1081" 
d="M63 543q0 -268 122.5 -420t355.5 -152q231 0 354 151.5t123 426.5q0 268 -123 416.5t-354 148.5q-233 0 -355.5 -148.5t-122.5 -422.5zM209 1214h147v13q0 104 58 104q25 0 40 -11t46 -38l28 -25q29 -27 60 -41t80 -14q43 0 81.5 24.5t67.5 70.5t45.5 109.5t16.5 143.5
h-148v-16q0 -100 -57 -100q-25 0 -40.5 11t-45.5 38l-29 24q-29 27 -59.5 41.5t-79.5 14.5q-43 0 -82 -25t-67.5 -71t-45 -109.5t-16.5 -143.5zM395 524v47q0 94 6.5 152.5t22.5 91.5t45 44t72 11t70.5 -11t45 -45t23.5 -93t6 -158v-45q0 -94 -7 -154.5t-24.5 -94t-45 -46
t-68.5 -12.5q-43 0 -71 12.5t-44 47t-23.5 96t-7.5 157.5z" />
    <glyph glyph-name="odieresis" unicode="&#xf6;" horiz-adv-x="1081" 
d="M63 543q0 -268 122.5 -420t355.5 -152q231 0 354 151.5t123 426.5q0 268 -123 416.5t-354 148.5q-233 0 -355.5 -148.5t-122.5 -422.5zM160 1382q0 -78 48 -126t120 -48t120 48.5t48 125.5q0 78 -48.5 127.5t-119.5 49.5q-72 0 -120 -49.5t-48 -127.5zM395 524v47
q0 94 6.5 152.5t22.5 91.5t45 44t72 11t70.5 -11t45 -45t23.5 -93t6 -158v-45q0 -94 -7 -154.5t-24.5 -94t-45 -46t-68.5 -12.5q-43 0 -71 12.5t-44 47t-23.5 96t-7.5 157.5zM582 1382q0 -78 48 -126t120 -48t120 48.5t48 125.5q0 78 -48.5 127.5t-119.5 49.5
q-72 0 -120 -49.5t-48 -127.5z" />
    <glyph glyph-name="divide" unicode="&#xf7;" horiz-adv-x="1443" 
d="M23 1260l149 -400l289 -416l149 66l-90 481l-149 404zM485 168q0 -90 58.5 -143.5t142.5 -53.5t142.5 53.5t58.5 143.5t-58.5 144.5t-142.5 54.5t-142.5 -54.5t-58.5 -144.5zM604 1395l35 -244q61 16 105 23.5t94 7.5q45 0 82.5 -8.5t64.5 -27t37 -50t0 -78.5l-6 -29
q-8 -37 -18.5 -59.5t-28 -36.5t-42 -24.5t-61.5 -20.5q-45 -12 -74.5 -25.5t-48 -32t-25.5 -45t-7 -67.5v-164l217 -39l45 172q80 8 155.5 29.5t135 65.5t95.5 116t36 180q0 94 -38 169t-103.5 127t-155.5 80t-195 28q-94 0 -166.5 -12.5t-132.5 -34.5z" />
    <glyph glyph-name="oslash" unicode="&#xf8;" horiz-adv-x="1081" 
d="M63 543q0 -283 134 -432l-111 -197l162 -88l100 178q43 -16 91 -24.5t102 -8.5q231 0 351 151.5t120 426.5q0 271 -121 416l98 170l-162 86l-82 -146q-45 18 -95 28.5t-109 10.5q-233 0 -355.5 -148.5t-122.5 -422.5zM387 483v41v47q0 94 7 154.5t25.5 96.5t48.5 49.5
t73 13.5q59 0 86 -17l-238 -422q-2 18 -2 37zM463 205l231 407v-49v-45q0 -94 -8 -157.5t-26.5 -101.5t-48 -53.5t-70.5 -15.5q-49 0 -78 15z" />
    <glyph glyph-name="ugrave" unicode="&#xf9;" horiz-adv-x="1138" 
d="M117 336q0 -170 71.5 -267.5t223.5 -97.5q45 0 91 8.5t89 24.5l106 137l90 -141h226v1090h-322v-846q-39 -16 -73.5 -24.5t-75.5 -8.5q-53 0 -79 23.5t-26 84.5v771h-321v-754zM256 1550l266 -336h174l-43 336h-397z" />
    <glyph glyph-name="uacute" unicode="&#xfa;" horiz-adv-x="1138" 
d="M117 336q0 -170 71.5 -267.5t223.5 -97.5q45 0 91 8.5t89 24.5l106 137l90 -141h226v1090h-322v-846q-39 -16 -73.5 -24.5t-75.5 -8.5q-53 0 -79 23.5t-26 84.5v771h-321v-754zM461 1214h174l266 336h-397z" />
    <glyph glyph-name="ucircumflex" unicode="&#xfb;" horiz-adv-x="1138" 
d="M117 336q0 -170 71.5 -267.5t223.5 -97.5q45 0 91 8.5t89 24.5l106 137l90 -141h226v1090h-322v-846q-39 -16 -73.5 -24.5t-75.5 -8.5q-53 0 -79 23.5t-26 84.5v771h-321v-754zM182 1214h264l64 101l53 151l55 -151l56 -101h293l-271 361h-247z" />
    <glyph glyph-name="udieresis" unicode="&#xfc;" horiz-adv-x="1138" 
d="M117 336q0 -170 71.5 -267.5t223.5 -97.5q45 0 91 8.5t89 24.5l106 137l90 -141h226v1090h-322v-846q-39 -16 -73.5 -24.5t-75.5 -8.5q-53 0 -79 23.5t-26 84.5v771h-321v-754zM199 1382q0 -78 48 -126t120 -48t120 48.5t48 125.5q0 78 -48.5 127.5t-119.5 49.5
q-72 0 -120 -49.5t-48 -127.5zM621 1382q0 -78 47.5 -126t119.5 -48t120 48.5t48 125.5q0 78 -48 127.5t-120 49.5t-119.5 -49.5t-47.5 -127.5z" />
    <glyph glyph-name="yacute" unicode="&#xfd;" 
d="M18 1090l363 -1043l-125 -379h301l449 1422h-295l-125 -451l-58 -381l-49 381l-133 451h-328zM377 1214h174l266 336h-397z" />
    <glyph glyph-name="thorn" unicode="&#xfe;" horiz-adv-x="1134" 
d="M125 -332h321v434l119 -110q20 -8 55 -14.5t82 -6.5q190 0 279.5 144.5t89.5 410.5q0 287 -95 437.5t-296 150.5q-78 0 -135.5 -23.5t-98.5 -64.5v444h-321v-1802zM446 229v572q27 20 62 38.5t80 18.5q86 0 118.5 -57.5t32.5 -210.5v-152q0 -145 -32.5 -204.5
t-104.5 -59.5q-53 0 -87 15.5t-69 39.5z" />
    <glyph glyph-name="ydieresis" unicode="&#xff;" 
d="M18 1090l363 -1043l-125 -379h301l449 1422h-295l-125 -451l-58 -381l-49 381l-133 451h-328zM141 1382q0 -78 48 -126t120 -48t120 48.5t48 125.5q0 78 -48 127.5t-120 49.5t-120 -49.5t-48 -127.5zM563 1382q0 -78 48 -126t120 -48t120 48.5t48 125.5q0 78 -48 127.5
t-120 49.5t-120 -49.5t-48 -127.5z" />
    <glyph glyph-name="OE" unicode="&#x152;" horiz-adv-x="1771" 
d="M66 670q0 -317 151.5 -493.5t452.5 -176.5h1011v268h-518v271h396v260h-396v256h479v278h-989q-297 0 -442 -173t-145 -490zM434 627v110q0 104 15.5 168t47 97.5t78 45t107.5 11.5h131v-795h-135q-59 0 -105.5 13.5t-77 52.5t-46 109.5t-15.5 187.5z" />
    <glyph glyph-name="oe" unicode="&#x153;" horiz-adv-x="1632" 
d="M63 543q0 -268 121 -420t346 -152q113 0 185.5 34t128.5 106q51 -72 133 -106t199 -34t207 28t143 56l-25 234l-140 -41t-165 -23q-55 0 -92 10.5t-58.5 35t-32 65.5t-12.5 104h568v148q0 123 -22.5 220t-74 165.5t-133.5 104.5t-200 36q-88 0 -166 -35t-129 -100
q-47 72 -129 103.5t-174 31.5q-233 0 -355.5 -148.5t-122.5 -422.5zM395 524v47q0 94 6.5 152.5t22.5 91.5t45 44t72 11t70.5 -11t45 -45t23.5 -93t6 -158v-45q0 -94 -7 -154.5t-24.5 -94t-45 -46t-68.5 -12.5q-43 0 -71 12.5t-44 47t-23.5 96t-7.5 157.5zM1001 645
q4 135 33 190.5t109 55.5q72 0 100.5 -44t28.5 -157v-45h-271z" />
    <glyph glyph-name="Ydieresis" unicode="&#x178;" horiz-adv-x="1171" 
d="M20 1333l402 -862v-471h350v485l379 848h-320l-159 -432l-54 -313l-63 313l-166 432h-369zM215 1626q0 -78 48 -126t120 -48t120 48t48 126t-48 127t-120 49t-120 -49t-48 -127zM637 1626q0 -78 48 -126t120 -48t120 48t48 126t-48 127t-120 49t-120 -49t-48 -127z" />
    <glyph glyph-name="circumflex" unicode="&#x2c6;" 
d="M117 1214h264l63 101l54 151l55 -151l55 -101h293l-270 361h-248z" />
    <glyph glyph-name="tilde" unicode="&#x2dc;" 
d="M176 1214h148v13q0 104 57 104q25 0 40 -11t46 -38l29 -25q29 -27 59.5 -41t79.5 -14q43 0 82 24.5t67.5 70.5t45 109.5t16.5 143.5h-148v-16q0 -100 -57 -100q-25 0 -40 11t-46 38l-29 24q-29 27 -59.5 41.5t-79.5 14.5q-43 0 -82 -25t-67.5 -71t-45 -109.5
t-16.5 -143.5z" />
    <glyph glyph-name="uni2000" unicode="&#x2000;" horiz-adv-x="909" 
 />
    <glyph glyph-name="uni2001" unicode="&#x2001;" horiz-adv-x="1819" 
 />
    <glyph glyph-name="uni2002" unicode="&#x2002;" horiz-adv-x="909" 
 />
    <glyph glyph-name="uni2003" unicode="&#x2003;" horiz-adv-x="1819" 
 />
    <glyph glyph-name="uni2004" unicode="&#x2004;" horiz-adv-x="606" 
 />
    <glyph glyph-name="uni2005" unicode="&#x2005;" horiz-adv-x="454" 
 />
    <glyph glyph-name="uni2006" unicode="&#x2006;" horiz-adv-x="303" 
 />
    <glyph glyph-name="uni2007" unicode="&#x2007;" horiz-adv-x="303" 
 />
    <glyph glyph-name="uni2008" unicode="&#x2008;" horiz-adv-x="227" 
 />
    <glyph glyph-name="uni2009" unicode="&#x2009;" horiz-adv-x="363" 
 />
    <glyph glyph-name="uni200A" unicode="&#x200a;" horiz-adv-x="101" 
 />
    <glyph glyph-name="uni2010" unicode="&#x2010;" horiz-adv-x="673" 
d="M90 471h494v285h-494v-285z" />
    <glyph glyph-name="uni2011" unicode="&#x2011;" horiz-adv-x="673" 
d="M90 471h494v285h-494v-285z" />
    <glyph glyph-name="figuredash" unicode="&#x2012;" horiz-adv-x="673" 
d="M90 471h494v285h-494v-285z" />
    <glyph glyph-name="endash" unicode="&#x2013;" horiz-adv-x="950" 
d="M90 502h770v223h-770v-223z" />
    <glyph glyph-name="emdash" unicode="&#x2014;" horiz-adv-x="1390" 
d="M90 502h1210v223h-1210v-223z" />
    <glyph glyph-name="quoteleft" unicode="&#x2018;" horiz-adv-x="559" 
d="M78 963q0 -90 57.5 -142.5t143.5 -52.5q84 0 143 53t59 146q0 49 -17.5 81.5t-31.5 49.5l-82 24l90 344l-86 35l-176 -280q-43 -70 -71.5 -129.5t-28.5 -128.5z" />
    <glyph glyph-name="quoteright" unicode="&#x2019;" horiz-adv-x="559" 
d="M78 1239q0 -49 17.5 -82t31.5 -49l82 -25l-90 -344l86 -34l176 280q43 70 71.5 129.5t28.5 128.5q0 90 -57 142.5t-143 52.5q-84 0 -143.5 -53.5t-59.5 -145.5z" />
    <glyph glyph-name="quotesinglbase" unicode="&#x201a;" horiz-adv-x="559" 
d="M78 188q0 -49 17.5 -81.5t31.5 -49.5l82 -24l-90 -344l86 -35l176 280q43 70 71.5 129.5t28.5 129.5q0 90 -57 142t-143 52q-84 0 -143.5 -53t-59.5 -146z" />
    <glyph glyph-name="quotedblleft" unicode="&#x201c;" horiz-adv-x="1056" 
d="M78 963q0 -90 57.5 -142.5t143.5 -52.5q84 0 143 53t59 146q0 49 -17.5 81.5t-31.5 49.5l-82 24l90 344l-86 35l-176 -280q-43 -70 -71.5 -129.5t-28.5 -128.5zM575 963q0 -90 57.5 -142.5t143.5 -52.5q84 0 143.5 53t59.5 146q0 49 -17.5 81.5t-31.5 49.5l-82 24l90 344
l-86 35l-176 -280q-43 -70 -72 -129.5t-29 -128.5z" />
    <glyph glyph-name="quotedblright" unicode="&#x201d;" horiz-adv-x="1056" 
d="M78 1239q0 -49 17.5 -82t31.5 -49l82 -25l-90 -344l86 -34l176 280q43 70 71.5 129.5t28.5 128.5q0 90 -57 142.5t-143 52.5q-84 0 -143.5 -53.5t-59.5 -145.5zM575 1239q0 -49 17.5 -82t32.5 -49l82 -25l-91 -344l86 -34l177 280q43 70 71.5 129.5t28.5 128.5
q0 90 -57.5 142.5t-143.5 52.5q-84 0 -143.5 -53.5t-59.5 -145.5z" />
    <glyph glyph-name="quotedblbase" unicode="&#x201e;" horiz-adv-x="1056" 
d="M78 188q0 -49 17.5 -81.5t31.5 -49.5l82 -24l-90 -344l86 -35l176 280q43 70 71.5 129.5t28.5 129.5q0 90 -57 142t-143 52q-84 0 -143.5 -53t-59.5 -146zM575 188q0 -49 17.5 -81.5t32.5 -49.5l82 -24l-91 -344l86 -35l177 280q43 70 71.5 129.5t28.5 129.5
q0 90 -57.5 142t-143.5 52q-84 0 -143.5 -53t-59.5 -146z" />
    <glyph glyph-name="bullet" unicode="&#x2022;" horiz-adv-x="776" 
d="M84 662q0 -68 24.5 -124.5t65.5 -98.5t96.5 -64.5t114.5 -22.5q63 0 119.5 22.5t98.5 64.5t65.5 98.5t23.5 124.5q0 70 -23.5 129t-65.5 100t-98 64.5t-120 23.5q-59 0 -114.5 -23.5t-96.5 -64.5t-65.5 -100.5t-24.5 -128.5z" />
    <glyph glyph-name="ellipsis" unicode="&#x2026;" horiz-adv-x="1687" 
d="M84 178q0 -94 61.5 -150.5t149.5 -56.5t149.5 56.5t61.5 150.5t-61.5 151.5t-149.5 57.5t-149.5 -57.5t-61.5 -151.5zM633 178q0 -94 61.5 -150.5t149.5 -56.5t149.5 56.5t61.5 150.5t-61.5 151.5t-149.5 57.5t-149.5 -57.5t-61.5 -151.5zM1182 178q0 -94 61.5 -150.5
t149.5 -56.5t149.5 56.5t61.5 150.5t-61.5 151.5t-149.5 57.5t-149.5 -57.5t-61.5 -151.5z" />
    <glyph glyph-name="uni202F" unicode="&#x202f;" horiz-adv-x="363" 
 />
    <glyph glyph-name="guilsinglleft" unicode="&#x2039;" horiz-adv-x="634" 
d="M66 328l231 -328h285l-226 330l-110 100l110 102l226 326h-287l-229 -326v-204z" />
    <glyph glyph-name="guilsinglright" unicode="&#x203a;" horiz-adv-x="634" 
d="M53 0h287l229 326v204l-231 328h-285l226 -330l110 -100l-110 -102z" />
    <glyph glyph-name="uni205F" unicode="&#x205f;" horiz-adv-x="454" 
 />
    <glyph glyph-name="Euro" unicode="&#x20ac;" horiz-adv-x="1165" 
d="M51 399h156q20 -94 62 -173t106.5 -135t155 -88t210.5 -32q131 0 230.5 32t152.5 67l-65 247q-80 -39 -146.5 -64.5t-150.5 -25.5q-72 0 -124 37t-79 135h303v199h-325v125h325v199h-311q20 96 70.5 129.5t132.5 33.5q43 0 78.5 -4t69.5 -12t71 -19.5l80 -25.5l41 262
q-61 31 -144.5 51.5t-193.5 20.5q-127 0 -222.5 -32t-162 -89t-108.5 -137t-62 -178h-150v-199h127v-53v-37q0 -18 2 -35h-129v-199z" />
    <glyph glyph-name="trademark" unicode="&#x2122;" horiz-adv-x="1697" 
d="M82 1139h184v-602h240v602h184v196h-608v-196zM760 537h188v233l-26 440l61 -325l90 -348h191l84 327l69 346l-28 -469v-204h233v798h-307l-98 -397l-35 -268l-31 268l-96 397h-295v-798z" />
    <glyph glyph-name="uni25FC" unicode="&#x25fc;" horiz-adv-x="1085" 
d="M0 0v1085h1085v-1085h-1085z" />
    <glyph glyph-name="uniFB01" unicode="&#xfb01;" horiz-adv-x="1280" 
d="M39 877h121v-877h319v877h217v213h-217v86q0 49 33 66.5t111 17.5h73l17 188q-25 12 -80 31.5t-133 19.5q-176 0 -258 -101.5t-82 -289.5v-18h-121v-213zM799 1356q0 -80 54 -123t132 -43t132 43t54 123t-54 124t-132 44t-132 -44t-54 -124zM825 0h320v1090h-320v-1090z
" />
    <glyph glyph-name="uniFB02" unicode="&#xfb02;" horiz-adv-x="1249" 
d="M39 877h121v-877h319v877h217v213h-217v86q0 49 33 66.5t111 17.5h65l17 188q-25 12 -76 31.5t-129 19.5q-176 0 -258 -101.5t-82 -289.5v-18h-121v-213zM793 0h319v1470h-319v-1470z" />
    </font>
</defs>
</svg>
