<?xml version="1.0" standalone="no"?>
<!DOCTYPE svg PUBLIC "-//W3C//DTD SVG 1.1//EN" "http://www.w3.org/Graphics/SVG/1.1/DTD/svg11.dtd" >
<svg>
<metadata>
Created by FontForge 20090622 at Sat Jan 19 23:08:02 2019
 By deploy user
[c] Copyright 2002-2003, The Font Bureau, Inc. Designed by Christian Schwartz. All Rights Reserved.
</metadata>
<defs>
<font id="Amplitude-Light" horiz-adv-x="1024" >
  <font-face 
    font-family="Amplitude-Light"
    font-weight="300"
    font-stretch="normal"
    units-per-em="2048"
    panose-1="2 0 5 6 4 0 0 2 0 4"
    ascent="1638"
    descent="-410"
    x-height="1063"
    cap-height="1333"
    bbox="-98 -485 2259 1985"
    underline-thickness="20"
    underline-position="-133"
    unicode-range="U+0020-U+FB04"
  />
<missing-glyph horiz-adv-x="487" 
 />
    <glyph glyph-name="uniFB00" unicode="ff" horiz-adv-x="1135" 
d="M739 963h-129v100h129v180q0 129 56.5 185.5t144.5 56.5q96 0 186 -45l-6 -62h-172q-53 0 -73.5 -24.5t-20.5 -75.5v-215h244v-100h-244v-963h-115v963zM197 963h-136v100h136v180q0 131 59 186.5t147 55.5q99 0 197 -45l-6 -62h-188q-54 0 -74.5 -24.5t-20.5 -75.5v-215
h201v-100h-201v-963h-114v963z" />
    <glyph glyph-name="uniFB01" unicode="fi" horiz-adv-x="1036" 
d="M799 1290q-39 0 -68 29t-29 70t29 69.5t68 28.5t67.5 -28.5t28.5 -69.5t-28.5 -70t-67.5 -29zM197 963h-136v100h136v180q0 127 58 184.5t142 57.5q73 0 166 -45l-6 -62h-151q-54 0 -74.5 -24.5t-20.5 -75.5v-215h244v-100h-244v-963h-114v963zM739 0v1063h117v-1063
h-117z" />
    <glyph glyph-name="uniFB02" unicode="fl" horiz-adv-x="1036" 
d="M197 963h-136v100h136v180q0 127 58 184.5t142 57.5t174 -45l-6 -62h-159q-54 0 -74.5 -24.5t-20.5 -75.5v-215h244v-100h-244v-963h-114v963zM739 0v1470h117v-1470h-117z" />
    <glyph glyph-name="uniFB03" unicode="ffi" horiz-adv-x="1579" 
d="M1341 1290q-38 0 -67 29t-29 70t29 69.5t67 28.5q39 0 68 -28.5t29 -69.5t-29 -70t-68 -29zM739 963h-129v100h129v180q0 127 58.5 184.5t142.5 57.5q73 0 166 -45l-6 -62h-152q-53 0 -73.5 -24.5t-20.5 -75.5v-215h244v-100h-244v-963h-115v963zM197 963h-136v100h136
v180q0 131 59 186.5t147 55.5q99 0 197 -45l-6 -62h-188q-54 0 -74.5 -24.5t-20.5 -75.5v-215h201v-100h-201v-963h-114v963zM1282 0v1063h117v-1063h-117z" />
    <glyph glyph-name="uniFB04" unicode="ffl" horiz-adv-x="1579" 
d="M739 963h-129v100h129v180q0 127 58.5 184.5t142.5 57.5q94 0 184 -45l-6 -62h-170q-53 0 -73.5 -24.5t-20.5 -75.5v-215h244v-100h-244v-963h-115v963zM197 963h-136v100h136v180q0 131 59 186.5t147 55.5q99 0 197 -45l-6 -62h-188q-54 0 -74.5 -24.5t-20.5 -75.5v-215
h201v-100h-201v-963h-114v963zM1282 0v1470h117v-1470h-117z" />
    <glyph glyph-name=".notdef" horiz-adv-x="487" 
 />
    <glyph glyph-name="glyph1" horiz-adv-x="0" 
 />
    <glyph glyph-name="glyph2" horiz-adv-x="487" 
 />
    <glyph glyph-name="space" unicode=" " horiz-adv-x="487" 
 />
    <glyph glyph-name="exclam" unicode="!" horiz-adv-x="522" 
d="M231 356l-34 492v569h129v-569l-35 -492h-60zM260 -18q-43 0 -76.5 31.5t-33.5 80.5q0 51 33.5 83t76.5 32q47 0 80 -32t33 -83q0 -49 -33 -80.5t-80 -31.5z" />
    <glyph glyph-name="quotedbl" unicode="&#x22;" horiz-adv-x="705" 
d="M467 885l-35 305v227h125v-227l-35 -305h-55zM182 885l-35 305v227h125v-227l-34 -305h-56z" />
    <glyph glyph-name="numbersign" unicode="#" horiz-adv-x="1167" 
d="M236 0l57 371h-205l16 102h205l64 416h-203l16 102h203l53 342h90l-53 -342h309l54 342h90l-53 -342h200l-16 -102h-201l-63 -416h198l-16 -102h-199l-57 -371h-90l57 371h-309l-57 -371h-90zM397 469h314l63 424h-313z" />
    <glyph glyph-name="dollar" unicode="$" horiz-adv-x="973" 
d="M625 1348q108 -20 200 -60l-22 -90l-95 29.5t-98 21.5l-73 -526q145 -50 207.5 -97.5t93 -115.5t30.5 -168q0 -184 -102 -277.5t-279 -93.5h-29l-28 2l-41 -284l-96 16l39 279q-118 16 -238 82l35 81q57 -24 108.5 -43.5t108.5 -29.5l82 575q-182 60 -249.5 139.5
t-67.5 221.5q0 174 96 261t272 87h49l33 235l96 -14zM514 1257h-47q-123 0 -183.5 -54t-60.5 -185q0 -112 43 -163.5t176 -98.5zM442 63h19q156 0 223.5 65t67.5 210q0 86 -21.5 133t-69 81t-141.5 66z" />
    <glyph glyph-name="percent" unicode="%" horiz-adv-x="1632" 
d="M383 512q-137 0 -217 114t-80 312q0 186 83 303t218 117q134 0 216.5 -114.5t82.5 -301.5q0 -195 -82.5 -312.5t-220.5 -117.5zM397 0l733 1333h105l-733 -1333h-105zM1243 -29q-137 0 -217 114t-80 312q0 187 82.5 303.5t218.5 116.5q138 0 218.5 -115.5t80.5 -300.5
q0 -192 -81.5 -311t-221.5 -119zM385 594q87 0 134.5 71.5t47.5 225.5v86q0 293 -182 293q-86 0 -134 -71t-48 -224v-86q0 -156 46.5 -225.5t135.5 -69.5zM1245 53q182 0 182 297v86q0 293 -182 293q-88 0 -135 -73.5t-47 -221.5v-86q0 -295 182 -295z" />
    <glyph glyph-name="ampersand" unicode="&#x26;" horiz-adv-x="1206" 
d="M516 776l344 -446q72 161 105 430h112l-22 -144q-39 -238 -121 -383l180 -233h-149l-138 178l-45 -108q-40 -43 -119.5 -71t-173.5 -28q-115 0 -208.5 47.5t-144 135.5t-50.5 200q0 100 32.5 174t87 128t169.5 110q-85 114 -114.5 197.5t-29.5 173.5q0 127 84.5 214
t223.5 87q129 0 210.5 -80t81.5 -211q0 -61 -9.5 -106.5t-28.5 -83.5t-66 -93zM492 807q125 61 175 136.5t50 182.5q0 115 -49.5 159t-126.5 44q-80 0 -132.5 -43t-52.5 -145q0 -84 17.5 -143.5t72.5 -131.5zM797 219l-381 494q-101 -60 -149 -133.5t-48 -198.5v-19
q0 -157 70.5 -225.5t214.5 -68.5q180 0 293 151z" />
    <glyph glyph-name="quotesingle" unicode="'" horiz-adv-x="420" 
d="M182 885l-35 305v227h125v-227l-34 -305h-56z" />
    <glyph glyph-name="parenleft" unicode="(" horiz-adv-x="586" 
d="M449 -205q-99 99 -173 230t-117.5 287.5t-43.5 334.5q0 176 44.5 330t121.5 285.5t163 207.5h86q-160 -210 -223 -394t-63 -406v-45q0 -151 28 -281t83 -249t180 -300h-86z" />
    <glyph glyph-name="parenright" unicode=")" horiz-adv-x="586" 
d="M51 -205q119 172 176.5 294.5t86 252t28.5 283.5v45q0 226 -65.5 412t-221.5 388h86q88 -77 163.5 -205.5t121 -284t45.5 -333.5q0 -180 -44.5 -337t-117.5 -287t-172 -228h-86z" />
    <glyph glyph-name="asterisk" unicode="*" horiz-adv-x="856" 
d="M274 776l-88 66l70 96l141 133l-192 27l-113 35l33 104l113 -35l174 -96l-39 194v117h110v-117l-37 -194l172 96l113 35l33 -104l-113 -35l-192 -27l141 -133l70 -96l-88 -66l-70 96l-84 175l-84 -175z" />
    <glyph glyph-name="plus" unicode="+" horiz-adv-x="1004" 
d="M442 199v360h-319v111h319v360h119v-360h320v-111h-320v-360h-119z" />
    <glyph glyph-name="comma" unicode="," horiz-adv-x="481" 
d="M186 -236l-49 25l90 217l-69 10q-35 35 -35 84q0 54 35 87.5t82 33.5q49 0 83.5 -33.5t34.5 -87.5q0 -51 -23.5 -97t-47.5 -85z" />
    <glyph glyph-name="hyphen" unicode="-" horiz-adv-x="637" 
d="M123 547v121h391v-121h-391z" />
    <glyph glyph-name="hyphen" unicode="&#xad;" horiz-adv-x="637" 
d="M123 547v121h391v-121h-391z" />
    <glyph glyph-name="period" unicode="." horiz-adv-x="481" 
d="M240 -18q-47 0 -82 32.5t-35 85.5q0 54 35 87.5t82 33.5q49 0 83.5 -33.5t34.5 -87.5q0 -53 -34.5 -85.5t-83.5 -32.5z" />
    <glyph glyph-name="slash" unicode="/" horiz-adv-x="782" 
d="M31 -205l614 1675h107l-615 -1675h-106z" />
    <glyph glyph-name="zero" unicode="0" horiz-adv-x="1128" 
d="M561 -29q-216 0 -332 179.5t-116 519.5q0 328 119 508t333 180q216 0 333.5 -179t117.5 -505q0 -703 -455 -703zM565 68q164 0 243 138t79 458v41q0 284 -77 416t-247 132q-168 0 -244.5 -136t-76.5 -421v-39q0 -307 74.5 -448t248.5 -141z" />
    <glyph glyph-name="one" unicode="1" horiz-adv-x="762" 
d="M133 0v96h195v1065h-195v53l248 119h70v-1237h188v-96h-506z" />
    <glyph glyph-name="two" unicode="2" horiz-adv-x="946" 
d="M86 0v113l12 49q19 71 55.5 132.5t84 115t101.5 101.5l107 95q160 137 208 210t48 157v22q0 143 -55.5 200.5t-191.5 57.5q-97 0 -166.5 -23.5t-134.5 -53.5l-31 88l64.5 33.5t75.5 30.5t92.5 21.5t113.5 8.5q175 0 270 -93.5t95 -263.5q0 -79 -27 -143.5t-72 -121
t-105.5 -107.5l-129.5 -107q-156 -118 -222 -209t-85 -196l-7 -33l211 18h426v-102h-737z" />
    <glyph glyph-name="three" unicode="3" horiz-adv-x="985" 
d="M453 -29q-131 0 -221.5 29t-153.5 63l31 89l77 -31q113 -47 246 -47q160 0 239 66.5t79 213.5v21q0 160 -81 223.5t-253 63.5h-113v98h84q181 0 251.5 54.5t70.5 189.5v14q0 88 -26.5 138.5t-84.5 73.5t-172 23q-119 0 -218 -33l-73 -24l-22 92q57 25 136 47.5t189 22.5
q194 0 296 -87t102 -257q0 -133 -65.5 -197.5t-188.5 -99.5q139 -29 218 -119t79 -244q0 -177 -116.5 -280t-309.5 -103z" />
    <glyph glyph-name="four" unicode="4" horiz-adv-x="1112" 
d="M707 0v348h-619v68l574 917h167v-880h179v-105h-179v-348h-122zM229 453h478v575l16 258l-117 -225z" />
    <glyph glyph-name="five" unicode="5" horiz-adv-x="963" 
d="M440 -29q-131 0 -217 31t-145 68l31 88q119 -55 177.5 -69.5t133.5 -14.5q161 0 235 79t74 250v21q0 115 -25.5 186.5t-75.5 102t-141 30.5q-71 0 -127 -22t-104 -78l-119 19l29 671h629v-102h-521l-16 -340l-33 -182q43 49 106.5 88t166.5 39q170 0 266 -110t96 -312
q0 -127 -52.5 -228.5t-149.5 -158t-218 -56.5z" />
    <glyph glyph-name="six" unicode="6" horiz-adv-x="1075" 
d="M248 688l139 111q92 37 184 37q183 0 292.5 -116t109.5 -304q0 -209 -116.5 -327t-307.5 -118q-205 0 -320.5 146.5t-115.5 402.5q0 162 62 305t170 264t292 244h190q-252 -140 -398 -307t-181 -338zM238 604v-100q0 -230 77.5 -334t237.5 -104q141 0 216 72.5t75 246.5
v47q0 157 -69 230t-230 73q-99 0 -167.5 -32.5t-137.5 -75.5z" />
    <glyph glyph-name="seven" unicode="7" horiz-adv-x="936" 
d="M215 0l477 1128l82 115l-145 -12h-566v102h785v-137l-502 -1196h-131z" />
    <glyph glyph-name="eight" unicode="8" horiz-adv-x="1069" 
d="M420 696q-252 120 -252 340q0 141 104 231.5t258 90.5q164 0 266.5 -85t102.5 -222q0 -80 -18.5 -133.5t-61.5 -106.5l-182 -92q138 -59 200.5 -108.5t96 -114t33.5 -148.5q0 -167 -121.5 -272t-310.5 -105q-203 0 -318 95.5t-115 261.5q0 177 129 282zM578 748
q82 40 124.5 75t60 76.5t17.5 134.5v13q0 94 -57 151t-191 57q-121 0 -182 -53.5t-61 -152.5v-13q0 -93 64 -157.5t225 -130.5zM479 664q-139 -66 -196.5 -136.5t-57.5 -179.5v-22q0 -129 79 -194.5t228 -65.5q154 0 231 70.5t77 197.5v28q0 64 -24.5 106t-83 78.5
t-253.5 117.5z" />
    <glyph glyph-name="nine" unicode="9" horiz-adv-x="1075" 
d="M825 633l-137 -103q-90 -36 -184 -36q-185 0 -293.5 115.5t-108.5 303.5q0 210 116.5 327.5t307.5 117.5q207 0 322 -145t115 -404q0 -164 -65 -309t-175.5 -266.5t-284.5 -233.5h-190q230 126 383.5 291t193.5 342zM838 750v75q0 225 -74.5 327.5t-241.5 102.5
q-139 0 -215 -69.5t-76 -241.5v-47q0 -174 78 -242.5t221 -68.5q97 0 166.5 32.5t139.5 73.5z" />
    <glyph glyph-name="colon" unicode=":" horiz-adv-x="494" 
d="M246 596q-47 0 -82 33t-35 86t35 87t82 34q49 0 84 -34t35 -87t-35 -86t-84 -33zM246 -18q-47 0 -82 32.5t-35 85.5q0 54 35 87.5t82 33.5q49 0 84 -33.5t35 -87.5q0 -53 -35 -85.5t-84 -32.5z" />
    <glyph glyph-name="semicolon" unicode=";" horiz-adv-x="494" 
d="M246 596q-47 0 -82 33t-35 86t35 87t82 34q49 0 84 -34t35 -87t-35 -86t-84 -33zM193 -236l-50 25l90 217l-69 10q-35 38 -35 84q0 54 35 87.5t82 33.5q49 0 84 -33.5t35 -87.5q0 -51 -24 -97t-48 -85z" />
    <glyph glyph-name="less" unicode="&#x3c;" horiz-adv-x="885" 
d="M774 182l-680 324v139l680 320v-125l-455 -209l-180 -60l180 -59l455 -213v-117z" />
    <glyph glyph-name="equal" unicode="=" horiz-adv-x="944" 
d="M123 723v106h698v-106h-698zM123 397v107h698v-107h-698z" />
    <glyph glyph-name="greater" unicode="&#x3e;" horiz-adv-x="885" 
d="M111 182v125l454 209l180 59l-180 60l-454 213v117l680 -324v-139z" />
    <glyph glyph-name="question" unicode="?" horiz-adv-x="868" 
d="M305 356l-35 271l-2 34q0 26 8.5 47t61.5 37q147 43 196 75t69 85t20 162v16q0 141 -50 194.5t-204 53.5q-80 0 -145.5 -15.5t-143.5 -43.5l-19 90q166 76 324 76q367 0 367 -365q0 -175 -81 -264.5t-286 -130.5v-322h-80zM352 -18q-43 0 -76.5 31.5t-33.5 80.5
q0 51 33.5 83t76.5 32q47 0 80 -32t33 -83q0 -49 -33 -80.5t-80 -31.5z" />
    <glyph glyph-name="at" unicode="@" horiz-adv-x="1563" 
d="M813 -283q-367 0 -539 198t-172 601q0 395 176.5 599t546.5 204q324 0 479.5 -164.5t155.5 -521.5q0 -311 -94 -462t-299 -151q-52 0 -96 11l-45 116l-99 -104q-87 -31 -182 -31q-108 0 -181 60.5t-73 187.5q0 168 96.5 250t315.5 98l194 15l21 118q9 63 9 103
q0 63 -38 93t-123 30q-112 0 -295 -47v90q82 28 152 41.5t151 13.5q130 0 193.5 -61.5t63.5 -187.5q0 -53 -11 -114l-90 -520l-3 -30q0 -21 11 -34.5t49 -13.5h19q125 0 189.5 121t64.5 387v43q0 218 -55.5 339t-173 182t-310.5 61q-219 0 -353 -71t-198.5 -221t-64.5 -404
v-43q0 -251 61.5 -399.5t193.5 -222t349 -73.5q129 0 238.5 28t224.5 69l26 -82q-81 -37 -206 -69t-279 -32zM666 104q94 0 155.5 34t104.5 75l57 334l-184 -17q-125 -10 -184 -40.5t-84.5 -100.5t-25.5 -140q0 -59 31 -102t130 -43z" />
    <glyph glyph-name="A" unicode="A" horiz-adv-x="1145" 
d="M291 307l-96 -307h-115l426 1333h143l420 -1333h-133l-92 307h-553zM813 406l-182 602l-53 280l-66 -280l-190 -602h491z" />
    <glyph glyph-name="B" unicode="B" horiz-adv-x="1102" 
d="M184 0v1333h383q189 0 292.5 -92t103.5 -258q0 -111 -58.5 -185t-167.5 -110q118 -29 188 -114t70 -201q0 -179 -109 -276t-298 -97h-404zM309 733h262q145 0 205 53t60 189v14q0 131 -62.5 185.5t-224.5 54.5h-240v-496zM309 104h262q142 0 214.5 57.5t72.5 198.5v19
q0 141 -64.5 199.5t-215.5 58.5h-269v-533z" />
    <glyph glyph-name="C" unicode="C" horiz-adv-x="1012" 
d="M604 -29q-241 0 -368 176.5t-127 522.5q0 331 131.5 509.5t367.5 178.5q101 0 171.5 -18.5t142.5 -47.5l-21 -100l-86 24q-114 33 -223 33q-175 0 -261.5 -143t-86.5 -410v-39q0 -297 84.5 -440t263.5 -143q70 0 129.5 11t187.5 58l35 -96q-78 -35 -155.5 -55.5
t-184.5 -20.5z" />
    <glyph glyph-name="D" unicode="D" horiz-adv-x="1186" 
d="M184 0v1333h340q553 0 553 -663q0 -344 -137 -507t-434 -163h-322zM311 98h181q181 0 273 53.5t135.5 174t43.5 329.5v37q0 199 -44.5 314.5t-140.5 168t-272 52.5h-176v-1129z" />
    <glyph glyph-name="E" unicode="E" horiz-adv-x="999" 
d="M184 0v1333h688v-104h-561v-490h490v-98h-490v-537h596v-104h-723z" />
    <glyph glyph-name="F" unicode="F" horiz-adv-x="981" 
d="M184 0v1333h688v-104h-561v-522h500v-99h-500v-608h-127z" />
    <glyph glyph-name="G" unicode="G" horiz-adv-x="1126" 
d="M899 76l-106 -88q-87 -17 -175 -17q-247 0 -378 177t-131 522q0 329 134 508.5t375 179.5q107 0 185 -18.5t151 -49.5l-20 -102q-134 40 -198 50.5t-130 10.5q-364 0 -364 -553v-39q0 -294 86 -438.5t278 -144.5q144 0 256 41v456h-215v103h342v-690h-51z" />
    <glyph glyph-name="H" unicode="H" horiz-adv-x="1206" 
d="M895 635h-584v-635h-127v1333h127v-600h584v600h127v-1333h-127v635z" />
    <glyph glyph-name="I" unicode="I" horiz-adv-x="516" 
d="M195 0v1333h127v-1333h-127z" />
    <glyph glyph-name="J" unicode="J" horiz-adv-x="676" 
d="M256 -29q-104 0 -186 47l16 93q85 -37 147 -37q78 0 110 53.5t32 177.5v1028h127v-983q0 -379 -246 -379z" />
    <glyph glyph-name="K" unicode="K" horiz-adv-x="1090" 
d="M289 623l573 710h142l-508 -612l149 -117l375 -604h-146l-421 688l-140 -168v-520h-129v1333h129v-510z" />
    <glyph glyph-name="L" unicode="L" horiz-adv-x="958" 
d="M184 0v1333h127v-1231h574v-102h-701z" />
    <glyph glyph-name="M" unicode="M" horiz-adv-x="1448" 
d="M184 0v1333h181l297 -1011l55 -281l51 281l311 1011h185v-1333h-125v864l22 434l-82 -327l-301 -971h-139l-287 954l-71 344l20 -434v-864h-117z" />
    <glyph glyph-name="N" unicode="N" horiz-adv-x="1210" 
d="M184 0v1333h146l475 -913l131 -350l-29 391v872h119v-1333h-139l-498 954l-113 318l27 -348v-924h-119z" />
    <glyph glyph-name="O" unicode="O" horiz-adv-x="1210" 
d="M602 -29q-234 0 -363.5 179t-129.5 520q0 327 131.5 507.5t365.5 180.5q236 0 366 -181.5t130 -502.5q0 -338 -122 -520.5t-378 -182.5zM606 70q186 0 274.5 144.5t88.5 449.5v41q0 284 -91.5 414t-273.5 130q-180 0 -271 -134t-91 -419v-39q0 -300 87 -443.5t277 -143.5
z" />
    <glyph glyph-name="P" unicode="P" horiz-adv-x="1063" 
d="M184 0v1333h389q201 0 305.5 -106.5t104.5 -292.5q0 -192 -107.5 -299t-302.5 -107h-262v-528h-127zM311 621h248q158 0 222.5 71.5t64.5 235.5v16q0 158 -65.5 221.5t-225.5 63.5h-244v-608z" />
    <glyph glyph-name="Q" unicode="Q" horiz-adv-x="1210" 
d="M700 20l244 -260l-145 -41l-189 252h-8q-234 0 -363.5 179t-129.5 520q0 327 131.5 507.5t365.5 180.5q233 0 364.5 -181.5t131.5 -502.5q0 -234 -57.5 -394.5t-190.5 -244.5zM606 68q176 0 269.5 138t93.5 458v41q0 284 -91.5 414t-273.5 130q-180 0 -271 -134t-91 -419
v-39q0 -303 87 -446t277 -143z" />
    <glyph glyph-name="R" unicode="R" horiz-adv-x="1106" 
d="M635 573l106 -88l265 -485h-144l-297 561h-256v-561h-125v1333h389q202 0 306 -100t104 -283q0 -168 -91.5 -267t-256.5 -110zM309 653h250q156 0 221.5 65.5t65.5 225.5v17q0 153 -66 210.5t-225 57.5h-246v-576z" />
    <glyph glyph-name="S" unicode="S" horiz-adv-x="993" 
d="M498 -29q-148 0 -237 29t-150 66l26 92q84 -39 160 -62.5t174 -23.5q111 0 170 27t88 85.5t29 153.5q0 115 -52 172t-208 106q-166 52 -238 100t-104.5 117.5t-32.5 176.5q0 174 100.5 261t278.5 87q119 0 193.5 -19.5t138.5 -48.5l-25 -98q-110 37 -175 47t-145 10
q-124 0 -184.5 -50t-60.5 -181q0 -88 21 -130t73 -73t174 -70q155 -51 229 -102t110 -123.5t36 -177.5q0 -184 -106.5 -277.5t-282.5 -93.5z" />
    <glyph glyph-name="T" unicode="T" horiz-adv-x="950" 
d="M412 1229h-355v104h836v-104h-354v-1229h-127v1229z" />
    <glyph glyph-name="U" unicode="U" horiz-adv-x="1184" 
d="M872 168v1165h127v-1333h-61l-51 123l-76 -96q-122 -56 -258 -56q-200 0 -289.5 118t-89.5 407v837h127v-884q0 -151 24 -232t76.5 -114t167.5 -33q107 0 176.5 30.5t126.5 67.5z" />
    <glyph glyph-name="V" unicode="V" horiz-adv-x="1149" 
d="M504 0l-424 1333h131l309 -1007l60 -281l59 281l313 1007h117l-422 -1333h-143z" />
    <glyph glyph-name="W" unicode="W" horiz-adv-x="1483" 
d="M367 0l-295 1333h127l180 -858l59 -438l58 399l174 897h149l185 -897l57 -399l63 438l187 858h112l-301 -1333h-145l-189 889l-45 401l-51 -401l-184 -889h-141z" />
    <glyph glyph-name="X" unicode="X" horiz-adv-x="1044" 
d="M74 0l379 686l-363 647h137l222 -397l86 -199l75 199l215 397h119l-360 -643l387 -690h-137l-244 440l-90 195l-70 -195l-237 -440h-119z" />
    <glyph glyph-name="Y" unicode="Y" horiz-adv-x="1038" 
d="M467 0v473l-406 860h138l270 -600l61 -229l66 229l262 600h119l-383 -852v-481h-127z" />
    <glyph glyph-name="Z" unicode="Z" horiz-adv-x="1004" 
d="M102 0v137l627 1004l80 98l-156 -10h-522v104h762v-145l-619 -989l-98 -115l176 20h543v-104h-793z" />
    <glyph glyph-name="bracketleft" unicode="[" horiz-adv-x="514" 
d="M143 -205v1675h289v-92h-176v-1491h176v-92h-289z" />
    <glyph glyph-name="backslash" unicode="\" horiz-adv-x="782" 
d="M645 -205l-614 1675h106l615 -1675h-107z" />
    <glyph glyph-name="bracketright" unicode="]" horiz-adv-x="514" 
d="M82 -205v92h176v1491h-176v92h289v-1675h-289z" />
    <glyph glyph-name="asciicircum" unicode="^" horiz-adv-x="1065" 
d="M176 874l273 541h137l274 -541h-125l-174 371l-45 139l-45 -139l-180 -371h-115z" />
    <glyph glyph-name="underscore" unicode="_" horiz-adv-x="516" 
d="M10 -332v90h496v-90h-496z" />
    <glyph glyph-name="grave" unicode="`" horiz-adv-x="1065" 
d="M487 1214l-215 336h148l145 -336h-78z" />
    <glyph glyph-name="a" unicode="a" horiz-adv-x="965" 
d="M670 614v125q0 130 -48.5 186t-148.5 56q-78 0 -151.5 -18.5t-151.5 -44.5l-18 94q77 30 151 50.5t168 20.5q166 0 239.5 -93t73.5 -292v-546q0 -48 17.5 -65t58.5 -17h35l4 -72q-36 -18 -84 -18q-41 0 -76 14l-65 112l-99 -106q-68 -29 -161 -29q-156 0 -236 79t-80 229
q0 157 91.5 230t279.5 89zM670 182v353l-193 -19q-137 -14 -198.5 -63.5t-61.5 -169.5v-15q0 -108 50 -154t161 -46q92 0 148.5 34.5t93.5 79.5z" />
    <glyph glyph-name="b" unicode="b" horiz-adv-x="1028" 
d="M262 106l-41 -112h-53v1476h117v-512q45 46 112.5 85.5t165.5 39.5q168 0 265.5 -130t97.5 -410q0 -572 -385 -572q-74 0 -152 27zM285 868v-712q120 -93 241 -93q147 0 213 108.5t66 352.5v29q0 226 -61 329t-193 103q-155 0 -266 -117z" />
    <glyph glyph-name="c" unicode="c" horiz-adv-x="850" 
d="M494 -29q-392 0 -392 564q0 284 99.5 416t292.5 132q137 0 276 -59l-20 -94q-78 24 -133.5 38.5t-114.5 14.5q-107 0 -164 -43t-85 -137t-28 -250v-27q0 -243 65 -350.5t212 -107.5q55 0 104.5 14t143.5 59l30 -88q-139 -82 -286 -82z" />
    <glyph glyph-name="d" unicode="d" horiz-adv-x="1020" 
d="M735 977v493h117v-1470h-57l-54 127l-120 -117q-69 -30 -156 -30q-178 0 -270.5 141t-92.5 422q0 276 100.5 408t266.5 132q149 0 266 -106zM735 184v701q-74 58 -133.5 79t-118.5 21q-99 0 -152.5 -42.5t-80.5 -137.5t-27 -252v-29q0 -235 63.5 -343.5t198.5 -108.5
q76 0 128.5 29.5t121.5 82.5z" />
    <glyph glyph-name="e" unicode="e" horiz-adv-x="971" 
d="M225 498q0 -218 68 -324t231 -106q70 0 133.5 19t137.5 54l26 -90q-47 -26 -130 -53t-175 -27q-414 0 -414 559q0 265 101.5 409t300.5 144q180 0 270 -132t90 -353v-100h-639zM225 594h518v27q0 200 -60 283t-179 83q-143 0 -208 -93t-71 -300z" />
    <glyph glyph-name="f" unicode="f" horiz-adv-x="592" 
d="M197 963h-136v100h136v180q0 129 56 185.5t144 56.5q95 0 187 -45l-6 -62h-172q-54 0 -74.5 -24.5t-20.5 -75.5v-215h244v-100h-244v-963h-114v963z" />
    <glyph glyph-name="g" unicode="g" horiz-adv-x="999" 
d="M737 1006l224 84v-144h-242l119 -86q16 -52 16 -106q0 -166 -96 -254t-269 -88q-108 0 -184 37q-63 -50 -63 -115q0 -119 149 -119h232q149 0 228 -66.5t79 -183.5q0 -151 -125 -239t-330 -88q-192 0 -291.5 74.5t-99.5 193.5q0 65 22.5 103t38.5 57l125 63
q-64 18 -97.5 66t-33.5 116q0 54 16.5 83.5t26.5 43.5l101 47l-117 72q-45 84 -45 191t49 182t132.5 114t186.5 39q150 0 248 -77zM489 504q129 0 186.5 57t57.5 180v13q0 104 -57.5 168.5t-186.5 64.5q-131 0 -189 -63.5t-58 -167.5v-13q0 -125 58 -182t189 -57zM322 113
q-60 -39 -94.5 -85t-34.5 -114q0 -178 282 -178q172 0 256 65.5t84 153.5v8q0 62 -37 106t-141 44h-315z" />
    <glyph glyph-name="h" unicode="h" horiz-adv-x="1028" 
d="M285 879v-879h-117v1470h117v-534l88 98q101 49 209 49q286 0 286 -329v-754h-116v778q0 119 -52.5 163t-134.5 44q-92 0 -153.5 -28.5t-126.5 -77.5z" />
    <glyph glyph-name="i" unicode="i" horiz-adv-x="467" 
d="M233 1290q-36 0 -64 26.5t-28 67.5t28 68t64 27q37 0 65 -27t28 -68t-28 -67.5t-65 -26.5zM174 0v1063h117v-1063h-117z" />
    <glyph glyph-name="j" unicode="j" horiz-adv-x="451" 
d="M225 1290q-37 0 -64.5 26.5t-27.5 67.5t27.5 68t64.5 27t64.5 -27t27.5 -68t-27.5 -67.5t-64.5 -26.5zM96 -348q-87 0 -145 41l10 61h113q53 0 73.5 28t20.5 79v1202h115v-1169q0 -130 -53.5 -186t-133.5 -56z" />
    <glyph glyph-name="k" unicode="k" horiz-adv-x="907" 
d="M285 358v-358h-117v1470h117v-743l-27 -268l457 604h129l-350 -455l127 -155l247 -453h-133l-309 555z" />
    <glyph glyph-name="l" unicode="l" horiz-adv-x="479" 
d="M180 0v1470h119v-1470h-119z" />
    <glyph glyph-name="m" unicode="m" horiz-adv-x="1559" 
d="M823 926l99 108q28 17 80.5 33t119.5 16q125 0 201 -73.5t76 -255.5v-754h-117v778q0 119 -47 163t-129 44q-88 0 -146.5 -29.5t-117.5 -78.5v-877h-117v778q0 207 -176 207q-84 0 -144.5 -28.5t-119.5 -73.5v-883h-117v1063h57l54 -127l86 98q86 49 200 49
q109 0 189 -49z" />
    <glyph glyph-name="n" unicode="n" horiz-adv-x="1028" 
d="M281 932l92 102q101 49 209 49q286 0 286 -329v-754h-116v778q0 119 -52.5 163t-134.5 44q-92 0 -153.5 -28.5t-126.5 -77.5v-879h-117v1063h57z" />
    <glyph glyph-name="o" unicode="o" horiz-adv-x="1016" 
d="M510 -29q-193 0 -300.5 149.5t-107.5 407.5q0 253 106 404t302 151q191 0 297 -147t106 -401q0 -279 -109.5 -421.5t-293.5 -142.5zM510 66q135 0 208 110.5t73 335.5v27q0 230 -67.5 338t-213.5 108q-149 0 -217 -109t-68 -327v-27q0 -224 72.5 -340t212.5 -116z" />
    <glyph glyph-name="p" unicode="p" horiz-adv-x="1028" 
d="M279 936l98 104q41 17 85 30t103 13q174 0 267.5 -136t93.5 -417q0 -268 -100.5 -397t-264.5 -129q-96 0 -163.5 36t-112.5 75v-447h-117v1395h57zM285 197q121 -101 258 -101q123 0 192.5 96.5t69.5 327.5v29q0 232 -60 334t-196 102q-78 0 -137.5 -24.5t-126.5 -77.5
v-686z" />
    <glyph glyph-name="q" unicode="q" horiz-adv-x="1028" 
d="M743 117q-45 -39 -112.5 -76t-163.5 -37q-164 0 -264.5 131t-100.5 395q0 279 98.5 416t268.5 137q103 0 190 -39l105 -100l43 119h53v-1395h-117v449zM743 889q-129 96 -264 96q-134 0 -195 -104t-61 -332v-29q0 -233 68.5 -328.5t193.5 -95.5q137 0 258 101v692z" />
    <glyph glyph-name="r" unicode="r" horiz-adv-x="727" 
d="M281 934l102 110q84 39 156 39q84 0 139 -26l-25 -111q-35 15 -66.5 22t-80.5 7q-70 0 -120 -30t-101 -73v-872h-117v1063h57z" />
    <glyph glyph-name="s" unicode="s" horiz-adv-x="805" 
d="M387 -29q-173 0 -295 68l21 92q138 -65 272 -65q98 0 157.5 45t59.5 157q0 72 -17 108t-61.5 61.5t-167.5 62.5q-142 39 -202 108t-60 185q0 145 86 217.5t230 72.5q161 0 272 -59l-20 -88q-60 20 -113 34.5t-141 14.5q-97 0 -149 -38t-52 -150q0 -52 12 -83.5t39 -53
t69 -36t101 -32.5q130 -41 183 -80.5t79.5 -98t26.5 -143.5q0 -140 -89 -219.5t-241 -79.5z" />
    <glyph glyph-name="t" unicode="t" horiz-adv-x="625" 
d="M356 -20q-92 0 -132 50t-40 165v768h-131v100h137l54 287h57v-287h238v-100h-238v-787q0 -55 17.5 -76.5t70.5 -21.5h166l6 -60q-112 -38 -205 -38z" />
    <glyph glyph-name="u" unicode="u" horiz-adv-x="1020" 
d="M735 178v885h117v-1063h-57l-56 123l-86 -98q-85 -45 -211 -45q-144 0 -213 85t-69 244v754h116v-778q0 -121 51.5 -167t131.5 -46q92 0 154.5 27.5t121.5 78.5z" />
    <glyph glyph-name="v" unicode="v" horiz-adv-x="897" 
d="M381 0l-330 1063h121l223 -754l54 -276l53 276l227 754h117l-334 -1063h-131z" />
    <glyph glyph-name="w" unicode="w" horiz-adv-x="1313" 
d="M315 0l-264 1063h117l184 -770l33 -246l51 322l166 694h133l164 -694l43 -322l33 246l180 770h107l-263 -1063h-122l-166 698l-47 312l-48 -312l-178 -698h-123z" />
    <glyph glyph-name="x" unicode="x" horiz-adv-x="887" 
d="M66 0l313 547l-301 516h125l172 -295l84 -190l69 190l160 295h117l-301 -522l317 -541h-125l-182 313l-88 191l-76 -191l-168 -313h-116z" />
    <glyph glyph-name="y" unicode="y" horiz-adv-x="897" 
d="M283 -332l104 357l-336 1038h121l225 -721l52 -274l55 274l225 721h117l-447 -1395h-116z" />
    <glyph glyph-name="z" unicode="z" horiz-adv-x="834" 
d="M78 0v113l512 772l67 86l-159 -13h-389v105h647v-121l-514 -778l-76 -86l166 20h424v-98h-678z" />
    <glyph glyph-name="braceleft" unicode="{" horiz-adv-x="563" 
d="M393 -219q-90 0 -144 61.5t-54 169.5q0 60 8 115t18 104.5l18.5 90t8.5 73.5q0 187 -180 193v102q90 4 135 46t45 138q0 33 -8.5 74l-18.5 89t-18 100.5t-8 107.5q0 117 56 178.5t140 61.5q56 0 107 -27l-6 -74h-89q-59 0 -79.5 -31t-20.5 -78q0 -29 6 -67l43 -258
q6 -44 6 -86q0 -190 -194 -225q133 -23 165 -93t32 -141q0 -38 -7 -81l-41 -254q-6 -41 -6 -73q0 -47 18.5 -83.5t77.5 -36.5h89l6 -70q-49 -26 -105 -26z" />
    <glyph glyph-name="bar" unicode="|" horiz-adv-x="367" 
d="M133 -205v1675h100v-1675h-100z" />
    <glyph glyph-name="braceright" unicode="}" horiz-adv-x="563" 
d="M172 -219q-59 0 -106 26l6 70h88q100 0 100 113q0 29 -6 67l-43 271q-8 44 -8 84q0 95 50.5 152.5t145.5 74.5q-133 23 -165.5 91.5t-32.5 137.5q0 40 8 86l41 242q6 41 6 73q0 46 -18.5 80.5t-77.5 34.5h-88l-6 74q49 27 104 27q93 0 146 -60.5t53 -171.5
q0 -59 -8.5 -112.5t-18.5 -99.5l-18.5 -86t-8.5 -72q0 -187 181 -193v-102q-90 -4 -135.5 -46t-45.5 -139q0 -32 8.5 -75l18.5 -93.5t18.5 -104.5t8.5 -110q0 -111 -51 -175t-146 -64z" />
    <glyph glyph-name="asciitilde" unicode="~" horiz-adv-x="819" 
d="M541 553q-47 0 -82 30.5t-66 65.5q-89 95 -99.5 102t-29.5 7q-28 0 -38.5 -39t-10.5 -113v-33h-94q0 158 44 225.5t114 67.5q47 0 81.5 -30.5t65.5 -65.5q89 -94 99 -101t30 -7q29 0 39 38.5t10 112.5v31h94q0 -156 -45 -223.5t-112 -67.5z" />
    <glyph glyph-name="uni00A0" unicode="&#xa0;" horiz-adv-x="244" 
 />
    <glyph glyph-name="exclamdown" unicode="&#xa1;" horiz-adv-x="522" 
d="M262 856q-47 0 -79.5 32t-32.5 83q0 49 32.5 80.5t79.5 31.5q43 0 77 -31.5t34 -80.5q0 -51 -34 -83t-77 -32zM197 -332v549l34 492h60l35 -492v-549h-129z" />
    <glyph glyph-name="cent" unicode="&#xa2;" horiz-adv-x="850" 
d="M430 74q33 -6 72 -6q55 0 104.5 14t143.5 59l30 -88q-139 -82 -286 -82q-54 0 -93 9l-77 -256l-91 28l78 258q-209 115 -209 525q0 284 99.5 416t292.5 132q69 0 139 -16l82 266l94 -26zM604 971q-53 12 -102 12q-107 0 -164 -43t-85 -137t-28 -250v-27q0 -174 31 -270
t86 -143z" />
    <glyph glyph-name="sterling" unicode="&#xa3;" horiz-adv-x="913" 
d="M410 616q36 -92 36 -180q0 -143 -133 -272l-166 -86l226 24h473v-102h-744v125l84 56q73 47 107.5 106.5t34.5 140.5q0 88 -49 188h-197v101h147q-34 67 -61 143t-27 172q0 97 43.5 171.5t127 114.5t200.5 40q121 0 198.5 -26.5t139.5 -59.5l-31 -92q-59 28 -126.5 50.5
t-162.5 22.5q-139 0 -198.5 -49t-59.5 -174v-22q0 -84 29 -153t64 -138h335v-101h-290z" />
    <glyph glyph-name="currency" unicode="&#xa4;" horiz-adv-x="1152" 
d="M1056 392l-116 -108l-200 216q-72 -48 -168 -48q-92 0 -164 48l-200 -216l-116 108l208 216q-28 40 -38 78t-10 94q0 103 48 172l-208 216l116 108l200 -216q72 48 164 48q96 0 168 -48l204 216l116 -120l-208 -204q28 -40 38 -80t10 -92q0 -96 -52 -172zM748 780
q0 80 -50 130t-126 50t-124 -50t-48 -130t50 -128t122 -48q80 0 128 48t48 128z" />
    <glyph glyph-name="yen" unicode="&#xa5;" horiz-adv-x="1126" 
d="M782 844h258v-101h-301l-96 -219h397v-100h-415v-424h-123v424h-416v100h393l-100 219h-293v101h246l-226 489h134l264 -600l59 -270l68 270l256 600h110z" />
    <glyph glyph-name="brokenbar" unicode="&#xa6;" horiz-adv-x="367" 
d="M133 690v780h100v-780h-100zM133 -205v785h100v-785h-100z" />
    <glyph glyph-name="section" unicode="&#xa7;" horiz-adv-x="928" 
d="M367 768q-78 35 -130.5 99.5t-52.5 179.5q0 141 86 226t230 85q163 0 272 -60l-24 -88l-56 20q-86 30 -194 30q-97 0 -149 -48.5t-52 -160.5q0 -64 21 -103.5t67.5 -68.5t153.5 -62q165 -50 232 -123t67 -198q0 -143 -121 -224l-156 -41q72 -36 122 -104t50 -178
q0 -142 -86 -226.5t-229 -84.5q-164 0 -273 59l23 86q84 -33 136.5 -42t115.5 -9q201 0 201 213q0 95 -50.5 146.5t-191.5 96.5q-165 51 -227 122.5t-62 199.5q0 142 121 223zM500 258q110 35 166.5 86t56.5 150t-49 146t-207 91l-37 12q-115 -30 -170 -79.5t-55 -151.5
q0 -77 18.5 -113.5t65 -63t211.5 -77.5z" />
    <glyph glyph-name="dieresis" unicode="&#xa8;" 
d="M674 1223q-37 0 -64.5 26.5t-27.5 67.5t27.5 67.5t64.5 26.5t64.5 -26.5t27.5 -67.5t-27.5 -67.5t-64.5 -26.5zM350 1223q-37 0 -64.5 26.5t-27.5 67.5t27.5 67.5t64.5 26.5t64.5 -26.5t27.5 -67.5t-27.5 -67.5t-64.5 -26.5z" />
    <glyph glyph-name="copyright" unicode="&#xa9;" horiz-adv-x="1262" 
d="M627 -29q-269 0 -399 183.5t-130 515.5q0 326 136.5 507t396.5 181q264 0 398 -180.5t134 -503.5q0 -703 -536 -703zM627 39q246 0 355.5 150.5t109.5 484.5q0 317 -114 466.5t-347 149.5q-236 0 -348.5 -153.5t-112.5 -466.5q0 -326 109.5 -478.5t347.5 -152.5zM635 180
q-162 0 -248 125.5t-86 364.5q0 226 86 353.5t248 127.5q70 0 119 -13.5t108 -33.5l-14 -88q-65 18 -111 28.5t-102 10.5q-108 0 -162.5 -98.5t-54.5 -268.5v-26q0 -390 217 -390q77 0 157 31l60 23l31 -76q-66 -39 -121 -54.5t-127 -15.5z" />
    <glyph glyph-name="ordfeminine" unicode="&#xaa;" horiz-adv-x="862" 
d="M578 956v105q0 110 -41 155.5t-121 45.5q-109 0 -260 -52l-17 84q70 29 133.5 46.5t141.5 17.5q143 0 208.5 -80t65.5 -250v-461q0 -37 14.5 -50t45.5 -13h30l4 -66q-30 -18 -77 -18q-30 0 -66 12l-55 98l-80 -94q-55 -22 -139 -22q-269 0 -269 260q0 135 79 198.5
t237 73.5zM578 594v297l-158 -14q-117 -11 -163 -56t-46 -143v-10q0 -90 37 -130t129 -40q76 0 122 28.5t79 67.5z" />
    <glyph glyph-name="guillemotleft" unicode="&#xab;" horiz-adv-x="893" 
d="M694 0l-270 352v111l268 352h127l-229 -305l-94 -102l94 -101l229 -307h-125zM371 0l-271 352v111l269 352h127l-230 -305l-94 -102l94 -101l230 -307h-125z" />
    <glyph glyph-name="logicalnot" unicode="&#xac;" horiz-adv-x="1536" 
d="M1116 352v376h-904v192h1084v-568h-180z" />
    <glyph glyph-name="registered" unicode="&#xae;" horiz-adv-x="932" 
d="M463 358q-195 0 -288 132.5t-93 371.5q0 232 96 364t289 132q190 0 286.5 -130t96.5 -364q0 -506 -387 -506zM463 420q168 0 246.5 101.5t78.5 342.5q0 223 -79.5 327.5t-241.5 104.5q-324 0 -324 -434q0 -229 77 -335.5t243 -106.5zM512 819l53 -47l105 -201h-86
l-117 242h-86v-242h-80v586h176q98 0 140 -50t42 -124q0 -57 -29.5 -104.5t-117.5 -59.5zM381 864h90q59 0 83 28t24 87v6q0 55 -25 82t-82 27h-90v-230z" />
    <glyph glyph-name="macron" unicode="&#xaf;" 
d="M289 1305v112h446v-112h-446z" />
    <glyph glyph-name="macron" unicode="&#x304;" 
d="M289 1305v112h446v-112h-446z" />
    <glyph glyph-name="degree" unicode="&#xb0;" horiz-adv-x="655" 
d="M330 780q-101 0 -168.5 74t-67.5 215q0 133 66.5 211t169.5 78q96 0 163.5 -74t67.5 -213q0 -141 -66.5 -216t-164.5 -75zM330 852q61 0 96 44t35 157v30q0 117 -35 158t-96 41q-66 0 -100.5 -40t-34.5 -155v-26q0 -119 35.5 -164t99.5 -45z" />
    <glyph glyph-name="plusminus" unicode="&#xb1;" horiz-adv-x="1536" 
d="M672 352v412h-472v172h472v416h192v-416h476v-172h-476v-412h-192zM204 24v192h1132v-192h-1132z" />
    <glyph glyph-name="uni00B2" unicode="&#xb2;" horiz-adv-x="666" 
d="M90 532v89q28 92 67.5 143.5t141.5 140.5q70 60 105.5 102t35.5 101v16q0 78 -32.5 105.5t-100.5 27.5q-53 0 -94 -13t-84 -32l-20 78q34 21 84.5 39.5t132.5 18.5q125 0 178 -64.5t53 -157.5q0 -51 -18.5 -94t-53.5 -82t-129 -112q-97 -77 -127.5 -119t-44.5 -113
l135 15h230v-89h-459z" />
    <glyph glyph-name="uni00B3" unicode="&#xb3;" horiz-adv-x="700" 
d="M311 516q-144 0 -231 55l22 76q50 -20 89.5 -32.5t99.5 -12.5q86 0 128 35t42 113v14q0 84 -43 116.5t-142 32.5h-65v78h49q105 0 143.5 31t38.5 102v9q0 73 -35.5 100t-117.5 27q-53 0 -88 -9.5t-84 -25.5l-15 80q101 43 203 43q131 0 189.5 -58.5t58.5 -150.5
q0 -80 -42 -120t-120 -61q187 -34 187 -213q0 -104 -71 -166.5t-196 -62.5z" />
    <glyph glyph-name="acute" unicode="&#xb4;" 
d="M479 1214l146 336h147l-215 -336h-78z" />
    <glyph glyph-name="mu" unicode="&#xb5;" horiz-adv-x="1028" 
d="M743 178v885h117v-1063h-57l-55 123l-86 -98q-87 -45 -211 -45q-46 0 -78 8l-113 106l25 -151v-275h-117v1395h117v-778q0 -121 51 -167t131 -46q92 0 154.5 27.5t121.5 78.5z" />
    <glyph glyph-name="mu" unicode="&#x3bc;" horiz-adv-x="1028" 
d="M743 178v885h117v-1063h-57l-55 123l-86 -98q-87 -45 -211 -45q-46 0 -78 8l-113 106l25 -151v-275h-117v1395h117v-778q0 -121 51 -167t131 -46q92 0 154.5 27.5t121.5 78.5z" />
    <glyph glyph-name="paragraph" unicode="&#xb6;" horiz-adv-x="995" 
d="M440 -205v907l-137 -22q-217 62 -217 326q0 161 102.5 244t274.5 83h348v-1538h-102v1442h-166v-1442h-103z" />
    <glyph glyph-name="periodcentered" unicode="&#xb7;" horiz-adv-x="481" 
d="M240 584q-47 0 -82 32.5t-35 85.5q0 54 35 87.5t82 33.5q49 0 83.5 -33.5t34.5 -87.5q0 -53 -34.5 -85.5t-83.5 -32.5z" />
    <glyph glyph-name="periodcentered" unicode="&#x2219;" horiz-adv-x="481" 
d="M240 584q-47 0 -82 32.5t-35 85.5q0 54 35 87.5t82 33.5q49 0 83.5 -33.5t34.5 -87.5q0 -53 -34.5 -85.5t-83.5 -32.5z" />
    <glyph glyph-name="cedilla" unicode="&#xb8;" 
d="M504 -485q-51 0 -98.5 14t-77.5 35l16 71q97 -38 152 -38q65 0 90.5 20.5t25.5 60.5v17q0 41 -19.5 58.5t-60.5 17.5q-34 0 -51.5 -8.5t-38.5 -24.5l-61 49l84 213h80l-72 -182l68 35h7q72 0 123.5 -41t51.5 -121q0 -79 -58 -127.5t-161 -48.5z" />
    <glyph glyph-name="uni00B9" unicode="&#xb9;" horiz-adv-x="565" 
d="M100 535v75h117v580h-117v49l168 96h60v-725h112v-75h-340z" />
    <glyph glyph-name="ordmasculine" unicode="&#xba;" horiz-adv-x="893" 
d="M449 422q-162 0 -254.5 129.5t-92.5 337.5q0 213 95 341t252 128q154 0 248 -126.5t94 -336.5q0 -225 -93.5 -349t-248.5 -124zM449 506q120 0 173.5 91t53.5 277v23q0 184 -51.5 278.5t-175.5 94.5q-121 0 -176.5 -88.5t-55.5 -276.5v-22q0 -194 55 -285.5t177 -91.5z
" />
    <glyph glyph-name="guillemotright" unicode="&#xbb;" horiz-adv-x="893" 
d="M397 0l230 305l94 103l-94 100l-230 307h125l271 -352v-111l-269 -352h-127zM74 0l229 305l94 103l-94 100l-229 307h125l270 -352v-111l-268 -352h-127z" />
    <glyph glyph-name="onequarter" unicode="&#xbc;" horiz-adv-x="1632" 
d="M72 532v78h116v578h-116v49l168 96h59v-723h113v-78h-340zM360 0l734 1333h104l-733 -1333h-105zM1321 0v199h-367v55l334 547h142v-520h104v-82h-104v-199h-109zM1067 281h254v288l10 181l-71 -154z" />
    <glyph glyph-name="onehalf" unicode="&#xbd;" horiz-adv-x="1632" 
d="M72 532v78h116v578h-116v49l168 96h59v-723h113v-78h-340zM342 0l733 1333h105l-734 -1333h-104zM1049 0v88q27 90 63.5 139.5t144.5 145.5q70 59 106 101t36 101v17q0 78 -33 105.5t-100 27.5q-54 0 -95 -13.5t-84 -31.5l-20 78q35 20 85 38.5t132 18.5
q125 0 178.5 -64.5t53.5 -156.5q0 -49 -16.5 -89t-44.5 -74t-63.5 -63.5l-76.5 -62.5q-86 -66 -120 -107.5t-52 -123.5l135 14h229v-88h-458z" />
    <glyph glyph-name="threequarters" unicode="&#xbe;" horiz-adv-x="1632" 
d="M313 516q-143 0 -231 55l22 76q50 -20 89.5 -32.5t99.5 -12.5q86 0 128 35t42 113v14q0 84 -43 116.5t-141 32.5h-66v78h49q105 0 143.5 31t38.5 102v9q0 73 -35.5 100t-117.5 27q-53 0 -88 -9.5t-84 -25.5l-15 80q101 43 203 43q131 0 189.5 -58.5t58.5 -150.5
q0 -80 -42 -120t-120 -61q187 -34 187 -213q0 -104 -71 -166.5t-196 -62.5zM438 0l733 1333h105l-733 -1333h-105zM1362 0v199h-367v55l334 547h141v-520h105v-82h-105v-199h-108zM1108 281h254v288l10 181l-72 -154z" />
    <glyph glyph-name="questiondown" unicode="&#xbf;" horiz-adv-x="868" 
d="M516 856q-47 0 -80 32t-33 83q0 49 33 80.5t80 31.5q43 0 77 -31.5t34 -80.5q0 -51 -34 -83t-77 -32zM483 -362q-176 0 -271 89t-95 275q0 176 82.5 263.5t283.5 127.5v316h80l35 -265l2 -35q0 -26 -8 -46.5t-62 -36.5q-151 -44 -198.5 -75t-66.5 -80t-19 -161v-16
q0 -105 23.5 -156t76.5 -72.5t154 -21.5q80 0 145.5 15.5t142.5 43.5l19 -90q-160 -75 -324 -75z" />
    <glyph glyph-name="Agrave" unicode="&#xc0;" horiz-adv-x="1145" 
d="M291 307l-96 -307h-115l426 1333h143l420 -1333h-133l-92 307h-553zM813 406l-182 602l-53 280l-66 -280l-190 -602h491zM641 1624l-215 336h148l145 -336h-78z" />
    <glyph glyph-name="Aacute" unicode="&#xc1;" horiz-adv-x="1145" 
d="M291 307l-96 -307h-115l426 1333h143l420 -1333h-133l-92 307h-553zM813 406l-182 602l-53 280l-66 -280l-190 -602h491zM427 1624l146 336h147l-215 -336h-78z" />
    <glyph glyph-name="Acircumflex" unicode="&#xc2;" horiz-adv-x="1145" 
d="M291 307l-96 -307h-115l426 1333h143l420 -1333h-133l-92 307h-553zM813 406l-182 602l-53 280l-66 -280l-190 -602h491zM312 1624l209 361h100l211 -361h-121l-98 185l-43 123l-43 -123l-109 -185h-106z" />
    <glyph glyph-name="Atilde" unicode="&#xc3;" horiz-adv-x="1145" 
d="M291 307l-96 -307h-115l426 1333h143l420 -1333h-133l-92 307h-553zM813 406l-182 602l-53 280l-66 -280l-190 -602h491zM672 1641q-65 0 -116 67l-43 56l-23 24t-24 8q-58 0 -58 -114v-25h-84q0 121 45 178.5t103 57.5q65 0 116 -68l43 -55q15 -17 24 -25t23 -8
q58 0 58 115v24h84q0 -120 -45 -177.5t-103 -57.5z" />
    <glyph glyph-name="Adieresis" unicode="&#xc4;" horiz-adv-x="1145" 
d="M291 307l-96 -307h-115l426 1333h143l420 -1333h-133l-92 307h-553zM813 406l-182 602l-53 280l-66 -280l-190 -602h491zM734 1633q-37 0 -64.5 26.5t-27.5 67.5t27.5 67.5t64.5 26.5t64.5 -26.5t27.5 -67.5t-27.5 -67.5t-64.5 -26.5zM410 1633q-37 0 -64.5 26.5
t-27.5 67.5t27.5 67.5t64.5 26.5t64.5 -26.5t27.5 -67.5t-27.5 -67.5t-64.5 -26.5z" />
    <glyph glyph-name="Aring" unicode="&#xc5;" horiz-adv-x="1145" 
d="M80 0l405 1272q-49 22 -79.5 73.5t-30.5 129.5q0 108 56 165.5t142 57.5t142.5 -57.5t56.5 -165.5q0 -76 -28.5 -126.5t-75.5 -74.5l401 -1274h-133l-92 307h-553l-96 -307h-115zM573 1333q60 0 83.5 31.5t23.5 110.5q0 90 -28.5 117.5t-78.5 27.5q-49 0 -77.5 -27.5
t-28.5 -117.5q0 -79 23.5 -110.5t82.5 -31.5zM322 406h491l-182 602l-53 280l-66 -280z" />
    <glyph glyph-name="AE" unicode="&#xc6;" horiz-adv-x="1636" 
d="M43 0l729 1333h737v-104h-561v-490h490v-98h-490v-537h596v-104h-723v307h-481l-170 -307h-127zM395 406h426v602l10 284l-94 -231z" />
    <glyph glyph-name="Ccedilla" unicode="&#xc7;" horiz-adv-x="1012" 
d="M524 -23q-204 27 -309.5 203.5t-105.5 489.5q0 331 131.5 509.5t367.5 178.5q101 0 171.5 -18.5t142.5 -47.5l-21 -100l-86 24q-114 33 -223 33q-175 0 -261.5 -143t-86.5 -410v-39q0 -297 84.5 -440t263.5 -143q70 0 129.5 11t187.5 58l35 -96q-78 -35 -155.5 -55.5
t-184.5 -20.5h-2l-59 -153l67 35h7q73 0 124.5 -41t51.5 -121t-58.5 -128t-161.5 -48q-51 0 -98 14t-78 35l17 71q97 -38 151 -38q66 0 91.5 20.5t25.5 60.5v17q0 41 -19.5 58.5t-60.5 17.5q-35 0 -52.5 -8.5t-37.5 -24.5l-61 49z" />
    <glyph glyph-name="Egrave" unicode="&#xc8;" horiz-adv-x="999" 
d="M184 0v1333h688v-104h-561v-490h490v-98h-490v-537h596v-104h-723zM568 1624l-215 336h148l145 -336h-78z" />
    <glyph glyph-name="Eacute" unicode="&#xc9;" horiz-adv-x="999" 
d="M184 0v1333h688v-104h-561v-490h490v-98h-490v-537h596v-104h-723zM354 1624l146 336h147l-215 -336h-78z" />
    <glyph glyph-name="Ecircumflex" unicode="&#xca;" horiz-adv-x="999" 
d="M184 0v1333h688v-104h-561v-490h490v-98h-490v-537h596v-104h-723zM241 1624l209 361h100l211 -361h-121l-98 185l-43 123l-43 -123l-109 -185h-106z" />
    <glyph glyph-name="Edieresis" unicode="&#xcb;" horiz-adv-x="999" 
d="M184 0v1333h688v-104h-561v-490h490v-98h-490v-537h596v-104h-723zM663 1633q-37 0 -64.5 26.5t-27.5 67.5t27.5 67.5t64.5 26.5t64.5 -26.5t27.5 -67.5t-27.5 -67.5t-64.5 -26.5zM339 1633q-37 0 -64.5 26.5t-27.5 67.5t27.5 67.5t64.5 26.5t64.5 -26.5t27.5 -67.5
t-27.5 -67.5t-64.5 -26.5z" />
    <glyph glyph-name="Igrave" unicode="&#xcc;" horiz-adv-x="516" 
d="M195 0v1333h127v-1333h-127zM328 1624l-215 336h148l145 -336h-78z" />
    <glyph glyph-name="Iacute" unicode="&#xcd;" horiz-adv-x="516" 
d="M195 0v1333h127v-1333h-127zM113 1624l146 336h147l-215 -336h-78z" />
    <glyph glyph-name="Icircumflex" unicode="&#xce;" horiz-adv-x="516" 
d="M195 0v1333h127v-1333h-127zM-1 1624l209 361h100l211 -361h-121l-98 185l-43 123l-43 -123l-109 -185h-106z" />
    <glyph glyph-name="Idieresis" unicode="&#xcf;" horiz-adv-x="516" 
d="M195 0v1333h127v-1333h-127zM421 1633q-37 0 -64.5 26.5t-27.5 67.5t27.5 67.5t64.5 26.5t64.5 -26.5t27.5 -67.5t-27.5 -67.5t-64.5 -26.5zM97 1633q-37 0 -64.5 26.5t-27.5 67.5t27.5 67.5t64.5 26.5t64.5 -26.5t27.5 -67.5t-27.5 -67.5t-64.5 -26.5z" />
    <glyph glyph-name="Eth" unicode="&#xd0;" horiz-adv-x="1208" 
d="M205 610h-162v107h162v616h340q280 0 417.5 -170t137.5 -493q0 -344 -138.5 -507t-435.5 -163h-321v610zM332 717h278v-107h-278v-512h180q181 0 273 53t135 173t43 331v37q0 200 -44 315t-139.5 167.5t-271.5 52.5h-176v-510z" />
    <glyph glyph-name="Ntilde" unicode="&#xd1;" horiz-adv-x="1210" 
d="M184 0v1333h146l475 -913l131 -350l-29 391v872h119v-1333h-139l-498 954l-113 318l27 -348v-924h-119zM705 1641q-65 0 -116 67l-43 56l-23 24t-24 8q-58 0 -58 -114v-25h-84q0 121 45 178.5t103 57.5q65 0 116 -68l43 -55q15 -17 24 -25t23 -8q58 0 58 115v24h84
q0 -120 -45 -177.5t-103 -57.5z" />
    <glyph glyph-name="Ograve" unicode="&#xd2;" horiz-adv-x="1210" 
d="M602 -29q-234 0 -363.5 179t-129.5 520q0 327 131.5 507.5t365.5 180.5q236 0 366 -181.5t130 -502.5q0 -338 -122 -520.5t-378 -182.5zM606 70q186 0 274.5 144.5t88.5 449.5v41q0 284 -91.5 414t-273.5 130q-180 0 -271 -134t-91 -419v-39q0 -300 87 -443.5t277 -143.5
zM673 1624l-215 336h148l145 -336h-78z" />
    <glyph glyph-name="Oacute" unicode="&#xd3;" horiz-adv-x="1210" 
d="M602 -29q-234 0 -363.5 179t-129.5 520q0 327 131.5 507.5t365.5 180.5q236 0 366 -181.5t130 -502.5q0 -338 -122 -520.5t-378 -182.5zM606 70q186 0 274.5 144.5t88.5 449.5v41q0 284 -91.5 414t-273.5 130q-180 0 -271 -134t-91 -419v-39q0 -300 87 -443.5t277 -143.5
zM460 1624l146 336h147l-215 -336h-78z" />
    <glyph glyph-name="Ocircumflex" unicode="&#xd4;" horiz-adv-x="1210" 
d="M602 -29q-234 0 -363.5 179t-129.5 520q0 327 131.5 507.5t365.5 180.5q236 0 366 -181.5t130 -502.5q0 -338 -122 -520.5t-378 -182.5zM606 70q186 0 274.5 144.5t88.5 449.5v41q0 284 -91.5 414t-273.5 130q-180 0 -271 -134t-91 -419v-39q0 -300 87 -443.5t277 -143.5
zM345 1624l209 361h100l211 -361h-121l-98 185l-43 123l-43 -123l-109 -185h-106z" />
    <glyph glyph-name="Otilde" unicode="&#xd5;" horiz-adv-x="1210" 
d="M602 -29q-234 0 -363.5 179t-129.5 520q0 327 131.5 507.5t365.5 180.5q236 0 366 -181.5t130 -502.5q0 -338 -122 -520.5t-378 -182.5zM606 70q186 0 274.5 144.5t88.5 449.5v41q0 284 -91.5 414t-273.5 130q-180 0 -271 -134t-91 -419v-39q0 -300 87 -443.5t277 -143.5
zM705 1641q-65 0 -116 67l-43 56l-23 24t-24 8q-58 0 -58 -114v-25h-84q0 121 45 178.5t103 57.5q65 0 116 -68l43 -55q15 -17 24 -25t23 -8q58 0 58 115v24h84q0 -120 -45 -177.5t-103 -57.5z" />
    <glyph glyph-name="Odieresis" unicode="&#xd6;" horiz-adv-x="1210" 
d="M602 -29q-234 0 -363.5 179t-129.5 520q0 327 131.5 507.5t365.5 180.5q236 0 366 -181.5t130 -502.5q0 -338 -122 -520.5t-378 -182.5zM606 70q186 0 274.5 144.5t88.5 449.5v41q0 284 -91.5 414t-273.5 130q-180 0 -271 -134t-91 -419v-39q0 -300 87 -443.5t277 -143.5
zM767 1633q-37 0 -64.5 26.5t-27.5 67.5t27.5 67.5t64.5 26.5t64.5 -26.5t27.5 -67.5t-27.5 -67.5t-64.5 -26.5zM443 1633q-37 0 -64.5 26.5t-27.5 67.5t27.5 67.5t64.5 26.5t64.5 -26.5t27.5 -67.5t-27.5 -67.5t-64.5 -26.5z" />
    <glyph glyph-name="multiply" unicode="&#xd7;" horiz-adv-x="1004" 
d="M575 612l279 -284l-78 -76l-274 283l-277 -283l-75 76l276 284l-276 285l75 76l275 -283l276 283l78 -76z" />
    <glyph glyph-name="Oslash" unicode="&#xd8;" horiz-adv-x="1210" 
d="M954 1200q148 -180 148 -526q0 -338 -122 -520.5t-378 -182.5q-160 0 -270 82l-125 -227l-82 47l135 248q-151 178 -151 549q0 327 131.5 507.5t365.5 180.5q166 0 279 -90l119 219l81 -45zM315 223l521 957q-84 73 -232 73q-366 0 -366 -557v-39q0 -292 77 -434z
M899 1100l-520 -959q84 -75 227 -75q176 0 271.5 139t95.5 459v41q0 266 -74 395z" />
    <glyph glyph-name="Ugrave" unicode="&#xd9;" horiz-adv-x="1184" 
d="M872 168v1165h127v-1333h-61l-51 123l-76 -96q-122 -56 -258 -56q-200 0 -289.5 118t-89.5 407v837h127v-884q0 -151 24 -232t76.5 -114t167.5 -33q107 0 176.5 30.5t126.5 67.5zM660 1624l-215 336h148l145 -336h-78z" />
    <glyph glyph-name="Uacute" unicode="&#xda;" horiz-adv-x="1184" 
d="M872 168v1165h127v-1333h-61l-51 123l-76 -96q-122 -56 -258 -56q-200 0 -289.5 118t-89.5 407v837h127v-884q0 -151 24 -232t76.5 -114t167.5 -33q107 0 176.5 30.5t126.5 67.5zM447 1624l146 336h147l-215 -336h-78z" />
    <glyph glyph-name="Ucircumflex" unicode="&#xdb;" horiz-adv-x="1184" 
d="M872 168v1165h127v-1333h-61l-51 123l-76 -96q-122 -56 -258 -56q-200 0 -289.5 118t-89.5 407v837h127v-884q0 -151 24 -232t76.5 -114t167.5 -33q107 0 176.5 30.5t126.5 67.5zM332 1624l209 361h100l211 -361h-121l-98 185l-43 123l-43 -123l-109 -185h-106z" />
    <glyph glyph-name="Udieresis" unicode="&#xdc;" horiz-adv-x="1184" 
d="M872 168v1165h127v-1333h-61l-51 123l-76 -96q-122 -56 -258 -56q-200 0 -289.5 118t-89.5 407v837h127v-884q0 -151 24 -232t76.5 -114t167.5 -33q107 0 176.5 30.5t126.5 67.5zM754 1633q-37 0 -64.5 26.5t-27.5 67.5t27.5 67.5t64.5 26.5t64.5 -26.5t27.5 -67.5
t-27.5 -67.5t-64.5 -26.5zM430 1633q-37 0 -64.5 26.5t-27.5 67.5t27.5 67.5t64.5 26.5t64.5 -26.5t27.5 -67.5t-27.5 -67.5t-64.5 -26.5z" />
    <glyph glyph-name="Yacute" unicode="&#xdd;" horiz-adv-x="1038" 
d="M467 0v473l-406 860h138l270 -600l61 -229l66 229l262 600h119l-383 -852v-481h-127zM374 1624l146 336h147l-215 -336h-78z" />
    <glyph glyph-name="Thorn" unicode="&#xde;" horiz-adv-x="1063" 
d="M184 0v1333h127v-231h262q199 0 304.5 -106t105.5 -294q0 -191 -107 -298t-303 -107h-262v-297h-127zM311 389h248q158 0 222.5 71.5t64.5 235.5v17q0 157 -65.5 220.5t-225.5 63.5h-244v-608z" />
    <glyph glyph-name="germandbls" unicode="&#xdf;" horiz-adv-x="1104" 
d="M713 -29q-152 0 -262 64l18 94q53 -23 109.5 -43t132.5 -20q98 0 144 44t46 148q0 68 -13.5 104.5t-48.5 60.5t-139 56q-43 15 -86 33t-76.5 50t-54 83t-20.5 131q0 173 147 246l115 10v62q0 135 -19 190t-63.5 78.5t-130.5 23.5q-88 0 -137.5 -34.5t-70.5 -109
t-21 -226.5v-1016h-115v981q0 252 80 378t266 126q113 0 182.5 -44t102 -130t32.5 -240v-82l-88 -18q-83 -19 -113.5 -40.5t-44.5 -58t-14 -92.5q0 -53 11.5 -84.5t34 -51t56.5 -33l77 -29.5l93 -36.5t86 -53t62.5 -89t24.5 -143.5q0 -137 -80 -213t-223 -76z" />
    <glyph glyph-name="agrave" unicode="&#xe0;" horiz-adv-x="965" 
d="M670 614v125q0 130 -48.5 186t-148.5 56q-78 0 -151.5 -18.5t-151.5 -44.5l-18 94q77 30 151 50.5t168 20.5q166 0 239.5 -93t73.5 -292v-546q0 -48 17.5 -65t58.5 -17h35l4 -72q-36 -18 -84 -18q-41 0 -76 14l-65 112l-99 -106q-68 -29 -161 -29q-156 0 -236 79t-80 229
q0 157 91.5 230t279.5 89zM670 182v353l-193 -19q-137 -14 -198.5 -63.5t-61.5 -169.5v-15q0 -108 50 -154t161 -46q92 0 148.5 34.5t93.5 79.5zM551 1214l-215 336h148l145 -336h-78z" />
    <glyph glyph-name="aacute" unicode="&#xe1;" horiz-adv-x="965" 
d="M670 614v125q0 130 -48.5 186t-148.5 56q-78 0 -151.5 -18.5t-151.5 -44.5l-18 94q77 30 151 50.5t168 20.5q166 0 239.5 -93t73.5 -292v-546q0 -48 17.5 -65t58.5 -17h35l4 -72q-36 -18 -84 -18q-41 0 -76 14l-65 112l-99 -106q-68 -29 -161 -29q-156 0 -236 79t-80 229
q0 157 91.5 230t279.5 89zM670 182v353l-193 -19q-137 -14 -198.5 -63.5t-61.5 -169.5v-15q0 -108 50 -154t161 -46q92 0 148.5 34.5t93.5 79.5zM337 1214l146 336h147l-215 -336h-78z" />
    <glyph glyph-name="acircumflex" unicode="&#xe2;" horiz-adv-x="965" 
d="M670 614v125q0 130 -48.5 186t-148.5 56q-78 0 -151.5 -18.5t-151.5 -44.5l-18 94q77 30 151 50.5t168 20.5q166 0 239.5 -93t73.5 -292v-546q0 -48 17.5 -65t58.5 -17h35l4 -72q-36 -18 -84 -18q-41 0 -76 14l-65 112l-99 -106q-68 -29 -161 -29q-156 0 -236 79t-80 229
q0 157 91.5 230t279.5 89zM670 182v353l-193 -19q-137 -14 -198.5 -63.5t-61.5 -169.5v-15q0 -108 50 -154t161 -46q92 0 148.5 34.5t93.5 79.5zM224 1214l209 361h100l211 -361h-121l-98 185l-43 123l-43 -123l-109 -185h-106z" />
    <glyph glyph-name="atilde" unicode="&#xe3;" horiz-adv-x="965" 
d="M670 614v125q0 130 -48.5 186t-148.5 56q-78 0 -151.5 -18.5t-151.5 -44.5l-18 94q77 30 151 50.5t168 20.5q166 0 239.5 -93t73.5 -292v-546q0 -48 17.5 -65t58.5 -17h35l4 -72q-36 -18 -84 -18q-41 0 -76 14l-65 112l-99 -106q-68 -29 -161 -29q-156 0 -236 79t-80 229
q0 157 91.5 230t279.5 89zM670 182v353l-193 -19q-137 -14 -198.5 -63.5t-61.5 -169.5v-15q0 -108 50 -154t161 -46q92 0 148.5 34.5t93.5 79.5zM584 1231q-65 0 -116 67l-43 56l-23 24t-24 8q-58 0 -58 -114v-25h-84q0 121 45 178.5t103 57.5q65 0 116 -68l43 -55
q15 -17 24 -25t23 -8q58 0 58 115v24h84q0 -120 -45 -177.5t-103 -57.5z" />
    <glyph glyph-name="adieresis" unicode="&#xe4;" horiz-adv-x="965" 
d="M670 614v125q0 130 -48.5 186t-148.5 56q-78 0 -151.5 -18.5t-151.5 -44.5l-18 94q77 30 151 50.5t168 20.5q166 0 239.5 -93t73.5 -292v-546q0 -48 17.5 -65t58.5 -17h35l4 -72q-36 -18 -84 -18q-41 0 -76 14l-65 112l-99 -106q-68 -29 -161 -29q-156 0 -236 79t-80 229
q0 157 91.5 230t279.5 89zM670 182v353l-193 -19q-137 -14 -198.5 -63.5t-61.5 -169.5v-15q0 -108 50 -154t161 -46q92 0 148.5 34.5t93.5 79.5zM646 1223q-37 0 -64.5 26.5t-27.5 67.5t27.5 67.5t64.5 26.5t64.5 -26.5t27.5 -67.5t-27.5 -67.5t-64.5 -26.5zM322 1223
q-37 0 -64.5 26.5t-27.5 67.5t27.5 67.5t64.5 26.5t64.5 -26.5t27.5 -67.5t-27.5 -67.5t-64.5 -26.5z" />
    <glyph glyph-name="aring" unicode="&#xe5;" horiz-adv-x="965" 
d="M670 614v125q0 130 -48.5 186t-148.5 56q-78 0 -151.5 -18.5t-151.5 -44.5l-18 94q77 30 151 50.5t168 20.5q166 0 239.5 -93t73.5 -292v-546q0 -48 17.5 -65t58.5 -17h35l4 -72q-36 -18 -84 -18q-41 0 -76 14l-65 112l-99 -106q-68 -29 -161 -29q-156 0 -236 79t-80 229
q0 157 91.5 230t279.5 89zM670 182v353l-193 -19q-137 -14 -198.5 -63.5t-61.5 -169.5v-15q0 -108 50 -154t161 -46q92 0 148.5 34.5t93.5 79.5zM484 1210q-86 0 -142.5 56.5t-56.5 165.5q0 108 56.5 165.5t142.5 57.5t142.5 -57.5t56.5 -165.5q0 -109 -56.5 -165.5
t-142.5 -56.5zM484 1290q60 0 83 32t23 110q0 90 -28.5 117.5t-77.5 27.5t-77.5 -27.5t-28.5 -117.5q0 -79 23.5 -110.5t82.5 -31.5z" />
    <glyph glyph-name="ae" unicode="&#xe6;" horiz-adv-x="1516" 
d="M414 -29q-156 0 -236 79t-80 229q0 157 91.5 230t279.5 89l201 16v125q0 130 -48.5 186t-148.5 56q-78 0 -152.5 -18.5t-152.5 -44.5l-16 94q77 30 151 50.5t168 20.5q115 0 184.5 -49t94.5 -166q79 215 317 215q180 0 270 -132t90 -353v-94h-639q0 -231 70 -333.5
t229 -102.5q70 0 135.5 20.5t141.5 54.5l20 -92q-47 -26 -130 -53t-175 -27q-241 0 -342 197l-162 -168q-68 -29 -161 -29zM788 590h519v31q0 200 -60.5 283t-179.5 83q-146 0 -210 -97t-69 -300zM428 68q57 0 99 14t75 37.5t58.5 51.5l50.5 56q-45 121 -45 308l-189 -19
q-139 -14 -199.5 -63.5t-60.5 -169.5v-15q0 -108 50 -154t161 -46z" />
    <glyph glyph-name="ccedilla" unicode="&#xe7;" horiz-adv-x="850" 
d="M430 -25q-328 47 -328 560q0 284 99.5 416t292.5 132q137 0 276 -59l-20 -94q-78 24 -133.5 38.5t-114.5 14.5q-107 0 -164 -43t-85 -137t-28 -250v-27q0 -243 65 -350.5t212 -107.5q55 0 104.5 14t143.5 59l30 -88q-126 -75 -270 -82l-61 -153l67 35h7q73 0 124 -41
t51 -121q0 -81 -58.5 -128.5t-160.5 -47.5q-51 0 -98 14t-78 35l16 71q97 -38 152 -38q66 0 91.5 20.5t25.5 60.5v17q0 41 -19.5 58.5t-60.5 17.5q-35 0 -52.5 -8.5t-37.5 -24.5l-62 49z" />
    <glyph glyph-name="egrave" unicode="&#xe8;" horiz-adv-x="971" 
d="M225 498q0 -218 68 -324t231 -106q70 0 133.5 19t137.5 54l26 -90q-47 -26 -130 -53t-175 -27q-414 0 -414 559q0 265 101.5 409t300.5 144q180 0 270 -132t90 -353v-100h-639zM225 594h518v27q0 200 -60 283t-179 83q-143 0 -208 -93t-71 -300zM554 1214l-215 336h148
l145 -336h-78z" />
    <glyph glyph-name="eacute" unicode="&#xe9;" horiz-adv-x="971" 
d="M225 498q0 -218 68 -324t231 -106q70 0 133.5 19t137.5 54l26 -90q-47 -26 -130 -53t-175 -27q-414 0 -414 559q0 265 101.5 409t300.5 144q180 0 270 -132t90 -353v-100h-639zM225 594h518v27q0 200 -60 283t-179 83q-143 0 -208 -93t-71 -300zM340 1214l146 336h147
l-215 -336h-78z" />
    <glyph glyph-name="ecircumflex" unicode="&#xea;" horiz-adv-x="971" 
d="M225 498q0 -218 68 -324t231 -106q70 0 133.5 19t137.5 54l26 -90q-47 -26 -130 -53t-175 -27q-414 0 -414 559q0 265 101.5 409t300.5 144q180 0 270 -132t90 -353v-100h-639zM225 594h518v27q0 200 -60 283t-179 83q-143 0 -208 -93t-71 -300zM227 1214l209 361h100
l211 -361h-121l-98 185l-43 123l-43 -123l-109 -185h-106z" />
    <glyph glyph-name="edieresis" unicode="&#xeb;" horiz-adv-x="971" 
d="M225 498q0 -218 68 -324t231 -106q70 0 133.5 19t137.5 54l26 -90q-47 -26 -130 -53t-175 -27q-414 0 -414 559q0 265 101.5 409t300.5 144q180 0 270 -132t90 -353v-100h-639zM225 594h518v27q0 200 -60 283t-179 83q-143 0 -208 -93t-71 -300zM649 1223
q-37 0 -64.5 26.5t-27.5 67.5t27.5 67.5t64.5 26.5t64.5 -26.5t27.5 -67.5t-27.5 -67.5t-64.5 -26.5zM325 1223q-37 0 -64.5 26.5t-27.5 67.5t27.5 67.5t64.5 26.5t64.5 -26.5t27.5 -67.5t-27.5 -67.5t-64.5 -26.5z" />
    <glyph glyph-name="igrave" unicode="&#xec;" horiz-adv-x="467" 
d="M174 0v1063h117v-1063h-117zM303 1214l-215 336h148l145 -336h-78z" />
    <glyph glyph-name="iacute" unicode="&#xed;" horiz-adv-x="467" 
d="M174 0v1063h117v-1063h-117zM88 1214l146 336h147l-215 -336h-78z" />
    <glyph glyph-name="icircumflex" unicode="&#xee;" horiz-adv-x="467" 
d="M174 0v1063h117v-1063h-117zM-25 1214l209 361h100l211 -361h-121l-98 185l-43 123l-43 -123l-109 -185h-106z" />
    <glyph glyph-name="idieresis" unicode="&#xef;" horiz-adv-x="467" 
d="M174 0v1063h117v-1063h-117zM397 1223q-37 0 -64.5 26.5t-27.5 67.5t27.5 67.5t64.5 26.5t64.5 -26.5t27.5 -67.5t-27.5 -67.5t-64.5 -26.5zM73 1223q-37 0 -64.5 26.5t-27.5 67.5t27.5 67.5t64.5 26.5t64.5 -26.5t27.5 -67.5t-27.5 -67.5t-64.5 -26.5z" />
    <glyph glyph-name="eth" unicode="&#xf0;" horiz-adv-x="1016" 
d="M612 1237l-194 -104l-37 69l184 101q-42 60 -139 167h115q63 -57 112 -120l172 94l37 -70l-162 -88q112 -164 162.5 -340.5t50.5 -367.5q0 -607 -403 -607q-196 0 -302 141.5t-106 395.5q0 248 104.5 390t303.5 142q55 0 102 -14l144 -117q-39 167 -144 328zM510 944
q-155 0 -220 -102.5t-65 -313.5v-26q0 -226 68 -331t217 -105q114 0 169.5 49t83.5 156t28 284v27q0 149 -21 258q-53 47 -110.5 75.5t-149.5 28.5z" />
    <glyph glyph-name="ntilde" unicode="&#xf1;" horiz-adv-x="1028" 
d="M281 932l92 102q101 49 209 49q286 0 286 -329v-754h-116v778q0 119 -52.5 163t-134.5 44q-92 0 -153.5 -28.5t-126.5 -77.5v-879h-117v1063h57zM614 1231q-65 0 -116 67l-43 56l-23 24t-24 8q-58 0 -58 -114v-25h-84q0 121 45 178.5t103 57.5q65 0 116 -68l43 -55
q15 -17 24 -25t23 -8q58 0 58 115v24h84q0 -120 -45 -177.5t-103 -57.5z" />
    <glyph glyph-name="ograve" unicode="&#xf2;" horiz-adv-x="1016" 
d="M510 -29q-193 0 -300.5 149.5t-107.5 407.5q0 253 106 404t302 151q191 0 297 -147t106 -401q0 -279 -109.5 -421.5t-293.5 -142.5zM510 66q135 0 208 110.5t73 335.5v27q0 230 -67.5 338t-213.5 108q-149 0 -217 -109t-68 -327v-27q0 -224 72.5 -340t212.5 -116z
M576 1214l-215 336h148l145 -336h-78z" />
    <glyph glyph-name="oacute" unicode="&#xf3;" horiz-adv-x="1016" 
d="M510 -29q-193 0 -300.5 149.5t-107.5 407.5q0 253 106 404t302 151q191 0 297 -147t106 -401q0 -279 -109.5 -421.5t-293.5 -142.5zM510 66q135 0 208 110.5t73 335.5v27q0 230 -67.5 338t-213.5 108q-149 0 -217 -109t-68 -327v-27q0 -224 72.5 -340t212.5 -116z
M363 1214l146 336h147l-215 -336h-78z" />
    <glyph glyph-name="ocircumflex" unicode="&#xf4;" horiz-adv-x="1016" 
d="M510 -29q-193 0 -300.5 149.5t-107.5 407.5q0 253 106 404t302 151q191 0 297 -147t106 -401q0 -279 -109.5 -421.5t-293.5 -142.5zM510 66q135 0 208 110.5t73 335.5v27q0 230 -67.5 338t-213.5 108q-149 0 -217 -109t-68 -327v-27q0 -224 72.5 -340t212.5 -116z
M249 1214l209 361h100l211 -361h-121l-98 185l-43 123l-43 -123l-109 -185h-106z" />
    <glyph glyph-name="otilde" unicode="&#xf5;" horiz-adv-x="1016" 
d="M510 -29q-193 0 -300.5 149.5t-107.5 407.5q0 253 106 404t302 151q191 0 297 -147t106 -401q0 -279 -109.5 -421.5t-293.5 -142.5zM510 66q135 0 208 110.5t73 335.5v27q0 230 -67.5 338t-213.5 108q-149 0 -217 -109t-68 -327v-27q0 -224 72.5 -340t212.5 -116z
M609 1231q-65 0 -116 67l-43 56l-23 24t-24 8q-58 0 -58 -114v-25h-84q0 121 45 178.5t103 57.5q65 0 116 -68l43 -55q15 -17 24 -25t23 -8q58 0 58 115v24h84q0 -120 -45 -177.5t-103 -57.5z" />
    <glyph glyph-name="odieresis" unicode="&#xf6;" horiz-adv-x="1016" 
d="M510 -29q-193 0 -300.5 149.5t-107.5 407.5q0 253 106 404t302 151q191 0 297 -147t106 -401q0 -279 -109.5 -421.5t-293.5 -142.5zM510 66q135 0 208 110.5t73 335.5v27q0 230 -67.5 338t-213.5 108q-149 0 -217 -109t-68 -327v-27q0 -224 72.5 -340t212.5 -116z
M671 1223q-37 0 -64.5 26.5t-27.5 67.5t27.5 67.5t64.5 26.5t64.5 -26.5t27.5 -67.5t-27.5 -67.5t-64.5 -26.5zM347 1223q-37 0 -64.5 26.5t-27.5 67.5t27.5 67.5t64.5 26.5t64.5 -26.5t27.5 -67.5t-27.5 -67.5t-64.5 -26.5z" />
    <glyph glyph-name="divide" unicode="&#xf7;" horiz-adv-x="1536" 
d="M208 684v212h1120v-212h-1120zM768 228q-64 0 -112 48t-48 112t42 112t118 48q72 0 116 -48t44 -112t-48 -112t-112 -48zM768 1028q-64 0 -112 48t-48 112t42 112t118 48q72 0 116 -48t44 -112t-48 -112t-112 -48z" />
    <glyph glyph-name="oslash" unicode="&#xf8;" horiz-adv-x="1016" 
d="M793 952q120 -145 120 -417q0 -279 -109.5 -421.5t-293.5 -142.5q-127 0 -219 68l-115 -211l-78 45l125 229q-121 153 -121 426q0 253 106 404t302 151q125 0 217 -67l113 205l78 -43zM272 190l412 748q-61 49 -174 49q-147 0 -218 -107t-71 -331v-27q0 -229 51 -332z
M743 862l-411 -749q60 -50 178 -50q285 0 285 449v27q0 221 -52 323z" />
    <glyph glyph-name="ugrave" unicode="&#xf9;" horiz-adv-x="1020" 
d="M735 178v885h117v-1063h-57l-56 123l-86 -98q-85 -45 -211 -45q-144 0 -213 85t-69 244v754h116v-778q0 -121 51.5 -167t131.5 -46q92 0 154.5 27.5t121.5 78.5zM578 1214l-215 336h148l145 -336h-78z" />
    <glyph glyph-name="uacute" unicode="&#xfa;" horiz-adv-x="1020" 
d="M735 178v885h117v-1063h-57l-56 123l-86 -98q-85 -45 -211 -45q-144 0 -213 85t-69 244v754h116v-778q0 -121 51.5 -167t131.5 -46q92 0 154.5 27.5t121.5 78.5zM365 1214l146 336h147l-215 -336h-78z" />
    <glyph glyph-name="ucircumflex" unicode="&#xfb;" horiz-adv-x="1020" 
d="M735 178v885h117v-1063h-57l-56 123l-86 -98q-85 -45 -211 -45q-144 0 -213 85t-69 244v754h116v-778q0 -121 51.5 -167t131.5 -46q92 0 154.5 27.5t121.5 78.5zM251 1214l209 361h100l211 -361h-121l-98 185l-43 123l-43 -123l-109 -185h-106z" />
    <glyph glyph-name="udieresis" unicode="&#xfc;" horiz-adv-x="1020" 
d="M735 178v885h117v-1063h-57l-56 123l-86 -98q-85 -45 -211 -45q-144 0 -213 85t-69 244v754h116v-778q0 -121 51.5 -167t131.5 -46q92 0 154.5 27.5t121.5 78.5zM673 1223q-37 0 -64.5 26.5t-27.5 67.5t27.5 67.5t64.5 26.5t64.5 -26.5t27.5 -67.5t-27.5 -67.5
t-64.5 -26.5zM349 1223q-37 0 -64.5 26.5t-27.5 67.5t27.5 67.5t64.5 26.5t64.5 -26.5t27.5 -67.5t-27.5 -67.5t-64.5 -26.5z" />
    <glyph glyph-name="yacute" unicode="&#xfd;" horiz-adv-x="897" 
d="M283 -332l104 357l-336 1038h121l225 -721l52 -274l55 274l225 721h117l-447 -1395h-116zM303 1214l146 336h147l-215 -336h-78z" />
    <glyph glyph-name="thorn" unicode="&#xfe;" horiz-adv-x="1028" 
d="M285 92v-424h-117v1802h117v-512q45 46 112.5 85.5t165.5 39.5q168 0 265.5 -130t97.5 -410q0 -572 -385 -572q-74 0 -152 27zM285 868v-712q120 -93 241 -93q153 0 216 108t63 353v29q0 226 -61 329t-193 103q-155 0 -266 -117z" />
    <glyph glyph-name="ydieresis" unicode="&#xff;" horiz-adv-x="897" 
d="M283 -332l104 357l-336 1038h121l225 -721l52 -274l55 274l225 721h117l-447 -1395h-116zM612 1223q-37 0 -64.5 26.5t-27.5 67.5t27.5 67.5t64.5 26.5t64.5 -26.5t27.5 -67.5t-27.5 -67.5t-64.5 -26.5zM288 1223q-37 0 -64.5 26.5t-27.5 67.5t27.5 67.5t64.5 26.5
t64.5 -26.5t27.5 -67.5t-27.5 -67.5t-64.5 -26.5z" />
    <glyph glyph-name="dotlessi" unicode="&#x131;" horiz-adv-x="467" 
d="M174 0v1063h117v-1063h-117z" />
    <glyph glyph-name="Lslash" unicode="&#x141;" horiz-adv-x="981" 
d="M215 578l-154 -74v108l154 74v647h127v-585l315 151v-108l-315 -152v-535h565v-104h-692v578z" />
    <glyph glyph-name="lslash" unicode="&#x142;" horiz-adv-x="616" 
d="M248 649l-166 -90v107l166 90v714h119v-649l168 90v-106l-168 -92v-713h-119v649z" />
    <glyph glyph-name="OE" unicode="&#x152;" horiz-adv-x="1640" 
d="M682 0q-297 0 -435 163t-138 507q0 323 137 493t418 170h849v-104h-550v-490h479v-98h-479v-537h585v-104h-866zM696 98h140v1129h-136q-176 0 -271.5 -53t-139 -167.5t-43.5 -314.5v-37q0 -210 42 -329.5t134 -173.5t274 -54z" />
    <glyph glyph-name="oe" unicode="&#x153;" horiz-adv-x="1634" 
d="M905 504q0 -152 31 -248t94 -142t174 -46q70 0 135.5 20.5t141.5 54.5l20 -92q-47 -26 -130 -53t-175 -27q-135 0 -228.5 66.5t-123.5 208.5q-73 -275 -334 -275q-193 0 -300.5 149.5t-107.5 407.5q0 253 106 404t302 151q119 0 209 -65.5t125 -210.5q28 143 121.5 209.5
t218.5 66.5q180 0 270 -132t90 -353v-94h-639zM905 590h518v31q0 200 -60 283t-179 83q-147 0 -211.5 -98t-67.5 -299zM510 66q281 0 281 446v27q0 230 -67.5 338t-213.5 108q-149 0 -217 -109t-68 -327v-27q0 -233 71.5 -344.5t213.5 -111.5z" />
    <glyph glyph-name="Scaron" unicode="&#x160;" horiz-adv-x="993" 
d="M498 -29q-148 0 -237 29t-150 66l26 92q84 -39 160 -62.5t174 -23.5q111 0 170 27t88 85.5t29 153.5q0 115 -52 172t-208 106q-166 52 -238 100t-104.5 117.5t-32.5 176.5q0 174 100.5 261t278.5 87q119 0 193.5 -19.5t138.5 -48.5l-25 -98q-110 37 -175 47t-145 10
q-124 0 -184.5 -50t-60.5 -181q0 -88 21 -130t73 -73t174 -70q155 -51 229 -102t110 -123.5t36 -177.5q0 -184 -106.5 -277.5t-282.5 -93.5zM449 1624l-211 361h121l98 -184l43 -123l43 123l109 184h106l-209 -361h-100z" />
    <glyph glyph-name="scaron" unicode="&#x161;" horiz-adv-x="805" 
d="M387 -29q-173 0 -295 68l21 92q138 -65 272 -65q98 0 157.5 45t59.5 157q0 72 -17 108t-61.5 61.5t-167.5 62.5q-142 39 -202 108t-60 185q0 145 86 217.5t230 72.5q161 0 272 -59l-20 -88q-60 20 -113 34.5t-141 14.5q-97 0 -149 -38t-52 -150q0 -52 12 -83.5t39 -53
t69 -36t101 -32.5q130 -41 183 -80.5t79.5 -98t26.5 -143.5q0 -140 -89 -219.5t-241 -79.5zM355 1214l-211 361h121l98 -184l43 -123l43 123l109 184h106l-209 -361h-100z" />
    <glyph glyph-name="Ydieresis" unicode="&#x178;" horiz-adv-x="1038" 
d="M467 0v473l-406 860h138l270 -600l61 -229l66 229l262 600h119l-383 -852v-481h-127zM681 1633q-37 0 -64.5 26.5t-27.5 67.5t27.5 67.5t64.5 26.5t64.5 -26.5t27.5 -67.5t-27.5 -67.5t-64.5 -26.5zM357 1633q-37 0 -64.5 26.5t-27.5 67.5t27.5 67.5t64.5 26.5
t64.5 -26.5t27.5 -67.5t-27.5 -67.5t-64.5 -26.5z" />
    <glyph glyph-name="Zcaron" unicode="&#x17d;" horiz-adv-x="1004" 
d="M102 0v137l627 1004l80 98l-156 -10h-522v104h762v-145l-619 -989l-98 -115l176 20h543v-104h-793zM454 1624l-211 361h121l98 -184l43 -123l43 123l109 184h106l-209 -361h-100z" />
    <glyph glyph-name="zcaron" unicode="&#x17e;" horiz-adv-x="834" 
d="M78 0v113l512 772l67 86l-159 -13h-389v105h647v-121l-514 -778l-76 -86l166 20h424v-98h-678zM369 1214l-211 361h121l98 -184l43 -123l43 123l109 184h106l-209 -361h-100z" />
    <glyph glyph-name="florin" unicode="&#x192;" horiz-adv-x="717" 
d="M41 -362q-63 0 -139 45l16 61h111q39 0 53 15.5t22 58.5l177 1001h-164v101h182l57 323q43 242 230 242q59 0 102 -14.5t78 -30.5l-16 -62h-160q-58 0 -80.5 -23.5t-32.5 -76.5l-63 -358h207v-101h-226l-176 -999q-18 -103 -64 -142.5t-114 -39.5z" />
    <glyph glyph-name="circumflex" unicode="&#x2c6;" 
d="M252 1214l209 361h100l211 -361h-121l-98 185l-43 123l-43 -123l-109 -185h-106z" />
    <glyph glyph-name="caron" unicode="&#x2c7;" 
d="M463 1214l-211 361h121l98 -184l43 -123l43 123l109 184h106l-209 -361h-100z" />
    <glyph glyph-name="breve" unicode="&#x2d8;" 
d="M512 1272q-111 0 -164 75.5t-55 198.5h92v-28q0 -72 29.5 -110t97.5 -38t97.5 38t29.5 110v28h92q-2 -123 -55 -198.5t-164 -75.5z" />
    <glyph glyph-name="dotaccent" unicode="&#x2d9;" 
d="M512 1223q-37 0 -64.5 26.5t-27.5 67.5t27.5 67.5t64.5 26.5t64.5 -26.5t27.5 -67.5t-27.5 -67.5t-64.5 -26.5z" />
    <glyph glyph-name="ring" unicode="&#x2da;" 
d="M512 1210q-86 0 -142.5 56.5t-56.5 165.5q0 108 56.5 165.5t142.5 57.5t142.5 -57.5t56.5 -165.5q0 -109 -56.5 -165.5t-142.5 -56.5zM512 1290q60 0 83 32t23 110q0 90 -28.5 117.5t-77.5 27.5t-77.5 -27.5t-28.5 -117.5q0 -79 23.5 -110.5t82.5 -31.5z" />
    <glyph glyph-name="ogonek" unicode="&#x2db;" 
d="M504 -481q-76 0 -130.5 45t-54.5 123q0 153 201 313h62l-84 -117q-35 -51 -51.5 -90t-16.5 -98q0 -98 92 -98q35 0 57.5 7t63.5 21l12 -69q-63 -37 -151 -37z" />
    <glyph glyph-name="tilde" unicode="&#x2dc;" 
d="M612 1231q-65 0 -116 67l-43 56l-23 24t-24 8q-58 0 -58 -114v-25h-84q0 121 45 178.5t103 57.5q65 0 116 -68l43 -55q15 -17 24 -25t23 -8q58 0 58 115v24h84q0 -120 -45 -177.5t-103 -57.5z" />
    <glyph glyph-name="hungarumlaut" unicode="&#x2dd;" 
d="M610 1214l146 336h147l-215 -336h-78zM315 1214l146 336h147l-215 -336h-78z" />
    <glyph glyph-name="uni0394" unicode="&#x394;" horiz-adv-x="1536" 
d="M76 0l576 1536h232l572 -1536h-1380zM352 148h812l-412 1108z" />
    <glyph glyph-name="uni0394" unicode="&#x2206;" horiz-adv-x="1536" 
d="M76 0l576 1536h232l572 -1536h-1380zM352 148h812l-412 1108z" />
    <glyph glyph-name="uni03A9" unicode="&#x3a9;" horiz-adv-x="1664" 
d="M832 1376q-188 0 -322 -142t-134 -398q0 -244 88 -404t260 -252v-180h-636v196h448q-120 44 -232 210t-112 442q0 264 166 482t474 218t474 -210t166 -490q0 -276 -112 -442t-232 -210h448v-196h-636v180q172 92 260 252t88 404q0 208 -126 374t-330 166z" />
    <glyph glyph-name="uni03A9" unicode="&#x2126;" horiz-adv-x="1664" 
d="M832 1376q-188 0 -322 -142t-134 -398q0 -244 88 -404t260 -252v-180h-636v196h448q-120 44 -232 210t-112 442q0 264 166 482t474 218t474 -210t166 -490q0 -276 -112 -442t-232 -210h448v-196h-636v180q172 92 260 252t88 404q0 208 -126 374t-330 166z" />
    <glyph glyph-name="pi" unicode="&#x3c0;" horiz-adv-x="1408" 
d="M296 0v1028h-284v148h1304v-148h-320v-684q0 -116 46 -160t110 -44q48 0 80 2t64 14v-128q-48 -24 -90 -34t-118 -10q-128 0 -202 80t-74 272v692h-328v-1028h-188z" />
    <glyph glyph-name="endash" unicode="&#x2013;" horiz-adv-x="821" 
d="M113 557v100h596v-100h-596z" />
    <glyph glyph-name="emdash" unicode="&#x2014;" horiz-adv-x="1272" 
d="M113 557v100h1046v-100h-1046z" />
    <glyph glyph-name="quoteleft" unicode="&#x2018;" horiz-adv-x="469" 
d="M236 1014q-46 0 -78.5 31.5t-32.5 80.5q0 71 59 162l109 168l41 -20l-86 -222l61 -8q35 -33 35 -80q0 -49 -31.5 -80.5t-76.5 -31.5z" />
    <glyph glyph-name="quoteright" unicode="&#x2019;" horiz-adv-x="469" 
d="M176 995l-41 21l86 221l-61 8q-15 15 -25 32t-10 48q0 49 31.5 81t76.5 32q46 0 78.5 -32t32.5 -81q0 -71 -59 -162z" />
    <glyph glyph-name="quotesinglbase" unicode="&#x201a;" horiz-adv-x="469" 
d="M176 -229l-41 20l86 221l-61 8q-35 35 -35 80q0 50 31.5 81.5t76.5 31.5q46 0 78.5 -31.5t32.5 -81.5q0 -72 -59 -161z" />
    <glyph glyph-name="quotedblleft" unicode="&#x201c;" horiz-adv-x="780" 
d="M547 1014q-45 0 -78 31.5t-33 80.5q0 73 60 162l108 168l41 -20l-86 -222l62 -8q34 -34 34 -80q0 -49 -31.5 -80.5t-76.5 -31.5zM236 1014q-46 0 -78.5 31.5t-32.5 80.5q0 71 59 162l109 168l41 -20l-86 -222l61 -8q35 -33 35 -80q0 -49 -31.5 -80.5t-76.5 -31.5z" />
    <glyph glyph-name="quotedblright" unicode="&#x201d;" horiz-adv-x="780" 
d="M487 995l-41 21l86 221l-61 8q-14 15 -24.5 32t-10.5 48q0 49 32 81t77 32t77.5 -32t32.5 -81q0 -75 -59 -162zM176 995l-41 21l86 221l-61 8q-15 15 -25 32t-10 48q0 49 31.5 81t76.5 32q46 0 78.5 -32t32.5 -81q0 -71 -59 -162z" />
    <glyph glyph-name="quotedblbase" unicode="&#x201e;" horiz-adv-x="780" 
d="M487 -229l-41 20l86 221l-61 8q-14 15 -24.5 32.5t-10.5 47.5q0 50 32 81.5t77 31.5t77.5 -31.5t32.5 -81.5q0 -76 -59 -161zM176 -229l-41 20l86 221l-61 8q-35 35 -35 80q0 50 31.5 81.5t76.5 31.5q46 0 78.5 -31.5t32.5 -81.5q0 -72 -59 -161z" />
    <glyph glyph-name="dagger" unicode="&#x2020;" horiz-adv-x="985" 
d="M471 885l-182 -29h-178v105h178l180 -29l-41 186v256h129v-256l-41 -186l180 29h178v-105h-178l-182 29l43 -240v-371l-37 -606h-55l-37 606v371z" />
    <glyph glyph-name="daggerdbl" unicode="&#x2021;" horiz-adv-x="985" 
d="M471 885l-182 -29h-178v105h178l180 -29l-41 186v256h129v-256l-41 -186l180 29h178v-105h-178l-182 29l43 -240v-248l-43 -239l182 28h178v-104h-178l-180 29l41 -187v-256h-129v256l41 187l-180 -29h-178v104h178l182 -28l-43 239v248z" />
    <glyph glyph-name="bullet" unicode="&#x2022;" horiz-adv-x="647" 
d="M322 455q-89 0 -147 62.5t-58 144.5q0 84 58 147t147 63q86 0 147 -58t61 -152q0 -90 -60.5 -148.5t-147.5 -58.5z" />
    <glyph glyph-name="ellipsis" unicode="&#x2026;" horiz-adv-x="1325" 
d="M1083 -18q-47 0 -81.5 32.5t-34.5 85.5q0 54 34.5 87.5t81.5 33.5q50 0 84.5 -33.5t34.5 -87.5q0 -53 -34.5 -85.5t-84.5 -32.5zM662 -18q-48 0 -82.5 32.5t-34.5 85.5q0 54 34.5 87.5t82.5 33.5q49 0 83.5 -33.5t34.5 -87.5q0 -53 -34.5 -85.5t-83.5 -32.5zM240 -18
q-47 0 -82 32.5t-35 85.5q0 54 35 87.5t82 33.5q49 0 83.5 -33.5t34.5 -87.5q0 -53 -34.5 -85.5t-83.5 -32.5z" />
    <glyph glyph-name="perthousand" unicode="&#x2030;" horiz-adv-x="2345" 
d="M383 512q-137 0 -217 114t-80 312q0 186 83 303t218 117q134 0 216.5 -114.5t82.5 -301.5q0 -195 -82.5 -312.5t-220.5 -117.5zM397 0l733 1333h105l-733 -1333h-105zM1956 -29q-139 0 -218 115.5t-79 310.5q0 187 82.5 303.5t218.5 116.5q137 0 218 -116t81 -300
q0 -193 -82.5 -311.5t-220.5 -118.5zM1243 -29q-137 0 -217 114t-80 312q0 187 82.5 303.5t218.5 116.5q138 0 218.5 -115.5t80.5 -300.5q0 -192 -81.5 -311t-221.5 -119zM385 594q87 0 134.5 71.5t47.5 225.5v86q0 293 -182 293q-86 0 -134 -71t-48 -224v-86
q0 -156 46.5 -225.5t135.5 -69.5zM1958 53q88 0 135 74t47 223v86q0 293 -182 293t-182 -295v-86q0 -154 46 -224.5t136 -70.5zM1245 53q182 0 182 297v86q0 293 -182 293q-88 0 -135 -73.5t-47 -221.5v-86q0 -295 182 -295z" />
    <glyph glyph-name="guilsinglleft" unicode="&#x2039;" horiz-adv-x="569" 
d="M371 0l-271 352v111l269 352h127l-230 -305l-94 -102l94 -101l230 -307h-125z" />
    <glyph glyph-name="guilsinglright" unicode="&#x203a;" horiz-adv-x="569" 
d="M74 0l229 305l94 103l-94 100l-229 307h125l270 -352v-111l-268 -352h-127z" />
    <glyph glyph-name="uni203D" unicode="&#x203d;" horiz-adv-x="1167" 
d="M637 315l-74 9l4 272q0 51 13.5 76.5t68.5 36.5q101 15 154 38.5t80 63t40.5 125t13.5 144.5q0 88 -30.5 130.5t-85.5 60t-159 17.5q-98 0 -228 -26l-18 90q119 39 262 39q383 0 383 -336q0 -140 -37.5 -223.5t-122 -134t-219.5 -66.5zM383 299l-164 457l-147 555l125 30
l149 -550l92 -476zM516 -18q-43 0 -76.5 31.5t-33.5 80.5q0 51 33.5 83t76.5 32q47 0 80 -32t33 -83q0 -49 -33 -80.5t-80 -31.5z" />
    <glyph glyph-name="fraction" unicode="&#x2044;" horiz-adv-x="616" 
d="M-68 0l646 1333h106l-645 -1333h-107z" />
    <glyph glyph-name="fraction" unicode="&#x2215;" horiz-adv-x="616" 
d="M-68 0l646 1333h106l-645 -1333h-107z" />
    <glyph glyph-name="Euro" unicode="&#x20ac;" horiz-adv-x="1057" 
d="M229 758h-151v100h162q30 238 145 369t301 131q92 0 160.5 -17.5t140.5 -44.5l-22 -100l-85 26q-104 31 -206 31q-138 0 -213 -98.5t-96 -296.5h417v-100h-426v-149l2 -48h424v-100h-415q22 -213 99 -303t208 -90q66 0 113.5 8.5t105.5 31.5l78 29l35 -90
q-76 -37 -148 -56.5t-172 -19.5q-384 0 -446 490h-162v100h151l-2 109v44z" />
    <glyph glyph-name="uni2117" unicode="&#x2117;" horiz-adv-x="1262" 
d="M627 -29q-269 0 -399 183.5t-130 515.5q0 326 136.5 507t396.5 181q264 0 398 -180.5t134 -503.5q0 -703 -536 -703zM627 39q246 0 355.5 150.5t109.5 484.5q0 317 -114 466.5t-347 149.5q-236 0 -348.5 -153.5t-112.5 -466.5q0 -326 109.5 -478.5t347.5 -152.5zM387 188
v934h260q138 0 213.5 -78t75.5 -208q0 -137 -79 -213t-210 -76h-149v-359h-111zM498 629h137q110 0 148 48t38 154v23q0 107 -40 144.5t-152 37.5h-131v-407z" />
    <glyph glyph-name="trademark" unicode="&#x2122;" horiz-adv-x="1415" 
d="M676 584v749h110l152 -518l29 -199l39 199l157 518h115v-749h-98v334l28 374l-82 -336l-116 -372h-97l-108 372l-70 336l25 -374v-334h-84zM276 1257h-190v76h479v-76h-190v-673h-99v673z" />
    <glyph glyph-name="partialdiff" unicode="&#x2202;" horiz-adv-x="1280" 
d="M476 -32q-200 0 -310 112t-110 280q0 220 158 390t390 170q96 0 198 -34t162 -70q12 84 12 168q0 188 -68 294t-188 106q-128 0 -202 -28t-150 -76l-44 164q76 44 168 74t228 30q236 0 344 -154t108 -426q0 -416 -204 -708t-492 -292zM488 128q343 0 456 556
q-32 32 -120 64t-176 32q-192 0 -288 -126t-96 -282q0 -108 54 -176t170 -68z" />
    <glyph glyph-name="product" unicode="&#x220f;" horiz-adv-x="1536" 
d="M332 0v1348h-252v176h1376v-176h-244v-1348h-208v1356h-464v-1356h-208z" />
    <glyph glyph-name="summation" unicode="&#x2211;" horiz-adv-x="1152" 
d="M1084 1524v-180h-752l464 -560l-492 -596h776v-188h-1040v172l520 616l-492 592v144h1016z" />
    <glyph glyph-name="minus" unicode="&#x2212;" horiz-adv-x="1004" 
d="M123 559v111h758v-111h-758z" />
    <glyph glyph-name="radical" unicode="&#x221a;" horiz-adv-x="897" 
d="M315 0l-243 768h125l135 -459l53 -276l49 276l314 1161h110l-412 -1470h-131z" />
    <glyph glyph-name="infinity" unicode="&#x221e;" horiz-adv-x="1536" 
d="M1072 396q-148 0 -232 84q-40 44 -72 108q-133 -192 -328 -192q-156 0 -250 112t-94 300q0 176 112 292t260 116q114 0 192 -49.5t120 -138.5q113 188 320 188q148 0 246 -104t98 -292q0 -180 -104 -302t-268 -122zM472 1048q-96 0 -156 -66t-60 -190t46 -182t146 -58
q178 0 252 256q-70 240 -228 240zM1072 556q84 0 146 70t62 190q0 100 -46 172t-154 72q-79 0 -128.5 -49.5t-103.5 -206.5q12 -152 72 -196q64 -52 152 -52z" />
    <glyph glyph-name="integral" unicode="&#x222b;" horiz-adv-x="1152" 
d="M-8 -392l64 132q60 -20 108 -20t78 34t46 134l228 1336q56 320 364 320q92 0 162 -22t110 -46l-64 -172q-119 76 -220 76q-92 0 -138 -58t-58 -134l-224 -1412q-20 -108 -98 -158t-174 -50q-60 0 -110 12t-74 28z" />
    <glyph glyph-name="approxequal" unicode="&#x2248;" horiz-adv-x="1536" 
d="M236 400q-8 44 -8 80q0 100 60 172t188 72q100 0 174 -28l138 -54t124 -44t108 -18q76 0 108 30t32 74l-4 32h144q8 -44 8 -80q0 -100 -60 -172t-188 -72q-100 0 -174 26t-138 52t-124 42t-108 16q-76 0 -108 -28t-32 -68l4 -32h-144zM236 860q-8 44 -8 80q0 100 60 172
t188 72q100 0 174 -28l138 -54t124 -44t108 -18q76 0 108 30t32 74l-4 32h144q8 -44 8 -80q0 -100 -60 -172t-188 -72q-100 0 -174 26t-138 52t-124 42t-108 16q-76 0 -108 -28t-32 -68l4 -32h-144z" />
    <glyph glyph-name="notequal" unicode="&#x2260;" horiz-adv-x="1536" 
d="M212 976v200h688l96 180h172l-96 -180h256v-200h-364l-196 -372h560v-200h-668l-112 -216h-176l116 216h-276v200h380l200 372h-580z" />
    <glyph glyph-name="lessequal" unicode="&#x2264;" horiz-adv-x="1536" 
d="M1348 236l-1140 472v164l1140 472v-216l-900 -336l900 -340v-216zM212 24v192h1136v-192h-1136z" />
    <glyph glyph-name="greaterequal" unicode="&#x2265;" horiz-adv-x="1536" 
d="M212 236v216l900 340l-900 336v216l1140 -472v-164zM212 24v192h1136v-192h-1136z" />
    <glyph glyph-name="lozenge" unicode="&#x25ca;" horiz-adv-x="1152" 
d="M472 -48l-404 804l404 804h184l428 -804l-428 -804h-184zM556 152l320 616l-304 588l-320 -616z" />
    <glyph glyph-name="uniF8FF" unicode="&#xf8ff;" horiz-adv-x="1217" 
d="M154 -29q-51 0 -82 54.5t-52.5 177.5t-50.5 463h60q24 -315 38 -414t34 -162t53 -63q32 0 51.5 61.5t33 155.5t21.5 207l19 215q27 345 47 464.5t50.5 173.5t80.5 54q62 0 96 -90t53 -294l29 -308q22 -286 36.5 -397.5t35 -176.5t53.5 -65t52 61.5t32.5 155.5t21.5 207
l19 215q26 326 46.5 452.5t50.5 183t81 56.5q49 0 79 -50t50.5 -156.5t54.5 -485.5h-59q-10 102 -18.5 214.5t-21.5 206t-32.5 155t-52.5 61.5t-51.5 -61.5t-30.5 -155t-20 -205.5q-22 -286 -44.5 -506.5t-58 -312t-98.5 -91.5q-65 0 -101 95.5t-62.5 363t-38.5 451.5
q-7 112 -19.5 205.5t-31 155t-50.5 61.5q-33 0 -51.5 -61.5t-31 -155t-20.5 -205.5q-18 -251 -42 -488t-59 -329.5t-99 -92.5z" />
    <glyph glyph-name="exclam_comma.ss01" horiz-adv-x="522" 
d="M231 356l-34 492v569h129v-569l-35 -492h-60zM207 -233l-47 24l88 211l-68 10q-35 33 -35 80q0 53 35 86t80 33q47 0 81 -33t34 -86q0 -49 -23.5 -95t-46.5 -81z" />
    <glyph glyph-name="comma_question.ss01" horiz-adv-x="868" 
d="M305 356l-35 271l-2 34q0 26 8.5 47t61.5 37q147 43 196 75t69 85t20 162v16q0 141 -50 194.5t-204 53.5q-80 0 -145.5 -15.5t-143.5 -43.5l-19 90q166 76 324 76q367 0 367 -365q0 -175 -81 -264.5t-286 -130.5v-322h-80zM297 -233l-47 24l88 211l-68 10q-34 32 -34 80
q0 53 34.5 86t79.5 33q47 0 81 -33t34 -86q0 -49 -23.5 -95t-46.5 -81z" />
    </font>
</defs>
</svg>
